<?xml version="1.0" encoding="utf-8"?>
<!-- Generator: Adobe Illustrator 25.2.0, SVG Export Plug-In . SVG Version: 6.00 Build 0)  -->
<svg version="1.1" id="Layer_1" xmlns="http://www.w3.org/2000/svg" xmlns:xlink="http://www.w3.org/1999/xlink" x="0px" y="0px"
	 viewBox="0 0 700.2371216 169.8787537" style="enable-background:new 0 0 700.2371216 169.8787537;" xml:space="preserve">
<style type="text/css">
	.st0{fill:#A453B9;}
	.st1{fill:#FFFFFF;}
	.st2{fill:#344845;}
	.st3{fill:#D13306;}
	.st4{fill:#004D93;}
	.st5{fill:#0081BE;}
	.st6{fill:#1167F1;}
	.st7{fill:#FFC400;}
	.st8{fill:#FF7A3D;}
	.st9{fill:#00A580;}
	.st10{fill:#53C3D0;}
	.st11{fill:#671C4C;}
	.st12{fill:#00E3C2;}
	.st13{fill:#00B056;}
	.st14{fill:#BC2A46;}
	.st15{fill:#FF192E;}
</style>
<g>
	<g>
		<path class="st0" d="M1303.3758545-696.7199707h-160c-11,0-20-9-20-20v-125c0-11,9-20,20-20h160c11,0,20,9,20,20v125
			C1323.3758545-705.7199707,1314.3758545-696.7199707,1303.3758545-696.7199707z"/>
		<g>
			<path class="st1" d="M1295.1473389-811.3830566c0-4.1425781-3.3574219-7.5-7.5-7.5s-7.5,3.3574219-7.5,7.5v2.7585449
				c-12.0739746-9.8952637-31.7473145-21.7341309-56.7714844-21.7341309c-42.0742188,0-69.0273438,33.46875-70.1542969,34.8935547
				c-2.5654297,3.2441406-2.015625,7.9453125,1.2226562,10.5185547c3.2392578,2.5712891,7.9550781,2.03125,10.5322266-1.2011719
				c0.2333984-0.2919922,23.7138672-29.2109375,58.3994141-29.2109375c19.3798828,0,35.2580566,9.0273438,45.5415039,17.0458984
				h-1.840332c-4.1425781,0-7.5,3.3574219-7.5,7.5s3.3574219,7.5,7.5,7.5h20.5703125c0.0009766,0,0.001709,0,0.0024414,0
				c0.0009766,0,0.001709,0,0.0024414,0c0.0026855,0,0.0053711-0.0007324,0.0078125-0.0007324
				c0.3696289-0.0004883,0.7299805-0.036377,1.0852051-0.088623c0.072998-0.0107422,0.1452637-0.0202637,0.2182617-0.0332031
				c0.3569336-0.0632324,0.704834-0.1496582,1.0424805-0.2614746c0.0561523-0.0185547,0.1105957-0.0410156,0.1665039-0.0610352
				c0.7456055-0.2668457,1.435791-0.6467285,2.0510254-1.1218262c0.0244141-0.0187988,0.0517578-0.0310059,0.0761719-0.050293
				c0.0180664-0.0144043,0.0336914-0.0307617,0.0517578-0.0454102c0.1142578-0.092041,0.222168-0.1911621,0.3308105-0.2897949
				c0.078125-0.0708008,0.1591797-0.138916,0.2336426-0.2124023c0.0854492-0.0842285,0.1640625-0.1750488,0.2453613-0.2634277
				c0.0871582-0.0942383,0.1772461-0.1865234,0.2585449-0.2844238c0.0568848-0.0683594,0.1069336-0.1418457,0.161377-0.2121582
				c0.0949707-0.1230469,0.1918945-0.2446289,0.2783203-0.3723145c0.043457-0.0639648,0.0800781-0.1325684,0.121582-0.1977539
				c0.0871582-0.1379395,0.1760254-0.2749023,0.253418-0.4172363c0.0581055-0.1064453,0.1066895-0.21875,0.159668-0.328125
				c0.0510254-0.105957,0.1071777-0.2099609,0.1530762-0.3178711c0.0646973-0.1516113,0.1181641-0.3088379,0.1728516-0.465332
				c0.0246582-0.0705566,0.0546875-0.1394043,0.0771484-0.2106934c0.0471191-0.1491699,0.083252-0.3032227,0.1210938-0.456543
				c0.0209961-0.0837402,0.0466309-0.1660156,0.0644531-0.2502441c0.0268555-0.1264648,0.043457-0.2563477,0.0637207-0.3852539
				c0.0185547-0.1166992,0.0405273-0.2329102,0.0534668-0.3503418c0.0114746-0.1044922,0.0146484-0.2114258,0.0219727-0.3173828
				c0.0097656-0.145752,0.0205078-0.2910156,0.0219727-0.4372559c0-0.0231934,0.003418-0.0456543,0.003418-0.0688477V-811.3830566z"
				/>
			<path class="st1" d="M1292.3074951-773.4934082c-3.2392578-2.5703125-7.9541016-2.03125-10.5322266,1.2011719
				c-0.2333984,0.2919922-23.7138672,29.2109375-58.3994141,29.2109375c-19.3798828,0-35.2580566-9.0273438-45.5415039-17.0458984
				h1.840332c4.1425781,0,7.5-3.3574219,7.5-7.5s-3.3574219-7.5-7.5-7.5h-20.5703125
				c-0.0893555,0-0.1760254,0.0102539-0.2646484,0.0134277c-0.1347656,0.0046387-0.269043,0.0085449-0.4038086,0.0202637
				c-0.119873,0.0107422-0.2375488,0.0280762-0.3557129,0.0441895c-0.1242676,0.0170898-0.248291,0.0334473-0.3718262,0.0568848
				c-0.1237793,0.0231934-0.2451172,0.0527344-0.3666992,0.0820312c-0.1154785,0.027832-0.2307129,0.0554199-0.3452148,0.0888672
				c-0.1247559,0.0366211-0.246582,0.0788574-0.3686523,0.121582c-0.107666,0.0375977-0.215332,0.0749512-0.3217773,0.1176758
				c-0.1252441,0.050293-0.2468262,0.1066895-0.3684082,0.1635742c-0.0993652,0.0463867-0.1989746,0.0917969-0.2966309,0.1428223
				c-0.1259766,0.0656738-0.2478027,0.1376953-0.3696289,0.2104492c-0.0888672,0.0529785-0.1782227,0.104248-0.265625,0.161377
				c-0.126709,0.0830078-0.2480469,0.1726074-0.3693848,0.2629395c-0.060791,0.045166-0.1245117,0.0837402-0.1843262,0.1311035
				c-0.0180664,0.0144043-0.0336914,0.0307617-0.0517578,0.0454102c-0.1142578,0.092041-0.222168,0.1911621-0.3308105,0.2897949
				c-0.078125,0.0708008-0.1591797,0.138916-0.2336426,0.2124023c-0.0854492,0.0842285-0.1640625,0.1750488-0.2453613,0.2634277
				c-0.0871582,0.0942383-0.1772461,0.1865234-0.2585449,0.2844238c-0.0568848,0.0683594-0.1069336,0.1418457-0.161377,0.2121582
				c-0.0949707,0.1230469-0.1918945,0.2446289-0.2783203,0.3723145c-0.0429688,0.0632324-0.0793457,0.1311035-0.1203613,0.1958008
				c-0.0876465,0.1386719-0.177002,0.2763672-0.2548828,0.4194336c-0.0581055,0.1066895-0.1066895,0.2189941-0.159668,0.3286133
				c-0.0510254,0.1057129-0.1069336,0.2092285-0.152832,0.3168945c-0.0646973,0.1518555-0.1181641,0.3093262-0.1730957,0.4663086
				c-0.0246582,0.0703125-0.0544434,0.138916-0.0769043,0.2099609c-0.0471191,0.1494141-0.083252,0.3032227-0.1210938,0.456543
				c-0.0209961,0.0837402-0.0466309,0.1660156-0.0644531,0.2502441c-0.0268555,0.1264648-0.043457,0.2563477-0.0637207,0.3852539
				c-0.0185547,0.1166992-0.0405273,0.2329102-0.0534668,0.3503418c-0.0114746,0.1044922-0.0146484,0.2114258-0.0219727,0.3173828
				c-0.0097656,0.145752-0.0205078,0.2910156-0.0219727,0.4372559c0,0.0231934-0.003418,0.0456543-0.003418,0.0688477v20.5703125
				c0,4.1425781,3.3574219,7.5,7.5,7.5s7.5-3.3574219,7.5-7.5v-2.7585449
				c12.0739746,9.8952637,31.7473145,21.7341309,56.7714844,21.7341309c42.0742188,0,69.0273438-33.46875,70.1542969-34.8935547
				C1296.0955811-766.2189941,1295.5457764-770.920166,1292.3074951-773.4934082z"/>
			<path class="st1" d="M1198.0279541-779.2165527c0,12.0458984,8.5202637,22.0998535,19.8625488,24.4692383l3.4748535-19.4980469
				h-11.3457031l18.0288086-29.4663086c-1.6218262-0.3305664-3.3007812-0.5048828-5.0205078-0.5048828
				C1209.2208252-804.2165527,1198.0279541-793.0236816,1198.0279541-779.2165527z"/>
			<path class="st1" d="M1223.0279541-754.2165527c13.8071289,0,25-11.1928711,25-25
				c0-12.0478516-8.5231934-22.1030273-19.8681641-24.470459l-3.4689941,19.465332h11.345459l-18.0476074,29.4970703
				C1219.616333-754.3913574,1221.3016357-754.2165527,1223.0279541-754.2165527z"/>
		</g>
	</g>
	<g>
		<path class="st2" d="M1353.6484375-779.9333496c0-18.2236328,9.6748047-25.4980469,23.2490234-25.4980469
			c13.3496094,0,23.0244141,7.2744141,23.0244141,25.4980469c0,20.25-9.9746094,26.9248047-23.0244141,26.9248047
			C1363.3232422-753.0085449,1353.6484375-760.2839355,1353.6484375-779.9333496z M1387.0966797-779.9333496
			c0-12.5986328-4.9492188-16.6484375-10.3496094-16.6484375c-5.3994141,0-10.2744141,4.0498047-10.2744141,16.6484375
			c0,14.0244141,4.875,18.0751953,10.2744141,18.0751953
			C1382.1474609-761.8581543,1387.0966797-765.9089355,1387.0966797-779.9333496z"/>
		<path class="st2" d="M1406.7480469-804.5319824h21.2236328c9.9746094,0,17.1748047,5.0253906,17.1748047,15.1494141
			c0,11.0244141-6.9755859,17.3994141-17.1748047,17.3994141h-8.6992188v18.0742188h-12.5244141V-804.5319824z
			 M1419.2724609-795.4567871v14.3994141h5.8496094c3.8994141,0,7.4248047-2.1005859,7.4248047-7.5751953
			c0-5.1748047-3.5253906-6.8242188-7.4248047-6.8242188H1419.2724609z"/>
		<path class="st2" d="M1450.8476562-804.5319824h13.4238281l13.2744141,25.1240234c1.125,2.1748047,2.625,6,3.8251953,9h0.2998047
			c-0.1494141-2.8505859-0.5244141-6.9003906-0.5244141-9.8251953v-24.2988281h10.2744141v50.6230469h-13.125
			l-13.7988281-25.0488281c-1.2753906-2.25-2.625-5.5498047-3.6748047-8.25h-0.3007812
			c0.2255859,2.8496094,0.6005859,6.2246094,0.6005859,9v24.2988281h-10.2744141V-804.5319824z"/>
		<path class="st2" d="M1498.3222656-804.5319824h26.0986328v8.8496094h-6.8242188v32.9238281h6.8242188v8.8496094h-26.0986328
			v-8.8496094h6.7490234v-32.9238281h-6.7490234V-804.5319824z"/>
	</g>
</g>
<g>
	<g>
		<path class="st3" d="M2427.3757324-693.6672363h-160c-11,0-20-9-20-20v-125c0-11,9-20,20-20h160c11,0,20,9,20,20v125
			C2447.3757324-702.6672363,2438.3757324-693.6672363,2427.3757324-693.6672363z"/>
		<g>
			<path class="st1" d="M2347.3757324-838.6672363l-54.126709,31.25v62.5l54.126709,31.25l54.126709-31.25v-62.5
				L2347.3757324-838.6672363z M2386.5024414-753.5773926l-39.126709,22.5895996l-39.126709-22.5895996v-45.1796875
				l39.126709-22.5895996l39.126709,22.5895996V-753.5773926z"/>
			<polygon class="st1" points="2335.5695801,-800.3039551 2320.5695801,-791.6437988 2320.5695801,-760.6906738 
				2335.5695801,-752.0305176 2335.5695801,-768.6672363 2359.1818848,-768.6672363 2359.1818848,-752.0305176 
				2374.1818848,-760.6906738 2374.1818848,-791.6437988 2359.1818848,-800.3039551 2359.1818848,-783.6672363 
				2335.5695801,-783.6672363 			"/>
		</g>
	</g>
	<g>
		<path class="st2" d="M2497.0598145-801.5910645h12.5244141v19.1240234h15.3740234v-19.1240234h12.5244141v50.6230469h-12.5244141
			v-21.4492188h-15.3740234v21.4492188h-12.5244141V-801.5910645z"/>
		<path class="st2" d="M2557.7336426-772.342041l-16.2744141-29.2490234h14.1738281l6.6748047,12.375
			c1.2753906,2.3994141,2.7001953,5.6240234,2.7001953,5.6240234h0.2998047c0,0,1.2753906-3.1494141,2.625-5.7744141
			l6.375-12.2246094h11.5488281l-15.5986328,29.2490234v21.3740234h-12.5244141V-772.342041z"/>
		<path class="st2" d="M2590.2824707-801.5910645h21.2236328c9.9746094,0,17.1748047,5.0253906,17.1748047,15.1494141
			c0,11.0244141-6.9755859,17.3994141-17.1748047,17.3994141h-8.6992188v18.0742188h-12.5244141V-801.5910645z
			 M2602.8068848-792.5158691v14.3994141h5.8496094c3.8994141,0,7.4248047-2.1005859,7.4248047-7.5751953
			c0-5.1748047-3.5253906-6.8242188-7.4248047-6.8242188H2602.8068848z"/>
		<path class="st2" d="M2634.3820801-801.5910645h21.2236328c9.9746094,0,17.1748047,5.0253906,17.1748047,15.1494141
			c0,11.0244141-6.9755859,17.3994141-17.1748047,17.3994141h-8.6992188v18.0742188h-12.5244141V-801.5910645z
			 M2646.9064941-792.5158691v14.3994141h5.8496094c3.8994141,0,7.4248047-2.1005859,7.4248047-7.5751953
			c0-5.1748047-3.5253906-6.8242188-7.4248047-6.8242188H2646.9064941z"/>
		<path class="st2" d="M2678.4816895-801.5910645h33.5234375v9.2998047h-20.9990234v10.8740234h17.6240234v9.2998047h-17.6240234
			v11.8496094h21.7490234v9.2998047h-34.2734375V-801.5910645z"/>
		<path class="st2" d="M2719.2814941-801.5910645h20.8486328c9.8994141,0,16.5742188,4.7998047,16.5742188,14.0996094
			c0,7.5742188-5.1748047,12.1494141-10.1992188,13.7246094c1.5,1.2744141,2.625,3,3.5244141,4.7998047
			c2.1005859,4.2744141,3.5253906,8.9990234,7.9501953,8.9990234c1.125,0,2.0244141-0.375,2.0244141-0.375l-0.9746094,8.9248047
			c0,0-2.7001953,0.6748047-5.0244141,0.6748047c-6,0-9.4501953-2.3242188-12.9746094-10.3496094
			c-1.5-3.5996094-3.6005859-9.8994141-6.375-9.8994141h-2.8496094v20.0244141h-12.5244141V-801.5910645z M2731.8059082-792.5158691
			v12.4492188h4.4990234c3.6005859,0,7.7998047-1.125,7.7998047-6.5253906c0-4.4248047-2.8496094-5.9238281-6.2998047-5.9238281
			H2731.8059082z"/>
	</g>
</g>
<g>
	<g>
		<path class="st4" d="M179.375824-681.7359009h-160c-11,0-20-9-20-20v-125c0-11,9-20,20-20h160c11,0,20,9,20,20v125
			C199.375824-690.7359009,190.375824-681.7359009,179.375824-681.7359009z"/>
		<g>
			<path class="st1" d="M46.8528786-740.0962524v-27.2470703h90.9604492
				c-2.987793,5.4580078-4.6884766,11.7177734-4.6884766,18.3662109v13.2089844
				c3.2719727-0.9838867,6.123291-2.234375,8.0161133-3.1591797l6.5839844-3.2177734l5.3999023,2.637207v-9.4692383
				c0-10.1269531,8.2392578-18.3662109,18.3662109-18.3662109v-20h-70.4760742v-11.9277344h10v-20h-10h-63.945797H26.8528767v20
				h10.2163105v11.9277344H26.8528767v53.1425781c6.8833027,0,13.9960957-2.9619141,17.6079121-4.7265625L46.8528786-740.0962524z
				 M57.0691872-799.2710571h23.945797v11.9277344h-23.945797V-799.2710571z"/>
			<path class="st1" d="M152.1155701-734.4360962l-4.3901367-2.1445312l-4.3891602,2.1455078
				c-4.0004883,1.9550781-11.8891602,5.234375-19.7788086,5.234375c-7.8886719,0-15.7788086-3.2792969-19.7797852-5.234375
				l-4.390625-2.1455078l-4.3901367,2.1455078c-4.0004883,1.9550781-11.8886719,5.234375-19.7773438,5.234375
				c-7.8862305,0-15.7802696-3.2802734-19.7836876-5.2353516l-4.3901367-2.1445312l-4.3891602,2.1455078
				c-4.0004883,1.9550781-11.9145508,5.234375-19.8037128,5.234375v20c9.099123,0,17.6704121-2.5546875,24.1953144-5.2783203
				c6.527832,2.7236328,15.0747032,5.2783203,24.1713829,5.2783203c9.0986328,0,17.6435547-2.5537109,24.168457-5.2773438
				c6.5253906,2.7236328,15.0712891,5.2773438,24.1694336,5.2773438c9.0996094,0,17.6455078-2.5546875,24.1704102-5.2783203
				c6.527832,2.7236328,15.074707,5.2783203,24.1708984,5.2783203v-20
				C164.013031-729.2007446,156.118988-732.4810181,152.1155701-734.4360962z"/>
		</g>
	</g>
	<g>
		<path class="st2" d="M229.3907471-789.5479126h33.5234375v9.2998047h-20.9990234v10.8740234h17.6240234v9.2998047h-17.6240234
			v11.8496094h21.7490234v9.2998047h-34.2734375V-789.5479126z"/>
		<path class="st2" d="M270.1905518-789.5479126h21.2236328c9.9746094,0,17.1748047,5.0253906,17.1748047,15.1494141
			c0,11.0244141-6.9755859,17.3994141-17.1748047,17.3994141h-8.6992188v18.0742188h-12.5244141V-789.5479126z
			 M282.7149658-780.4727173v14.3994141h5.8496094c3.8994141,0,7.4248047-2.1005859,7.4248047-7.5751953
			c0-5.1748047-3.5253906-6.8242188-7.4248047-6.8242188H282.7149658z"/>
		<path class="st2" d="M312.0401611-789.5479126h26.0986328v8.8496094h-6.8242188v32.9238281h6.8242188v8.8496094h-26.0986328
			v-8.8496094h6.7490234v-32.9238281h-6.7490234V-789.5479126z"/>
		<path class="st2" d="M344.9649658-789.5479126h13.4238281l13.2744141,25.1240234c1.125,2.1748047,2.625,6,3.8251953,9h0.2998047
			c-0.1494141-2.8505859-0.5244141-6.9003906-0.5244141-9.8251953v-24.2988281h10.2744141v50.6230469h-13.125
			l-13.7988281-25.0488281c-1.2753906-2.25-2.625-5.5498047-3.6748047-8.25h-0.3007812
			c0.2255859,2.8496094,0.6005859,6.2246094,0.6005859,9v24.2988281h-10.2744141V-789.5479126z"/>
		<path class="st2" d="M392.4395752-789.5479126h26.0986328v8.8496094h-6.8251953v32.9238281h6.8251953v8.8496094h-26.0986328
			v-8.8496094h6.7490234v-32.9238281h-6.7490234V-789.5479126z"/>
		<path class="st2" d="M422.5147705-764.9492798c0-18.2236328,9.6748047-25.4980469,23.2490234-25.4980469
			c13.3496094,0,23.0244141,7.2744141,23.0244141,25.4980469c0,20.25-9.9746094,26.9248047-23.0244141,26.9248047
			C432.1895752-738.0244751,422.5147705-745.2998657,422.5147705-764.9492798z M455.9630127-764.9492798
			c0-12.5986328-4.9492188-16.6484375-10.3496094-16.6484375c-5.3994141,0-10.2744141,4.0498047-10.2744141,16.6484375
			c0,14.0244141,4.875,18.0751953,10.2744141,18.0751953C451.0137939-746.8740845,455.9630127-750.9248657,455.9630127-764.9492798z
			"/>
	</g>
</g>
<g>
	<g>
		<path class="st5" d="M-951.8551025-695.6335449h-154.2562256c-11,0-20-9-20-20v-125c0-11,9-20,20-20h154.2562256c11,0,20,9,20,20
			v125C-931.8551025-704.6335449-940.8551025-695.6335449-951.8551025-695.6335449z"/>
		<g>
			<rect x="-1089.6022949" y="-744.8054199" class="st1" width="121.2382812" height="15"/>
			<path class="st1" d="M-986.8381348-801.1774902c0-9.6494141-7.8505859-17.5-17.5-17.5h-48.7451172
				c-9.6494141,0-17.5,7.8505859-17.5,17.5v46.8847656h83.7451172V-801.1774902z M-1001.8381348-769.2927246h-53.7451172
				v-31.8847656c0-1.3554688,1.1450195-2.5,2.5-2.5h48.7451172c1.3549805,0,2.5,1.1445312,2.5,2.5V-769.2927246z"/>
			<path class="st1" d="M-1080.5720215-782.7419434v-15h-9.0302734c-0.831543,0-1.5341797-0.7021484-1.5341797-1.5341797
				v-19.6855469h-15v19.6855469c0,9.1171875,7.4169922,16.5341797,16.5341797,16.5341797H-1080.5720215z"/>
			<path class="st1" d="M-966.829834-818.9616699v19.6855469c0,0.8320312-0.7026367,1.5341797-1.5341797,1.5341797h-8.4853516v15
				h8.4853516c9.1171875,0,16.5341797-7.4169922,16.5341797-16.5341797v-19.6855469H-966.829834z"/>
		</g>
	</g>
	<g>
		<path class="st2" d="M-901.8134155-803.4399414h20.8486328c9.8994141,0,16.5742188,4.7998047,16.5742188,14.0996094
			c0,7.5742188-5.1748047,12.1494141-10.1992188,13.7246094c1.5,1.2744141,2.625,3,3.5244141,4.7998047
			c2.1005859,4.2744141,3.5253906,8.9990234,7.9501953,8.9990234c1.125,0,2.0244141-0.375,2.0244141-0.375l-0.9746094,8.9248047
			c0,0-2.7001953,0.6748047-5.0244141,0.6748047c-6,0-9.4501953-2.3242188-12.9746094-10.3496094
			c-1.5-3.5996094-3.6005859-9.8994141-6.375-9.8994141h-2.8496094v20.0244141h-12.5244141V-803.4399414z M-889.2890015-794.3647461
			v12.4492188h4.4990234c3.6005859,0,7.7998047-1.125,7.7998047-6.5253906c0-4.4248047-2.8496094-5.9238281-6.2998047-5.9238281
			H-889.2890015z"/>
		<path class="st2" d="M-843.3143921-803.4399414h12.6738281l17.0996094,50.6230469h-12.6748047l-3.1494141-9.5996094h-16.9492188
			l-3.0751953,9.5996094h-10.9492188L-843.3143921-803.4399414z M-843.3143921-771.7163086h10.8740234l-3.4492188-10.6494141
			c-1.2001953-3.5996094-1.7255859-8.6992188-1.7255859-8.6992188h-0.2998047c0,0-0.75,5.1748047-1.875,8.6240234
			L-843.3143921-771.7163086z"/>
		<path class="st2" d="M-808.8895874-803.4399414h13.4238281l13.2744141,25.1240234c1.125,2.1748047,2.625,6,3.8251953,9h0.2998047
			c-0.1494141-2.8505859-0.5244141-6.9003906-0.5244141-9.8251953v-24.2988281h10.2744141v50.6230469h-13.125
			l-13.7988281-25.0488281c-1.2753906-2.25-2.625-5.5498047-3.6748047-8.25h-0.3007812
			c0.2255859,2.8496094,0.6005859,6.2246094,0.6005859,9v24.2988281h-10.2744141V-803.4399414z"/>
		<path class="st2" d="M-761.4901733-778.4663086c0-18.2988281,9.0742188-25.8730469,23.0986328-25.8730469
			c14.7744141,0,20.6992188,8.0996094,19.0498047,19.0488281l-11.7001953,1.0498047
			c1.2753906-8.0244141-1.8740234-11.2490234-7.5742188-11.2490234c-5.4746094,0-9.8994141,4.0498047-9.8994141,17.0986328
			c0,13.7998047,4.7998047,17.3242188,10.2744141,17.3242188c5.1748047,0,9.375-3.2246094,8.4746094-9.8242188l10.9492188,1.125
			c0.8251953,10.2744141-6.5996094,17.8496094-20.0986328,17.8496094
			C-752.640564-751.9165039-761.4901733-760.0170898-761.4901733-778.4663086z"/>
		<path class="st2" d="M-712.1395874-803.4399414h12.5244141v19.1240234h15.3740234v-19.1240234h12.5244141v50.6230469h-12.5244141
			v-21.4492188h-15.3740234v21.4492188h-12.5244141V-803.4399414z"/>
		<path class="st2" d="M-662.5653687-803.4399414h33.5234375v9.2998047h-20.9990234v10.8740234h17.6240234v9.2998047h-17.6240234
			v11.8496094h21.7490234v9.2998047h-34.2734375V-803.4399414z"/>
		<path class="st2" d="M-621.765564-803.4399414h20.8486328c9.8994141,0,16.5742188,4.7998047,16.5742188,14.0996094
			c0,7.5742188-5.1748047,12.1494141-10.1992188,13.7246094c1.5,1.2744141,2.625,3,3.5244141,4.7998047
			c2.1005859,4.2744141,3.5253906,8.9990234,7.9501953,8.9990234c1.125,0,2.0244141-0.375,2.0244141-0.375l-0.9746094,8.9248047
			c0,0-2.7001953,0.6748047-5.0244141,0.6748047c-6,0-9.4501953-2.3242188-12.9746094-10.3496094
			c-1.5-3.5996094-3.6005859-9.8994141-6.375-9.8994141h-2.8496094v20.0244141h-12.5244141V-803.4399414z M-609.2411499-794.3647461
			v12.4492188h4.5c3.5996094,0,7.7988281-1.125,7.7988281-6.5253906c0-4.4248047-2.8496094-5.9238281-6.2998047-5.9238281
			H-609.2411499z"/>
		<path class="st2" d="M-561.7665405-803.4399414h19.3486328c12.5996094,0,22.3496094,7.3496094,22.3496094,25.0488281
			c0,17.3242188-9.2998047,25.5742188-22.3496094,25.5742188h-19.3486328V-803.4399414z M-543.618103-761.8911133
			c5.5498047,0,10.875-3.375,10.875-16.5c0-13.0488281-5.3251953-15.9736328-10.875-15.9736328h-5.6240234v32.4736328H-543.618103z"
			/>
		<path class="st2" d="M-513.1669312-803.4399414h33.523468v9.2998047h-20.9990234v10.8740234h17.6240234v9.2998047h-17.6240234
			v11.8496094h21.7490234v9.2998047h-34.273468V-803.4399414z"/>
		<path class="st2" d="M-463.9676819-769.4663086c-0.9003906,4.0498047,0.6748047,8.7001953,8.625,8.7001953
			c5.2490234,0,7.0488281-2.1005859,7.0488281-4.875c0-4.2001953-4.1992188-5.25-9.1494141-7.0498047
			c-7.4248047-2.5498047-16.5742188-6.1503906-16.5742188-16.7246094c0-9.4492188,7.2744141-15.2246094,19.6494141-14.9238281
			c15.1494141,0.2998047,19.4238281,9.2246094,17.7744141,16.9492188l-11.4746094,1.0498047
			c0.75-5.8496094-1.3505859-9.1494141-7.2744141-9.1494141c-3.9755859,0-6.2255859,1.5-6.2255859,4.6494141
			c0,4.2001953,4.0498047,5.4746094,9,7.1992188c7.6494141,2.5507812,16.7246094,5.625,16.7246094,16.125
			c0,9.0742188-6.75,15.5996094-19.9492188,15.5996094c-12.375,0-20.8496094-5.7001953-19.1240234-16.5L-463.9676819-769.4663086z"
			/>
		<path class="st2" d="M-428.9422913-803.4399414h12.5244141v14.1748047c0,1.5742188-0.2255859,3.8994141-0.375,5.6240234h0.2998047
			c0.8251953-1.2744141,1.875-3.2246094,3.1494141-4.7246094l12.375-15.0742188h13.4990234l-16.4990234,19.8740234
			l17.3994141,30.7490234h-14.3994141l-11.6992188-21.2246094l-3.75,4.5751953v16.6494141h-12.5244141V-803.4399414z"/>
		<path class="st2" d="M-386.4178772-803.4399414h40.4228516v9.2998047h-14.0986328v41.3232422h-12.5244141v-41.3232422h-13.7998047
			V-803.4399414z"/>
		<path class="st2" d="M-343.7440491-778.8413086c0-18.2236328,9.6748047-25.4980469,23.2490234-25.4980469
			c13.3496094,0,23.0244141,7.2744141,23.0244141,25.4980469c0,20.25-9.9746094,26.9248047-23.0244141,26.9248047
			C-334.0692444-751.9165039-343.7440491-759.1918945-343.7440491-778.8413086z M-310.2958069-778.8413086
			c0-12.5986328-4.9492188-16.6484375-10.3496094-16.6484375c-5.3994141,0-10.2744141,4.0498047-10.2744141,16.6484375
			c0,14.0253906,4.875,18.0751953,10.2744141,18.0751953C-315.2450256-760.7661133-310.2958069-764.815918-310.2958069-778.8413086z
			"/>
		<path class="st2" d="M-290.6444397-803.4399414h21.2236328c9.9746094,0,17.1747894,5.0244141,17.1747894,15.1494141
			c0,11.0244141-6.9755707,17.3994141-17.1747894,17.3994141h-8.6992188v18.0742188h-12.5244141V-803.4399414z
			 M-278.1200256-794.3647461v14.3994141h5.8496094c3.8994141,0,7.4248047-2.1005859,7.4248047-7.5751953
			c0-5.1748047-3.5253906-6.8242188-7.4248047-6.8242188H-278.1200256z"/>
	</g>
</g>
<g>
	<g>
		<path class="st6" d="M-947.4960938-1565.0394287h-154.2562256c-11,0-20-9-20-20v-125c0-11,9-20,20-20h154.2562256c11,0,20,9,20,20
			v125C-927.4960938-1574.0394287-936.4960938-1565.0394287-947.4960938-1565.0394287z"/>
		<g>
			<path class="st1" d="M-1071.8835449-1647.9493408c-16.5421143,0-30,13.4580078-30,30s13.4578857,30,30,30
				c16.5419922,0,30-13.4580078,30-30S-1055.3415527-1647.9493408-1071.8835449-1647.9493408z M-1071.8835449-1607.9493408
				c-5.5228271,0-10-4.4771729-10-10c0-5.5229492,4.4771729-10,10-10s10,4.4770508,10,10
				C-1061.8835449-1612.4265137-1066.3607178-1607.9493408-1071.8835449-1607.9493408z"/>
			<path class="st1" d="M-960.4654541-1634.7402344v-14.9241943c0-7.4941406-6.0966797-13.5908203-13.5908203-13.5908203
				h-37.7363281l-8.8461914-36.546875c-1.0859375-4.4873047-5.1025391-7.6474609-9.7192383-7.6474609h-54.8105469
				c-5.5229492,0-10,4.4770508-10,10s4.4770508,10,10,10h3.5698242v13.2929688h-3.5698242c-5.5229492,0-10,4.4770508-10,10
				s4.4770508,10,10,10h16.4418945c18.2241211,0,33.050293,14.8261719,33.050293,33.0620117l0.0068359,5.8686523
				c0.0063477,5.5180664,4.4819336,9.9882812,10,9.9882812h29.1947021
				c3.2584229,10.0218506,12.6829224,17.2883301,23.7772827,17.2883301c13.7850342,0,25-11.2149658,25-25
				C-947.6975708-1622.2926025-952.8530273-1630.4500732-960.4654541-1634.7402344z M-1061.5987549-1673.6689453v-13.7806396
				h23.3725586l6.9835205,28.8518066C-1039.260376-1666.6140137-1049.821167-1672.0795898-1061.5987549-1673.6689453z
				 M-1020.5587158-1643.2947998c0.2943726,0.0266113,0.5908813,0.0419922,0.8896484,0.0419922
				c0.0136108,0,0.0275269-0.0024414,0.0411377-0.0024414h39.1624756v6.5476074
				c-5.963562,1.954834-10.942627,6.0942383-13.9906616,11.4699707h-21.3794556
				C-1016.331543-1631.6420898-1017.9822388-1637.7244873-1020.5587158-1643.2947998z M-972.6975708-1607.9493408
				c-2.7614746,0-5-2.2386475-5-5c0-2.7614746,2.2385254-5,5-5c2.7614136,0,5,2.2385254,5,5
				C-967.6975708-1610.1879883-969.9361572-1607.9493408-972.6975708-1607.9493408z"/>
		</g>
	</g>
	<g>
		<path class="st2" d="M-897.2122803-1672.9632568h20.8486328c9.8994141,0,16.5742188,4.7998047,16.5742188,14.0996094
			c0,7.5742188-5.1748047,12.1494141-10.1992188,13.7246094c1.5,1.2744141,2.625,3,3.5244141,4.7998047
			c2.1005859,4.2744141,3.5253906,8.9990234,7.9501953,8.9990234c1.125,0,2.0244141-0.375,2.0244141-0.375l-0.9746094,8.9248047
			c0,0-2.7001953,0.6748047-5.0244141,0.6748047c-6,0-9.4501953-2.3242188-12.9746094-10.3496094
			c-1.5-3.5996094-3.6005859-9.8994141-6.375-9.8994141h-2.8496094v20.0244141h-12.5244141V-1672.9632568z
			 M-884.6878662-1663.8880615v12.4492188h4.5c3.5996094,0,7.7988281-1.125,7.7988281-6.5253906
			c0-4.4248047-2.8496094-5.9238281-6.2998047-5.9238281H-884.6878662z"/>
		<path class="st2" d="M-851.2376709-1672.9632568h12.5244141v14.1748047c0,1.5742188-0.2255859,3.8994141-0.375,5.6240234
			h0.2998047c0.8251953-1.2744141,1.875-3.2246094,3.1494141-4.7246094l12.375-15.0742188h13.4990234l-16.4990234,19.8740234
			l17.3994141,30.7490234h-14.3994141l-11.6992188-21.2246094l-3.75,4.5751953v16.6494141h-12.5244141V-1672.9632568z"/>
		<path class="st2" d="M-804.8880615-1672.9632568h33.5234375v9.2998047h-20.9990234v10.8740234h17.6240234v9.2998047h-17.6240234
			v11.8496094h21.7490234v9.2998047h-34.2734375V-1672.9632568z"/>
	</g>
</g>
<g>
	<g>
		<path class="st7" d="M179.375824-1566.9379883h-160c-11,0-20-9-20-20v-125c0-11,9-20,20-20h160c11,0,20,9,20,20v125
			C199.375824-1575.9379883,190.375824-1566.9379883,179.375824-1566.9379883z"/>
		<g>
			<path class="st1" d="M109.0393982-1696.9433594c0.0239258-5.5229492-4.2543945-10.0195312-9.7773438-10.043457
				c-0.0146484,0-0.0297852,0-0.0444336,0c-5.5024414,0-9.9750977,4.4487305-9.9990234,9.956543v41.2597656
				c-0.0239258,5.5229492,4.2543945,10.0195312,9.7773438,10.043457c0.0146484,0,0.0292969,0,0.0444336,0
				c5.5024414,0,9.9750977-4.4487305,9.9990234-9.956543V-1696.9433594z"/>
			<path class="st1" d="M75.1106873-1631.3652344l-35.8149376,20.8134766
				c-4.7753906,2.7749023-6.3964844,8.8955078-3.621582,13.6704102c1.8564453,3.1943359,5.2089844,4.9770508,8.6552734,4.9770508
				c1.7055664,0,3.4345703-0.4365234,5.0151367-1.3554688l35.8149376-20.8134766
				c4.7753906-2.7749023,6.3964844-8.8955078,3.621582-13.6704102S79.8841248-1634.1411133,75.1106873-1631.3652344z"/>
			<path class="st1" d="M159.1111755-1610.5698242l-35.8676758-20.7080078
				c-4.7836914-2.7602539-10.8984375-1.1220703-13.6601562,3.6601562
				c-2.7617188,4.7832031-1.1225586,10.8989258,3.6601562,13.6601562l35.8676758,20.7080078
				c1.5751953,0.9091797,3.2939453,1.3413086,4.9907227,1.3413086c3.4560547,0,6.8173828-1.793457,8.6694336-5.0014648
				C165.5330505-1601.6928711,163.8938904-1607.8085938,159.1111755-1610.5698242z"/>
		</g>
	</g>
	<g>
		<path class="st2" d="M229.4201965-1674.7443848h12.5244141v14.1748047c0,1.5742188-0.2255859,3.8994141-0.375,5.6240234h0.2998047
			c0.8251953-1.2744141,1.875-3.2246094,3.1494141-4.7246094l12.375-15.0742188h13.4990234l-16.4990234,19.8740234
			l17.3994141,30.7490234h-14.3994141l-11.6992188-21.2246094l-3.75,4.5751953v16.6494141h-12.5244141V-1674.7443848z"/>
		<path class="st2" d="M284.0188293-1640.020752c-1.3496094,4.875,1.4248047,7.9501953,5.625,7.9501953
			c4.7246094,0,7.125-3.75,7.125-9.0751953c0-5.6992188-2.8505859-7.875-6.6748047-7.875
			c-2.0253906,0-4.2001953,0.6005859-6.2246094,2.4003906l-5.4003906-5.8496094l15.6748047-12.9746094H275.54422v-9.2998047
			h31.1240234v9.8242188l-12,9.9003906c7.6503906-0.75,14.9248047,4.2744141,14.9248047,14.0244141
			c0,10.5742188-8.625,17.7744141-19.4990234,17.7744141c-10.2744141,0-18.8994141-6.375-16.6494141-15.2998047
			L284.0188293-1640.020752z"/>
		<path class="st2" d="M325.1184387-1640.770752c-0.9003906,4.0498047,0.6748047,8.7001953,8.6240234,8.7001953
			c5.25,0,7.0498047-2.1005859,7.0498047-4.875c0-4.2001953-4.1992188-5.25-9.1494141-7.0498047
			c-7.4248047-2.5498047-16.5742188-6.1503906-16.5742188-16.7246094c0-9.4492188,7.2744141-15.2246094,19.6494141-14.9238281
			c15.1494141,0.2998047,19.4238281,9.2246094,17.7744141,16.9492188l-11.4746094,1.0498047
			c0.75-5.8496094-1.3505859-9.1494141-7.2753906-9.1494141c-3.9746094,0-6.2246094,1.5-6.2246094,4.6494141
			c0,4.2001953,4.0498047,5.4746094,9,7.1992188c7.6494141,2.5507812,16.7246094,5.625,16.7246094,16.125
			c0,9.0742188-6.75,15.5996094-19.9492188,15.5996094c-12.375,0-20.8496094-5.7001953-19.1240234-16.5L325.1184387-1640.770752z"/>
	</g>
</g>
<g>
	<g>
		<path class="st8" d="M1303.3758545-1563.5583496h-160c-11,0-20-9-20-20v-125c0-11,9-20,20-20h160c11,0,20,9,20,20v125
			C1323.3758545-1572.5583496,1314.3758545-1563.5583496,1303.3758545-1563.5583496z"/>
		<g>
			<path class="st1" d="M1230.3206787-1693.831543c1.8388672,1.8537598,2.8466797,4.3127441,2.8366699,6.9243164
				l-0.060791,16.0661621c5.4570312-3.3056641,9.1328125-9.2697754,9.1328125-16.1025391
				c0-10.3942871-8.4562988-18.8505859-18.8505859-18.8505859s-18.8505859,8.4562988-18.8505859,18.8505859
				c0,6.7805176,3.6220703,12.7023926,9.0102539,16.0234375l0.0605469-16.0596924
				c0.0200195-5.3723145,4.4084473-9.7427979,9.7800293-9.7427979
				C1226.0294189-1696.7127686,1228.4801025-1695.6860352,1230.3206787-1693.831543z"/>
			<path class="st1" d="M1223.3968506-1691.65625c-0.0065918,0-0.0119629,0-0.0185547,0
				c-2.5942383,0-4.7023926,2.0986328-4.7121582,4.6951904l-0.1535645,40.5599365
				c-0.0097656,2.6020508,2.092041,4.7199707,4.6945801,4.7302246c0.0065918,0,0.0119629,0,0.0183105,0
				c2.5942383,0,4.7026367-2.0986328,4.7124023-4.6951904l0.1535645-40.5599365
				C1228.1011963-1689.5280762,1225.9993896-1691.6459961,1223.3968506-1691.65625z"/>
			<path class="st1" d="M1176.3909912-1595.7750244c-3.4750977,0-6.7158203-1.8653564-8.4589844-4.8668213
				c-1.3127441-2.2578125-1.6674805-4.8916016-0.9978027-7.416626c0.6679688-2.5257568,2.2810059-4.6392822,4.5402832-5.9520264
				l13.8911133-8.0727539c-2.6750488-1.4610596-5.7224121-2.3225098-8.9794922-2.3225098
				c-10.3942871,0-18.8505859,8.4562988-18.8505859,18.8505859c0,10.394043,8.4562988,18.8503418,18.8505859,18.8503418
				c10.2702637,0,18.6333008-8.2595215,18.8320312-18.4829102l-13.9174805,8.0883789
				C1179.8031006-1596.2319336,1178.1077881-1595.7750244,1176.3909912-1595.7750244z"/>
			<path class="st1" d="M1209.0894775-1630.0108643l-35.0710449,20.3812256
				c-2.2504883,1.3079834-3.0144043,4.192627-1.7067871,6.4431152c0.8747559,1.5048828,2.4553223,2.3452148,4.0793457,2.3452148
				c0.8034668,0,1.6181641-0.2061768,2.3632812-0.6387939l35.0708008-20.3812256
				c2.2504883-1.3078613,3.0146484-4.192627,1.7070312-6.4431152
				C1214.2242432-1630.5539551,1211.3404541-1631.3178711,1209.0894775-1630.0108643z"/>
			<path class="st1" d="M1270.3660889-1624.4089355c-3.2751465,0-6.3376465,0.8719482-9.0234375,2.3483887l13.9128418,8.0327148
				c4.6706543,2.6972656,6.2753906,8.6896973,3.5788574,13.3586426c-1.7399902,3.0166016-4.9873047,4.8908691-8.472168,4.8908691
				c-1.7119141,0-3.4006348-0.4536133-4.8867188-1.3120117l-13.9384766-8.0473633
				c0.2268066,10.1987305,8.5769043,18.4298096,18.8291016,18.4298096c10.3942871,0,18.8505859-8.4562988,18.8505859-18.8504639
				C1289.2166748-1615.9526367,1280.760376-1624.4089355,1270.3660889-1624.4089355z"/>
			<path class="st1" d="M1270.3616943-1600.8449707c1.6286621,0,3.2131348-0.8459473,4.0856934-2.3571777
				c1.3015137-2.2541504,0.5292969-5.1361084-1.7248535-6.4376221l-35.3554688-20.4124756
				c-2.2543945-1.3033447-5.1364746-0.5283203-6.4375,1.7248535c-1.3015137,2.2541504-0.5292969,5.1359863,1.7250977,6.4375
				l35.3552246,20.4125977C1268.7523193-1601.0483398,1269.5621338-1600.8449707,1270.3616943-1600.8449707z"/>
		</g>
	</g>
	<g>
		<path class="st2" d="M1353.3709717-1671.3647461h12.5244141v14.1748047c0,1.5742188-0.2255859,3.8994141-0.375,5.6240234
			h0.2998047c0.8251953-1.2744141,1.875-3.2246094,3.1494141-4.7246094l12.375-15.0742188h13.4990234l-16.4990234,19.8740234
			l17.3994141,30.7490234h-14.3994141l-11.6992188-21.2246094l-3.75,4.5751953v16.6494141h-12.5244141V-1671.3647461z"/>
		<path class="st2" d="M1407.9696045-1636.6411133c-1.3496094,4.875,1.4248047,7.9501953,5.625,7.9501953
			c4.7246094,0,7.125-3.75,7.125-9.0751953c0-5.6992188-2.8505859-7.875-6.6748047-7.875
			c-2.0253906,0-4.2001953,0.6005859-6.2246094,2.4003906l-5.4003906-5.8496094l15.6748047-12.9746094h-18.5996094v-9.2998047
			h31.1240234v9.8242188l-12,9.9003906c7.6503906-0.75,14.9248047,4.2744141,14.9248047,14.0244141
			c0,10.5742188-8.625,17.7744141-19.4990234,17.7744141c-10.2744141,0-18.8994141-6.375-16.6494141-15.2998047
			L1407.9696045-1636.6411133z"/>
		<path class="st2" d="M1438.3446045-1646.7661133c0-18.2236328,9.6748047-25.4980469,23.2490234-25.4980469
			c13.3496094,0,23.0244141,7.2744141,23.0244141,25.4980469c0,20.25-9.9746094,26.9248047-23.0244141,26.9248047
			C1448.0194092-1619.8413086,1438.3446045-1627.1166992,1438.3446045-1646.7661133z M1471.7928467-1646.7661133
			c0-12.5986328-4.9492188-16.6484375-10.3496094-16.6484375c-5.3994141,0-10.2744141,4.0498047-10.2744141,16.6484375
			c0,14.0244141,4.875,18.0751953,10.2744141,18.0751953
			C1466.8436279-1628.690918,1471.7928467-1632.7416992,1471.7928467-1646.7661133z"/>
		<path class="st2" d="M1499.8436279-1637.3911133c-0.9003906,4.0498047,0.6748047,8.7001953,8.6240234,8.7001953
			c5.25,0,7.0498047-2.1005859,7.0498047-4.875c0-4.2001953-4.1992188-5.25-9.1494141-7.0498047
			c-7.4248047-2.5498047-16.5742188-6.1503906-16.5742188-16.7246094c0-9.4492188,7.2744141-15.2246094,19.6494141-14.9238281
			c15.1494141,0.2998047,19.4238281,9.2246094,17.7744141,16.9492188l-11.4746094,1.0498047
			c0.75-5.8496094-1.3505859-9.1494141-7.2753906-9.1494141c-3.9746094,0-6.2246094,1.5-6.2246094,4.6494141
			c0,4.2001953,4.0498047,5.4746094,9,7.1992188c7.6494141,2.5507812,16.7246094,5.625,16.7246094,16.125
			c0,9.0742188-6.75,15.5996094-19.9492188,15.5996094c-12.375,0-20.8496094-5.7001953-19.1240234-16.5L1499.8436279-1637.3911133z"
			/>
	</g>
</g>
<g>
	<g>
		<path class="st9" d="M2431.7348633-1561.973999h-160c-11,0-20-9-20-20v-125c0-11,9-20,20-20h160c11,0,20,9,20,20v125
			C2451.7348633-1570.973999,2442.7348633-1561.973999,2431.7348633-1561.973999z"/>
		<path class="st1" d="M2435.0559082-1642.5531006c0.1101074-0.2642822,0.189209-0.5368652,0.2521973-0.8125
			c0.0166016-0.0726318,0.0297852-0.1455078,0.0432129-0.2193604c0.1066895-0.5894775,0.1066895-1.1906738-0.0002441-1.7800293
			c-0.0131836-0.0726318-0.0263672-0.1442871-0.0424805-0.2156982c-0.0629883-0.2773438-0.1425781-0.5511475-0.253418-0.8168945
			c-0.0151367-0.0360107-0.0356445-0.0686035-0.0515137-0.104248c-0.0710449-0.15979-0.144043-0.3190918-0.232666-0.4726562
			l-19.7666016-34.2368164c-0.0869141-0.1505127-0.1867676-0.2902832-0.2873535-0.4291992
			c-0.0253906-0.0349121-0.0454102-0.0725098-0.0715332-0.1069336c-0.173584-0.2268066-0.3693848-0.4311523-0.5761719-0.6230469
			c-0.0559082-0.0517578-0.1135254-0.1008301-0.1721191-0.1502686c-0.2268066-0.1917725-0.463623-0.3702393-0.7199707-0.5184326
			c-0.0009766-0.0007324-0.0019531-0.0014648-0.0029297-0.0021973c-0.0009766-0.0004883-0.0019531-0.0007324-0.0026855-0.0012207
			c-0.2563477-0.1477051-0.5290527-0.2637939-0.8083496-0.3642578c-0.0732422-0.0264893-0.145752-0.0522461-0.2197266-0.0750732
			c-0.2680664-0.0826416-0.541748-0.1497803-0.8234863-0.1865234c-0.0473633-0.0062256-0.0942383-0.0046387-0.1413574-0.0093994
			c-0.1669922-0.0169678-0.3344727-0.0334473-0.5043945-0.0334473h-39.5341797
			c-0.1699219,0-0.3369141,0.0166016-0.5039062,0.0334473c-0.0478516,0.0048828-0.0949707,0.0031738-0.1425781,0.0095215
			c-0.2814941,0.0366211-0.5544434,0.1036377-0.8220215,0.1861572c-0.0744629,0.0230713-0.1477051,0.0489502-0.2214355,0.0756836
			c-0.2788086,0.1004639-0.5512695,0.2163086-0.8071289,0.3638916c-0.0009766,0.0004883-0.0019531,0.0007324-0.0029297,0.0012207
			c-0.0009766,0.0007324-0.0019531,0.0014648-0.0029297,0.0021973c-0.2563477,0.1481934-0.4931641,0.3266602-0.7199707,0.5184326
			c-0.0585938,0.0494385-0.1162109,0.0985107-0.1721191,0.1502686c-0.2067871,0.1918945-0.402832,0.3962402-0.5761719,0.623291
			c-0.026123,0.0340576-0.0458984,0.0712891-0.0710449,0.105957c-0.1008301,0.1391602-0.2006836,0.2791748-0.2878418,0.4299316
			l-18.3232422,31.7368164h-14.6015625l13.9931641-24.2368164h6.4951172c2.7617188,0,5-2.2387695,5-5s-2.2382812-5-5-5h-9.3818359
			c-1.7861328,0-3.4365234,0.953125-4.3300781,2.5l-18.3232422,31.7368164h-14.6025391l13.9931641-24.2368164h6.4960938
			c2.7617188,0,5-2.2387695,5-5s-2.2382812-5-5-5h-9.3828125c-1.7861328,0-3.4365234,0.953125-4.3300781,2.5l-18.3232422,31.7368164
			h-14.6025391l13.9931641-24.2368164h6.4960938c2.7617188,0,5-2.2387695,5-5s-2.2382812-5-5-5h-9.3828125
			c-1.7861328,0-3.4365234,0.953125-4.3300781,2.5l-19.7666016,34.2368164
			c-0.0876465,0.1518555-0.159668,0.3093262-0.2302246,0.4674072c-0.0168457,0.0377197-0.0383301,0.0721436-0.0541992,0.1103516
			c-0.1105957,0.2650146-0.1901855,0.538208-0.2529297,0.8145752c-0.0163574,0.0721436-0.029541,0.1444092-0.0427246,0.2176514
			c-0.1069336,0.5893555-0.1069336,1.1906738,0,1.7800293c0.0131836,0.0732422,0.0263672,0.1455078,0.0427246,0.2176514
			c0.0627441,0.2763672,0.142334,0.5495605,0.2529297,0.8145752c0.0158691,0.038208,0.0373535,0.0726318,0.0541992,0.1103516
			c0.0705566,0.1580811,0.1425781,0.3155518,0.2302246,0.4674072l19.7666016,34.2373047
			c0.8935547,1.546875,2.5439453,2.5,4.3300781,2.5h9.3828125c2.7617188,0,5-2.2387695,5-5s-2.2382812-5-5-5h-6.4960938
			l-13.9931641-24.2373047h14.6025391l18.3232422,31.7373047c0.8935547,1.546875,2.5439453,2.5,4.3300781,2.5h9.3828125
			c2.7617188,0,5-2.2387695,5-5s-2.2382812-5-5-5h-6.4960938l-13.9931641-24.2373047h14.6025391l18.3232422,31.7373047
			c0.8935547,1.546875,2.5439453,2.5,4.3300781,2.5h9.3818359c2.7617188,0,5-2.2387695,5-5s-2.2382812-5-5-5h-6.4951172
			l-13.9931641-24.2373047h14.6015625l18.3232422,31.7373047c0.0869141,0.1506348,0.1867676,0.2905273,0.2875977,0.4294434
			c0.0251465,0.03479,0.045166,0.0722656,0.0712891,0.1065674c0.173584,0.2269287,0.3693848,0.4312744,0.5761719,0.6231689
			c0.0559082,0.0517578,0.1137695,0.1008301,0.1723633,0.1503906c0.2265625,0.1917725,0.463623,0.3701172,0.7197266,0.5183105
			c0.0009766,0.0007324,0.0019531,0.0014648,0.0029297,0.0021973c0.0205078,0.0119629,0.0424805,0.0195312,0.0632324,0.0311279
			c0.1699219,0.0949707,0.34375,0.1832275,0.5239258,0.2579346c0.1520996,0.0632324,0.3076172,0.1108398,0.4628906,0.157959
			c0.0510254,0.015625,0.0996094,0.0371094,0.151123,0.0510254c0.4272461,0.1152344,0.8620605,0.1728516,1.2939453,0.1728516
			c0.005127,0,0.0100098-0.0009766,0.0151367-0.0009766h39.5136719c0.005127,0,0.0100098,0.0009766,0.0151367,0.0009766
			c0.4318848,0,0.8666992-0.0576172,1.2939453-0.1728516c0.0515137-0.013916,0.1000977-0.0354004,0.151123-0.0510254
			c0.1552734-0.0471191,0.310791-0.0947266,0.4628906-0.157959c0.1801758-0.074707,0.3540039-0.1629639,0.5239258-0.2579346
			c0.020752-0.0115967,0.0427246-0.019165,0.0632324-0.0311279c0.0009766-0.0007324,0.0019531-0.0014648,0.0031738-0.0021973
			c0.2556152-0.1479492,0.4921875-0.3260498,0.7185059-0.517334c0.0593262-0.0500488,0.1176758-0.0998535,0.1743164-0.1523438
			c0.2060547-0.1911621,0.4013672-0.3950195,0.574707-0.6213379c0.0268555-0.0354004,0.0476074-0.0742188,0.0737305-0.1102295
			c0.0998535-0.1380615,0.1992188-0.2769775,0.2856445-0.4266357l19.7666016-34.2373047
			c0.0866699-0.1501465,0.1577148-0.3059082,0.2275391-0.4621582
			C2435.0163574-1642.4764404,2435.0390625-1642.5128174,2435.0559082-1642.5531006z M2410.6743164-1620.2373047
			l-5.7734375-10.0002441l5.3330078-9.2364502h11.5466309L2410.6743164-1620.2373047z M2360.0339355-1639.473999h11.5476074
			l5.3330078,9.2363281l-5.7744141,10.0007324L2360.0339355-1639.473999z M2371.1403809-1668.7116699l5.7741699,10.0004883
			l-5.3330078,9.2371826h-11.5480957L2371.1403809-1668.7116699z M2385.574707-1635.2376709l-5.3330078-9.2363281
			l5.3330078-9.2373047h10.6660156l5.3330078,9.2373047l-5.3330078,9.2363281H2385.574707z M2396.2407227-1663.7113037h-10.6660156
			l-5.7739258-10h22.2133789L2396.2407227-1663.7113037z M2385.574707-1625.2376709h10.6660156l5.7734375,10.0004883h-22.213623
			L2385.574707-1625.2376709z M2410.2338867-1649.473999l-5.3330078-9.2373047l5.7734375-10l11.1066895,19.2373047H2410.2338867z"/>
	</g>
	<g>
		<path class="st2" d="M2501.706543-1669.7803955h12.5244141v19.1240234h15.3740234v-19.1240234h12.5244141v50.6230469h-12.5244141
			v-21.4492188h-15.3740234v21.4492188h-12.5244141V-1669.7803955z"/>
		<path class="st2" d="M2563.8051758-1669.7803955h12.6738281l17.0996094,50.6230469h-12.6748047l-3.1494141-9.5996094h-16.9492188
			l-3.0751953,9.5996094h-10.9492188L2563.8051758-1669.7803955z M2563.8051758-1638.0567627h10.8740234l-3.4492188-10.6494141
			c-1.2001953-3.5996094-1.7255859-8.6992188-1.7255859-8.6992188h-0.2998047c0,0-0.75,5.1748047-1.875,8.6240234
			L2563.8051758-1638.0567627z"/>
		<path class="st2" d="M2598.2299805-1669.7803955h20.8486328c9.8994141,0,16.5742188,4.7998047,16.5742188,14.0996094
			c0,7.5742188-5.1748047,12.1494141-10.1992188,13.7246094c1.5,1.2744141,2.625,3,3.5244141,4.7998047
			c2.1005859,4.2744141,3.5253906,8.9990234,7.9501953,8.9990234c1.125,0,2.0244141-0.375,2.0244141-0.375l-0.9746094,8.9248047
			c0,0-2.7001953,0.6748047-5.0244141,0.6748047c-6,0-9.4501953-2.3242188-12.9746094-10.3496094
			c-1.5-3.5996094-3.6005859-9.8994141-6.375-9.8994141h-2.8496094v20.0244141h-12.5244141V-1669.7803955z
			 M2610.7543945-1660.7052002v12.4492188h4.5c3.5996094,0,7.7988281-1.125,7.7988281-6.5253906
			c0-4.4248047-2.8496094-5.9238281-6.2998047-5.9238281H2610.7543945z"/>
		<path class="st2" d="M2638.0551758-1669.7803955h12.9746094l9.5244141,28.5742188
			c1.2001953,3.6748047,1.6503906,9.1494141,1.6503906,9.1494141h0.2998047c0,0,0.5253906-5.4746094,1.7246094-9.0742188
			l9.375-28.6494141h11.3242188l-17.3242188,50.6230469h-12.1494141L2638.0551758-1669.7803955z"/>
		<path class="st2" d="M2689.5053711-1669.7803955h33.5234375v9.2998047h-20.9990234v10.8740234h17.6240234v9.2998047h-17.6240234
			v11.8496094h21.7490234v9.2998047h-34.2734375V-1669.7803955z"/>
		<path class="st2" d="M2738.7045898-1635.8067627c-0.9003906,4.0498047,0.6748047,8.7001953,8.6240234,8.7001953
			c5.25,0,7.0498047-2.1005859,7.0498047-4.875c0-4.2001953-4.1992188-5.25-9.1494141-7.0498047
			c-7.4248047-2.5498047-16.5742188-6.1503906-16.5742188-16.7246094c0-9.4492188,7.2744141-15.2246094,19.6494141-14.9238281
			c15.1494141,0.2998047,19.4238281,9.2246094,17.7744141,16.9492188l-11.4746094,1.0498047
			c0.75-5.8496094-1.3505859-9.1494141-7.2753906-9.1494141c-3.9746094,0-6.2246094,1.5-6.2246094,4.6494141
			c0,4.2001953,4.0498047,5.4746094,9,7.1992188c7.6494141,2.5507812,16.7246094,5.625,16.7246094,16.125
			c0,9.0742188-6.75,15.5996094-19.9492188,15.5996094c-12.375,0-20.8496094-5.7001953-19.1240234-16.5L2738.7045898-1635.8067627z"
			/>
		<path class="st2" d="M2769.9047852-1669.7803955h40.4228516v9.2998047h-14.0986328v41.3232422h-12.5244141v-41.3232422
			h-13.7998047V-1669.7803955z"/>
		<path class="st2" d="M2815.6538086-1669.7803955h33.5234375v9.2998047h-20.9990234v10.8740234h17.6240234v9.2998047h-17.6240234
			v11.8496094h21.7490234v9.2998047h-34.2734375V-1669.7803955z"/>
		<path class="st2" d="M2856.4536133-1669.7803955h20.8486328c9.8994141,0,16.5742188,4.7998047,16.5742188,14.0996094
			c0,7.5742188-5.1748047,12.1494141-10.1992188,13.7246094c1.5,1.2744141,2.625,3,3.5244141,4.7998047
			c2.1005859,4.2744141,3.5253906,8.9990234,7.9501953,8.9990234c1.125,0,2.0244141-0.375,2.0244141-0.375l-0.9746094,8.9248047
			c0,0-2.7001953,0.6748047-5.0244141,0.6748047c-6,0-9.4501953-2.3242188-12.9746094-10.3496094
			c-1.5-3.5996094-3.6005859-9.8994141-6.375-9.8994141h-2.8496094v20.0244141h-12.5244141V-1669.7803955z
			 M2868.9780273-1660.7052002v12.4492188h4.4990234c3.6005859,0,7.7998047-1.125,7.7998047-6.5253906
			c0-4.4248047-2.8496094-5.9238281-6.2998047-5.9238281H2868.9780273z"/>
	</g>
</g>
<g>
	<g>
		<path class="st10" d="M2427.3757324-2433.5534668h-160c-11,0-20-9-20-20v-125c0-11,9-20,20-20h160c11,0,20,9,20,20v125
			C2447.3757324-2442.5534668,2438.3757324-2433.5534668,2427.3757324-2433.5534668z"/>
		<path class="st1" d="M2247.359375-2502.2629395c13.2939453,0,25.9423828-5.0078125,33.3374023-8.6218262
			c7.3972168,3.6130371,20.0466309,8.6218262,33.3415527,8.6218262c13.2929688,0,25.9414062-5.0078125,33.3364258-8.6218262
			c7.3962402,3.6140137,20.0446777,8.6218262,33.338623,8.6218262s25.9423828-5.0078125,33.3374023-8.6218262
			c7.3972168,3.6130371,20.0466309,8.6218262,33.3415527,8.6218262v-19.9094238
			c-10.6572266,0-23.0170898-6.1152344-26.8513184-8.4541016l-6.4802246-3.9660645l-6.4719238,3.9489746
			c-3.8625488,2.355957-16.2202148,8.4711914-26.8754883,8.4711914s-23.0141602-6.1152344-26.8483887-8.4541016
			l-6.4902344-4.0092773l-6.4909668,4.0102539c-0.1369629,0.0844727-14.0422363,8.453125-26.845459,8.453125
			c-10.6572266,0-23.0170898-6.1152344-26.8513184-8.4541016l-6.4802246-3.9660645l-6.4719238,3.9489746
			c-3.8625488,2.355957-16.2202148,8.4711914-26.8754883,8.4711914V-2502.2629395z"/>
	</g>
	<g>
		<path class="st2" d="M2497.2980957-2541.3654785h20.8486328c9.8994141,0,16.5742188,4.7998047,16.5742188,14.0996094
			c0,7.5742188-5.1748047,12.1494141-10.1992188,13.7246094c1.5,1.2744141,2.625,3,3.5244141,4.7998047
			c2.1005859,4.2744141,3.5253906,8.9990234,7.9501953,8.9990234c1.125,0,2.0244141-0.375,2.0244141-0.375l-0.9746094,8.9248047
			c0,0-2.7001953,0.6748047-5.0244141,0.6748047c-6,0-9.4501953-2.3242188-12.9746094-10.3496094
			c-1.5-3.5996094-3.6005859-9.8994141-6.375-9.8994141h-2.8496094v20.0244141h-12.5244141V-2541.3654785z
			 M2509.8225098-2532.2902832v12.4492188h4.4990234c3.6005859,0,7.7998047-1.125,7.7998047-6.5253906
			c0-4.4248047-2.8496094-5.9238281-6.2998047-5.9238281H2509.8225098z"/>
		<path class="st2" d="M2541.0227051-2541.3654785h26.0986328v8.8496094h-6.8251953v32.9238281h6.8251953v8.8496094h-26.0986328
			v-8.8496094h6.7490234v-32.9238281h-6.7490234V-2541.3654785z"/>
		<path class="st2" d="M2571.0979004-2516.7668457c0-18.2236328,9.6748047-25.4980469,23.2490234-25.4980469
			c13.3496094,0,23.0244141,7.2744141,23.0244141,25.4980469c0,20.25-9.9746094,26.9248047-23.0244141,26.9248047
			C2580.7727051-2489.842041,2571.0979004-2497.1174316,2571.0979004-2516.7668457z M2604.5461426-2516.7668457
			c0-12.5986328-4.9492188-16.6484375-10.3496094-16.6484375c-5.3994141,0-10.2744141,4.0498047-10.2744141,16.6484375
			c0,14.0244141,4.875,18.0751953,10.2744141,18.0751953
			C2599.5969238-2498.6916504,2604.5461426-2502.7424316,2604.5461426-2516.7668457z"/>
	</g>
</g>
<g>
	<g>
		<path class="st11" d="M1303.3758545-2432.2365723h-160c-11,0-20-9-20-20v-125c0-11,9-20,20-20h160c11,0,20,9,20,20v125
			C1323.3758545-2441.2365723,1314.3758545-2432.2365723,1303.3758545-2432.2365723z"/>
		<path class="st1" d="M1294.9608154-2565.0510254c-5.4599609-0.8061523-10.5449219,2.9726562-11.3496094,8.4375
			l-1.4755859,10.0292969l-58.7597656,11.7314453l-58.7597656-11.7314453l-1.4755859-10.0292969
			c-0.8037109-5.4633789-5.890625-9.2441406-11.3496094-8.4375c-5.4638672,0.8041992-9.2412109,5.8857422-8.4375,11.3496094
			l2.5019531,17c0.6152344,4.1806641,3.7919922,7.5229492,7.9355469,8.3505859l41.4013672,8.2658691l5.6425781,34.7121582
			c0.4941406,10.5922852,9.2666016,19.0571289,19.9785156,19.0571289h5.125
			c10.6728516,0,19.4208984-8.4047852,19.9726562-18.9428711l6.3662109-34.8505859
			c0.0075684-0.0410156,0.0090332-0.081543,0.0161133-0.1223145l40.6674805-8.1193848
			c4.1435547-0.8276367,7.3203125-4.1699219,7.9355469-8.3505859l2.5019531-17
			C1304.2020264-2559.1652832,1300.4246826-2564.2468262,1294.9608154-2565.0510254z M1226.1014404-2488.1130371
			c-0.1083984,0.5932617-0.1630859,1.1948242-0.1630859,1.7973633h-5.125c0-0.5375977-0.0429688-1.0742188-0.1298828-1.6044922
			l-4.5493164-27.9836426l5.2836914,1.0549316c0.6464844,0.1289062,1.3017578,0.1933594,1.9580078,0.1933594
			s1.3115234-0.0644531,1.9580078-0.1933594l5.8657227-1.1711426L1226.1014404-2488.1130371z"/>
	</g>
	<g>
		<path class="st2" d="M1353.8786621-2540.048584h12.5244141v41.3232422h21.0742188v9.2998047h-33.5986328V-2540.048584z"/>
		<path class="st2" d="M1389.5036621-2515.4499512c0-18.2236328,9.6748047-25.4980469,23.2490234-25.4980469
			c13.3496094,0,23.0244141,7.2744141,23.0244141,25.4980469c0,20.25-9.9746094,26.9248047-23.0244141,26.9248047
			C1399.1784668-2488.5251465,1389.5036621-2495.8005371,1389.5036621-2515.4499512z M1422.9519043-2515.4499512
			c0-12.5986328-4.9492188-16.6484375-10.3496094-16.6484375c-5.3994141,0-10.2744141,4.0498047-10.2744141,16.6484375
			c0,14.0244141,4.875,18.0751953,10.2744141,18.0751953
			C1418.0026855-2497.3747559,1422.9519043-2501.4255371,1422.9519043-2515.4499512z"/>
		<path class="st2" d="M1442.6032715-2540.048584h13.4238281l13.2744141,25.1240234c1.125,2.1748047,2.625,6,3.8251953,9h0.2998047
			c-0.1494141-2.8505859-0.5244141-6.9003906-0.5244141-9.8251953v-24.2988281h10.2744141v50.6230469h-13.125
			l-13.7988281-25.0488281c-1.2753906-2.25-2.625-5.5498047-3.6748047-8.25h-0.3007812
			c0.2255859,2.8496094,0.6005859,6.2246094,0.6005859,9v24.2988281h-10.2744141V-2540.048584z"/>
		<path class="st2" d="M1512.7263184-2514.9997559h20.8496094v25.5742188h-8.4746094v-8.5498047
			c-1.7998047,5.625-5.8496094,9.4501953-14.5498047,9.4501953c-11.6992188,0-20.4736328-8.0996094-20.4736328-26.4746094
			c0-18.3740234,8.8496094-25.9482422,22.6484375-25.9482422c15.5244141,0,21.5996094,8.7744141,19.875,17.6992188
			l-11.7753906,1.2744141c0.9003906-6.9746094-2.5498047-10.1240234-7.4990234-10.1240234
			c-5.4746094,0-10.2744141,3.9746094-10.2744141,17.3242188c0,13.3486328,4.1240234,17.0986328,10.1992188,17.0986328
			c5.625,0,8.7744141-3.4492188,8.9248047-6.8994141v-1.4248047h-9.4501953V-2514.9997559z"/>
		<path class="st2" d="M1541.0778809-2540.048584h12.5244141v19.1240234h15.3740234v-19.1240234h12.5244141v50.6230469h-12.5244141
			v-21.4492188h-15.3740234v21.4492188h-12.5244141V-2540.048584z"/>
		<path class="st2" d="M1588.3269043-2515.4499512c0-18.2236328,9.6748047-25.4980469,23.2490234-25.4980469
			c13.3496094,0,23.0244141,7.2744141,23.0244141,25.4980469c0,20.25-9.9746094,26.9248047-23.0244141,26.9248047
			C1598.001709-2488.5251465,1588.3269043-2495.8005371,1588.3269043-2515.4499512z M1621.7751465-2515.4499512
			c0-12.5986328-4.9492188-16.6484375-10.3496094-16.6484375c-5.3994141,0-10.2744141,4.0498047-10.2744141,16.6484375
			c0,14.0244141,4.875,18.0751953,10.2744141,18.0751953
			C1616.8259277-2497.3747559,1621.7751465-2501.4255371,1621.7751465-2515.4499512z"/>
		<path class="st2" d="M1641.4265137-2540.048584h20.8486328c9.8994141,0,16.5742188,4.7998047,16.5742188,14.0996094
			c0,7.5742188-5.1748047,12.1494141-10.1992188,13.7246094c1.5,1.2744141,2.625,3,3.5244141,4.7998047
			c2.1005859,4.2744141,3.5253906,8.9990234,7.9501953,8.9990234c1.125,0,2.0244141-0.375,2.0244141-0.375l-0.9746094,8.9248047
			c0,0-2.7001953,0.6748047-5.0244141,0.6748047c-6,0-9.4501953-2.3242188-12.9746094-10.3496094
			c-1.5-3.5996094-3.6005859-9.8994141-6.375-9.8994141h-2.8496094v20.0244141h-12.5244141V-2540.048584z
			 M1653.9509277-2530.9733887v12.4492188h4.5c3.5996094,0,7.7988281-1.125,7.7988281-6.5253906
			c0-4.4248047-2.8496094-5.9238281-6.2998047-5.9238281H1653.9509277z"/>
		<path class="st2" d="M1687.401123-2540.048584h13.4238281l13.2744141,25.1240234c1.125,2.1748047,2.625,6,3.8251953,9h0.2998047
			c-0.1494141-2.8505859-0.5244141-6.9003906-0.5244141-9.8251953v-24.2988281h10.2744141v50.6230469h-13.125
			l-13.7988281-25.0488281c-1.2753906-2.25-2.625-5.5498047-3.6748047-8.25h-0.3007812
			c0.2255859,2.8496094,0.6005859,6.2246094,0.6005859,9v24.2988281h-10.2744141V-2540.048584z"/>
	</g>
</g>
<g>
	<path class="st12" d="M179.375824-2436.8720703h-160c-11,0-20-9-20-20v-125c0-11,9-20,20-20h160c11,0,20,9,20,20v125
		C199.375824-2445.8720703,190.375824-2436.8720703,179.375824-2436.8720703z"/>
	<path class="st1" d="M150.2420349-2468.3789062H-0.6241741v-20h148.5766602v-20.9931641H48.5101051
		c-9.7651367,0-17.7099628-7.9448242-17.7099628-17.7104492v-25.5727539c0-9.7651367,7.9448261-17.7099609,17.7099628-17.7099609
		H199.375824v20H50.8001442v20.9931641h99.4418945c9.765625,0,17.7104492,7.9448242,17.7104492,17.7104492v25.5727539
		C167.9524841-2476.3237305,160.0076599-2468.3789062,150.2420349-2468.3789062z"/>
	<g>
		<path class="st2" d="M240.6966858-2510.704834c-0.9003906,4.0498047,0.6748047,8.7001953,8.625,8.7001953
			c5.2490234,0,7.0488281-2.1005859,7.0488281-4.875c0-4.2001953-4.1992188-5.25-9.1494141-7.0498047
			c-7.4248047-2.5498047-16.5742188-6.1503906-16.5742188-16.7246094c0-9.4492188,7.2744141-15.2246094,19.6494141-14.9238281
			c15.1494141,0.2998047,19.4238281,9.2246094,17.7744141,16.9492188l-11.4746094,1.0498047
			c0.75-5.8496094-1.3505859-9.1494141-7.2744141-9.1494141c-3.9755859,0-6.2255859,1.5-6.2255859,4.6494141
			c0,4.2001953,4.0498047,5.4746094,9,7.1992188c7.6494141,2.5507812,16.7246094,5.625,16.7246094,16.125
			c0,9.0742188-6.75,15.5996094-19.9492188,15.5996094c-12.375,0-20.8496094-5.7001953-19.1240234-16.5L240.6966858-2510.704834z"/>
		<path class="st2" d="M275.2718811-2544.6784668h12.5244141v32.4736328c0,6.4501953,2.7001953,9.1494141,7.875,9.1494141
			c5.0996094,0,8.1738281-2.625,8.1738281-9.3740234v-32.2490234h12.1503906v32.0234375c0,11.625-7.5751953,19.5-20.6992188,19.5
			c-12.2998047,0-20.0244141-7.2001953-20.0244141-18.375V-2544.6784668z"/>
		<path class="st2" d="M324.6966858-2544.6784668h21.6738281c8.9248047,0,15.6738281,3,15.6738281,12.2246094
			c0,6.9746094-3.8242188,9.6748047-10.3496094,11.0996094v0.2998047c7.4248047,0.9003906,11.9248047,4.7998047,11.9248047,12.375
			c0,9.8994141-7.125,14.6240234-16.6494141,14.6240234h-22.2734375V-2544.6784668z M342.6957092-2525.2546387
			c3.2998047,0,6.5996094-0.8994141,6.5996094-5.2490234c0-4.4248047-2.9248047-5.0996094-5.8496094-5.0996094h-6.2998047
			v10.3486328H342.6957092z M343.8959045-2503.1296387c3.8242188,0,7.1240234-1.875,7.1240234-6.9003906
			c0-4.3496094-3.2998047-6.1494141-7.1240234-6.1494141h-6.75v13.0498047H343.8959045z"/>
		<path class="st2" d="M370.2953186-2544.6784668h15.5244141l8.2490234,22.5742188
			c1.2753906,3.5996094,2.1748047,7.2744141,2.1748047,7.2744141h0.3007812c0,0,0.8994141-3.8242188,2.1748047-7.2744141
			l8.0244141-22.5742188h14.7744141v50.6230469h-11.6992188v-25.5742188c0-3,0.8242188-10.0498047,0.8242188-10.0498047h-0.2998047
			c0,0-1.5,7.125-2.4746094,9.6748047l-9.75,25.9492188h-5.625l-9.8242188-25.9492188
			c-1.0498047-2.6992188-2.3251953-9.2246094-2.3251953-9.2246094h-0.2998047c0,0,0.5253906,6.5996094,0.5253906,9.5996094
			v25.5742188h-10.2744141V-2544.6784668z"/>
		<path class="st2" d="M443.1937561-2544.6784668h12.6738281l17.0996094,50.6230469h-12.6748047l-3.1494141-9.5996094h-16.9492188
			l-3.0751953,9.5996094H426.169342L443.1937561-2544.6784668z M443.1937561-2512.954834h10.8740234l-3.4492188-10.6494141
			c-1.2001953-3.5996094-1.7255859-8.6992188-1.7255859-8.6992188h-0.2998047c0,0-0.75,5.1748047-1.875,8.6240234
			L443.1937561-2512.954834z"/>
		<path class="st2" d="M477.6185608-2544.6784668h20.8486328c9.8994141,0,16.5742493,4.7998047,16.5742493,14.0996094
			c0,7.5742188-5.1748352,12.1494141-10.1992493,13.7246094c1.5,1.2744141,2.625,3,3.5244141,4.7998047
			c2.1005859,4.2744141,3.5253906,8.9990234,7.9502258,8.9990234c1.125,0,2.0244141-0.375,2.0244141-0.375l-0.9746094,8.9248047
			c0,0-2.7001953,0.6748047-5.0244141,0.6748047c-6.0000305,0-9.4502258-2.3242188-12.9746399-10.3496094
			c-1.5-3.5996094-3.6005859-9.8994141-6.375-9.8994141h-2.8496094v20.0244141h-12.5244141V-2544.6784668z
			 M490.1429749-2535.6032715v12.4492188h4.4990234c3.6005859,0,7.7998047-1.125,7.7998047-6.5253906
			c0-4.4248047-2.8496094-5.9238281-6.2998047-5.9238281H490.1429749z"/>
		<path class="st2" d="M521.3432007-2544.6784668h26.0986328v8.8496094h-6.8251953v32.9238281h6.8251953v8.8496094h-26.0986328
			v-8.8496094h6.7490234v-32.9238281h-6.7490234V-2544.6784668z"/>
		<path class="st2" d="M554.2680054-2544.6784668h13.4238281l13.2744141,25.1240234c1.125,2.1748047,2.625,6,3.8251953,9h0.2998047
			c-0.1494141-2.8505859-0.5244141-6.9003906-0.5244141-9.8251953v-24.2988281h10.2744141v50.6230469h-13.125
			l-13.7988281-25.0488281c-1.2753906-2.25-2.625-5.5498047-3.6748047-8.25h-0.3007812
			c0.2255859,2.8496094,0.6005859,6.2246094,0.6005859,9v24.2988281h-10.2744141V-2544.6784668z"/>
		<path class="st2" d="M603.9926147-2544.6784668h33.5234375v9.2998047h-20.9990234v10.8740234h17.6240234v9.2998047h-17.6240234
			v11.8496094h21.7490234v9.2998047h-34.2734375V-2544.6784668z"/>
		<path class="st2" d="M644.7924194-2544.6784668h20.8486328c9.8994141,0,16.5742188,4.7998047,16.5742188,14.0996094
			c0,7.5742188-5.1748047,12.1494141-10.1992188,13.7246094c1.5,1.2744141,2.625,3,3.5244141,4.7998047
			c2.1005859,4.2744141,3.5253906,8.9990234,7.9501953,8.9990234c1.125,0,2.0244141-0.375,2.0244141-0.375l-0.9746094,8.9248047
			c0,0-2.7001953,0.6748047-5.0244141,0.6748047c-6,0-9.4501953-2.3242188-12.9746094-10.3496094
			c-1.5-3.5996094-3.6005859-9.8994141-6.375-9.8994141h-2.8496094v20.0244141h-12.5244141V-2544.6784668z
			 M657.3168335-2535.6032715v12.4492188h4.4990234c3.6005859,0,7.7998047-1.125,7.7998047-6.5253906
			c0-4.4248047-2.8496094-5.9238281-6.2998047-5.9238281H657.3168335z"/>
	</g>
</g>
<g>
	<g>
		<path class="st13" d="M-947.4960938-2424.651123h-154.2562256c-11,0-20-9-20-20v-125c0-11,9-20,20-20h154.2562256c11,0,20,9,20,20
			v125C-927.4960938-2433.651123-936.4960938-2424.651123-947.4960938-2424.651123z"/>
		<g>
			<path class="st1" d="M-962.7449951-2480.4985352c-1.1716919-2.8405762-2.4025269-5.6628418-3.6724854-8.4731445
				c-0.456543-1.0102539-0.8996582-2.0246582-1.3688354-3.0310059c-7.9768677-17.1062012-17.5929565-33.1789551-28.7357178-48.125
				c-2.7318726-3.6645508-5.5571899-7.2597656-8.4731445-10.7858887v13.6174316v56.7976074h33.052063H-962.7449951z
				 M-996.5220337-2488.9716797v-36.5395508c7.8416138,11.5559082,14.791748,23.7475586,20.7918091,36.5395508H-996.5220337z"/>
			<path class="st1" d="M-1061.8040771-2488.9716797c-0.9493408,2.8125-1.8620605,5.6352539-2.7180176,8.4731445h8.8740234
				h42.4320679v-82.2165527v-13.6176758c-2.9159546,3.526123-5.741272,7.1213379-8.4731445,10.7858887
				c-11.1426392,14.9462891-20.758606,31.0185547-28.7354126,48.1247559
				C-1054.7681885-2508.1069336-1058.5499268-2498.6125488-1061.8040771-2488.9716797z M-1021.6891479-2550.9304199v61.9587402
				h-31.1699829c2.9420166-8.4162598,6.3101807-16.7126465,10.1138916-24.8693848
				C-1036.6862793-2526.8347168-1029.6436768-2539.2077637-1021.6891479-2550.9304199z"/>
			<path class="st1" d="M-1077.680542-2480.4985352h8.809082c3.8446045-13.440918,8.744873-26.6079102,14.723877-39.4301758
				c8.2365723-17.6633301,18.2679443-34.1958008,29.9813232-49.4750977l-10.7005615,6.498291
				c-2.6027832,1.5803223-5.1915283,3.2150879-7.7470703,4.8789062
				c-7.1851807,10.9755859-13.6049805,22.4904785-19.2130127,34.5170898
				C-1068.3409424-2509.5400391-1073.6229248-2495.1757812-1077.680542-2480.4985352z"/>
			<path class="st1" d="M-1065.5499268-2526.0161133c3.7982178-8.1455078,7.9818115-16.0478516,12.5306396-23.701416
				c-5.769165,4.1882324-11.3964844,8.588623-16.8551025,13.1984863c-1.1456299,2.2897949-2.2692871,4.59375-3.3548584,6.921875
				c-7.4119873,15.8950195-13.2297363,32.3005371-17.4580078,49.0986328h8.7502441
				C-1077.8863525-2496.0576172-1072.4289551-2511.2644043-1065.5499268-2526.0161133z"/>
			<path class="st1" d="M-1072.7348633-2471.0991211l16.9464111,27.1293945l101.8717651-0.2158203v-27.1293945
				L-1072.7348633-2471.0991211z M-962.3898315-2452.640625l-88.7072144,0.1877441l-6.3719482-10.2006836l95.0791626-0.1726074
				V-2452.640625z"/>
			<polygon class="st1" points="-1087.1047363,-2471.0991211 -1070.1583252,-2443.9697266 -1060.1679688,-2443.9697266 
				-1077.1142578,-2471.0991211 			"/>
			<polygon class="st1" points="-1101.331665,-2471.0991211 -1084.385376,-2443.9697266 -1074.3948975,-2443.9697266 
				-1091.3411865,-2471.0991211 			"/>
		</g>
	</g>
	<g>
		<path class="st2" d="M-897.1323853-2532.4626465h32.7734375v9.2998047h-20.2490234v13.1240234h16.4990234v9.2998047h-16.4990234
			v18.8994141h-12.5244141V-2532.4626465z"/>
		<path class="st2" d="M-858.3579712-2532.4626465h12.5244141v41.3232422h21.0742188v9.2998047h-33.5986328V-2532.4626465z"/>
		<path class="st2" d="M-819.5835571-2532.4626465h33.5234375v9.2998047h-20.9990234v10.8740234h17.6240234v9.2998047h-17.6240234
			v11.8496094h21.7490234v9.2998047h-34.2734375V-2532.4626465z"/>
		<path class="st2" d="M-778.7837524-2532.4626465h33.5234375v9.2998047h-20.9990234v10.8740234h17.6240234v9.2998047h-17.6240234
			v11.8496094h21.7490234v9.2998047h-34.2734375V-2532.4626465z"/>
		<path class="st2" d="M-741.8091431-2532.4626465h40.4228516v9.2998047h-14.0986328v41.3232422h-12.5244141v-41.3232422
			h-13.7998047V-2532.4626465z"/>
	</g>
</g>
<g>
	<g>
		<path class="st14" d="M179.4086304,169.8787537H20.5913639C9.2661142,169.8787537,0,160.6126404,0,149.287384V20.5913639
			C0,9.2661142,9.2661142,0,20.5913639,0h158.8172607C190.7338867,0,200,9.2661142,200,20.5913639V149.287384
			C200,160.6126404,190.7338867,169.8787537,179.4086304,169.8787537z"/>
		<g>
			<path class="st1" d="M96.6853943,64.1800995l-11.4140625,5.4968262l-3.3145752,1.5961914l-0.8186035,3.5866699
				l-2.8190918,12.3510742l-0.8186035,3.5866699l2.2937012,2.8762207l7.8988037,9.9050293l2.2937012,2.8762207h3.6789551h12.6687012
				h3.678833l2.2938232-2.8762207l7.8989258-9.9050293l2.2937012-2.8762207l-0.8186035-3.5866699L118.861908,74.859787
				l-0.8186035-3.5866699l-3.3145752-1.5961914l-11.4141846-5.4968262l-3.3145752-1.5961914L96.6853943,64.1800995z
				 M111.4141541,76.5597382l2.8190918,12.3510742l-7.8989258,9.9050293H93.6656189l-7.8988037-9.9050293l2.8190918-12.3510742
				l11.4140625-5.4968262L111.4141541,76.5597382z"/>
			<path class="st1" d="M138.1114197,44.1857147l-31.5611572-15.3198242l-6.5501709-3.1791992l-6.5501709,3.1791992
				L61.8885231,44.1857147l-8.4498291,4.1015625v9.3928223v38.2770996c0,12.3112793,7.3968506,23.907959,21.9852257,34.4677734
				c8.8873291,6.4333496,17.4945068,10.357666,18.4466553,10.7839355l6.1295166,2.7443848l6.1295166-2.7443848
				c0.9521484-0.4262695,9.5592041-4.3505859,18.4465332-10.7839355
				c14.5882568-10.5598145,21.9851074-22.1564941,21.9851074-34.4677734V57.6800995v-9.3928223L138.1114197,44.1857147z
				 M131.5612488,95.9571991c0,17.4306641-31.5611572,31.5612793-31.5611572,31.5612793
				s-31.5614014-14.1306152-31.5614014-31.5612793V57.6800995l31.5614014-15.3198242l31.5611572,15.3198242V95.9571991z"/>
		</g>
	</g>
	<g>
		<path class="st2" d="M230.2176056,59.1776581h12.5244141v14.1748047c0,1.5742188-0.2255859,3.8994141-0.375,5.6240234h0.2998047
			c0.8251953-1.2744141,1.875-3.2246094,3.1494141-4.7246094l12.3749847-15.0742188h13.4990234l-16.4990082,19.8740234
			l17.3993988,30.7490234h-14.3994141l-11.6992035-21.2246094l-3.75,4.5751953v16.6494141h-12.5244141V59.1776581z"/>
		<path class="st2" d="M276.1170044,59.1776581h12.5244141v32.4736328c0,6.4501953,2.7001953,9.1494141,7.875,9.1494141
			c5.0996094,0,8.1738281-2.625,8.1738281-9.3740234V59.1776581h12.1503906v32.0234375c0,11.625-7.5751953,19.5-20.6992188,19.5
			c-12.2998047,0-20.0244141-7.2001953-20.0244141-18.375V59.1776581z"/>
		<path class="st2" d="M325.5418091,59.1776581h21.6738281c8.9248047,0,15.6738281,3,15.6738281,12.2246094
			c0,6.9746094-3.8242188,9.6748047-10.3496094,11.0996094v0.2998047c7.4248047,0.9003906,11.9248047,4.7998047,11.9248047,12.375
			c0,9.8994141-7.125,14.6240234-16.6494141,14.6240234h-22.2734375V59.1776581z M343.5408325,78.6014862
			c3.2998047,0,6.5996094-0.8994141,6.5996094-5.2490234c0-4.4248047-2.9248047-5.0996094-5.8496094-5.0996094h-6.2998047
			v10.3486328H343.5408325z M344.7410278,100.7264862c3.8242188,0,7.1240234-1.875,7.1240234-6.9003906
			c0-4.3496094-3.2998047-6.1494141-7.1240234-6.1494141h-6.75v13.0498047H344.7410278z"/>
		<path class="st2" d="M371.1404419,59.1776581h33.5234375v9.2998047H383.664856v10.8740234h17.6240234v9.2998047H383.664856
			v11.8496094h21.7490234v9.2998047h-34.2734375V59.1776581z"/>
		<path class="st2" d="M407.8904419,59.1776581H420.18927l7.2753906,28.6494141
			c0.8994141,3.5244141,1.125,9.5996094,1.125,9.5996094h0.2998047c0,0,0.2246094-6.2255859,0.9746094-9.4501953
			l6.4501953-28.7988281h11.4746094l6.5244141,28.5742188c0.8251953,3.5996094,1.125,10.3496094,1.125,10.3496094h0.2998047
			c0,0,0.375-6.9003906,1.2001953-10.2001953l6.9746094-28.7236328h10.6494141l-13.1992188,50.6230469h-13.2744141
			l-5.1748047-21.7490234c-0.9755859-3.9746094-1.5-10.9492188-1.5-10.9492188h-0.2998047
			c0,0-0.4501953,6.9746094-1.4257812,10.9492188l-5.1748047,21.7490234h-13.4238281L407.8904419,59.1776581z"/>
		<path class="st2" d="M489.8650513,59.1776581h12.6738281l17.0996094,50.6230469h-12.6748047l-3.1494141-9.5996094h-16.9492188
			l-3.0751953,9.5996094h-10.9492188L489.8650513,59.1776581z M489.8650513,90.9012909h10.8740234l-3.4492188-10.6494141
			c-1.2001953-3.5996094-1.7255859-8.6992188-1.7255859-8.6992188h-0.2998047c0,0-0.75,5.1748047-1.875,8.6240234
			L489.8650513,90.9012909z"/>
		<path class="st2" d="M524.289856,59.1776581h20.8486328c9.8994141,0,16.5742188,4.7998047,16.5742188,14.0996094
			c0,7.5742188-5.1748047,12.1494141-10.1992188,13.7246094c1.5,1.2744141,2.625,3,3.5244141,4.7998047
			c2.1005859,4.2744141,3.5253906,8.9990234,7.9501953,8.9990234c1.125,0,2.0244141-0.375,2.0244141-0.375l-0.9746094,8.9248047
			c0,0-2.7001953,0.6748047-5.0244141,0.6748047c-6,0-9.4501953-2.3242188-12.9746094-10.3496094
			c-1.5-3.5996094-3.6005859-9.8994141-6.375-9.8994141H536.81427v20.0244141H524.289856V59.1776581z M536.81427,68.2528534
			v12.4492188h4.4990234c3.6005859,0,7.7998047-1.125,7.7998047-6.5253906c0-4.4248047-2.8496094-5.9238281-6.2998047-5.9238281
			H536.81427z"/>
		<path class="st2" d="M570.2644653,59.1776581h19.3486328c12.5996094,0,22.3496094,7.3496094,22.3496094,25.0488281
			c0,17.3242188-9.2998047,25.5742188-22.3496094,25.5742188h-19.3486328V59.1776581z M588.4129028,100.7264862
			c5.5498047,0,10.875-3.375,10.875-16.5c0-13.0488281-5.3251953-15.9736328-10.875-15.9736328h-5.6240234v32.4736328H588.4129028z"
			/>
		<path class="st2" d="M618.8640747,59.1776581h33.5234375v9.2998047h-20.9990234v10.8740234h17.6240234v9.2998047h-17.6240234
			v11.8496094h21.7490234v9.2998047h-34.2734375V59.1776581z"/>
		<path class="st2" d="M659.6638794,59.1776581h13.4238281l13.2744141,25.1240234c1.125,2.1748047,2.625,6,3.8251953,9h0.2998047
			c-0.1494141-2.8505859-0.5244141-6.9003906-0.5244141-9.8251953V59.1776581h10.2744141v50.6230469h-13.125l-13.7988281-25.0488281
			c-1.2753906-2.25-2.625-5.5498047-3.6748047-8.25h-0.3007812c0.2255859,2.8496094,0.6005859,6.2246094,0.6005859,9v24.2988281
			h-10.2744141V59.1776581z"/>
	</g>
</g>
<g>
	<path class="st15" d="M-945.2155151,184.9104309h-158.8173218c-11.3251953,0-20.5913086-9.2661133-20.5913086-20.5913696
		V35.6230392c0-11.3252487,9.2661133-20.591362,20.5913086-20.591362h158.8173218
		c11.3252563,0,20.5913696,9.2661142,20.5913696,20.591362v128.6960144
		C-924.6241455,175.6443176-933.8902588,184.9104309-945.2155151,184.9104309z"/>
	<g>
		<path class="st2" d="M-894.5467529,74.6590424h12.5244141v19.1240234h15.3740234V74.6590424h12.5244141v50.6230469h-12.5244141
			v-21.4492188h-15.3740234v21.4492188h-12.5244141V74.6590424z"/>
		<path class="st2" d="M-847.2977295,99.2576752c0-18.2236328,9.6748047-25.4980469,23.2490234-25.4980469
			c13.3496094,0,23.0244141,7.2744141,23.0244141,25.4980469c0,20.25-9.9746094,26.9248047-23.0244141,26.9248047
			C-837.6229248,126.1824799-847.2977295,118.9070892-847.2977295,99.2576752z M-813.8494873,99.2576752
			c0-12.5986328-4.9492188-16.6484375-10.3496094-16.6484375c-5.3994141,0-10.2744141,4.0498047-10.2744141,16.6484375
			c0,14.0244141,4.875,18.0751953,10.2744141,18.0751953C-818.7987061,117.3328705-813.8494873,113.2820892-813.8494873,99.2576752z
			"/>
		<path class="st2" d="M-794.1981201,74.6590424h21.6738281c8.9248047,0,15.6738281,3,15.6738281,12.2246094
			c0,6.9746094-3.8242188,9.6748047-10.3496094,11.0996094v0.2998047c7.4248047,0.9003906,11.9248047,4.7998047,11.9248047,12.375
			c0,9.8994141-7.125,14.6240234-16.6494141,14.6240234h-22.2734375V74.6590424z M-776.1990967,94.0828705
			c3.2998047,0,6.5996094-0.8994141,6.5996094-5.2490234c0-4.4248047-2.9248047-5.0996094-5.8496094-5.0996094h-6.2998047
			v10.3486328H-776.1990967z M-774.9989014,116.2078705c3.8242188,0,7.1240234-1.875,7.1240234-6.9003906
			c0-4.3496094-3.2998047-6.1494141-7.1240234-6.1494141h-6.75v13.0498047H-774.9989014z"/>
		<path class="st2" d="M-748.5994873,74.6590424h21.6738281c8.9248047,0,15.6738281,3,15.6738281,12.2246094
			c0,6.9746094-3.8242188,9.6748047-10.3496094,11.0996094v0.2998047c7.4248047,0.9003906,11.9248047,4.7998047,11.9248047,12.375
			c0,9.8994141-7.125,14.6240234-16.6494141,14.6240234h-22.2734375V74.6590424z M-730.6004639,94.0828705
			c3.2998047,0,6.5996094-0.8994141,6.5996094-5.2490234c0-4.4248047-2.9248047-5.0996094-5.8496094-5.0996094h-6.2998047
			v10.3486328H-730.6004639z M-729.4002686,116.2078705c3.8242188,0,7.1240234-1.875,7.1240234-6.9003906
			c0-4.3496094-3.2998047-6.1494141-7.1240234-6.1494141h-6.75v13.0498047H-729.4002686z"/>
		<path class="st2" d="M-693.5506592,103.9080658l-16.2744141-29.2490234h14.1738281l6.6748047,12.375
			c1.2753906,2.3994141,2.7001953,5.6240234,2.7001953,5.6240234h0.2998047c0,0,1.2753906-3.1494141,2.625-5.7744141
			l6.375-12.2246094h11.5488281l-15.5986328,29.2490234v21.3740234h-12.5244141V103.9080658z"/>
		<path class="st2" d="M-661.0018311,74.6590424h32.7734375v9.2998047h-20.2490234v13.1240234h16.4990234v9.2998047h-16.4990234
			v18.8994141h-12.5244141V74.6590424z"/>
		<path class="st2" d="M-612.6268311,74.6590424h12.6738281l17.0996094,50.6230469h-12.6748047l-3.1494141-9.5996094h-16.9492188
			l-3.0751953,9.5996094h-10.9492188L-612.6268311,74.6590424z M-612.6268311,106.3826752h10.8740234l-3.4492188-10.6494141
			c-1.2001953-3.5996094-1.7255859-8.6992188-1.7255859-8.6992188h-0.2998047c0,0-0.75,5.1748047-1.875,8.6240234
			L-612.6268311,106.3826752z"/>
		<path class="st2" d="M-578.2020264,74.6590424h20.8486328c9.8994141,0,16.5742188,4.7998047,16.5742188,14.0996094
			c0,7.5742188-5.1748047,12.1494141-10.1992188,13.7246094c1.5,1.2744141,2.625,3,3.5244141,4.7998047
			c2.1005859,4.2744141,3.5253906,8.9990234,7.9501953,8.9990234c1.125,0,2.0244141-0.375,2.0244141-0.375l-0.9746094,8.9248047
			c0,0-2.7001953,0.6748047-5.0244141,0.6748047c-6,0-9.4501953-2.3242188-12.9746094-10.3496094
			c-1.5-3.5996094-3.6005859-9.8994141-6.375-9.8994141h-2.8496094v20.0244141h-12.5244141V74.6590424z M-565.6776123,83.7342377
			v12.4492188h4.5c3.5996094,0,7.7988281-1.125,7.7988281-6.5253906c0-4.4248047-2.8496094-5.9238281-6.2998047-5.9238281
			H-565.6776123z"/>
		<path class="st2" d="M-532.227417,74.6590424h15.5244141l8.2490234,22.5742188
			c1.2753906,3.5996094,2.1748047,7.2744141,2.1748047,7.2744141h0.3007812c0,0,0.8994141-3.8242188,2.1748047-7.2744141
			l8.0244141-22.5742188h14.7744141v50.6230469h-11.6992188V99.7078705c0-3,0.8242188-10.0498047,0.8242188-10.0498047h-0.2998047
			c0,0-1.5,7.125-2.4746094,9.6748047l-9.75,25.9492188h-5.625l-9.8242188-25.9492188
			c-1.0498047-2.6992188-2.3251953-9.2246094-2.3251953-9.2246094h-0.2998047c0,0,0.5253906,6.5996094,0.5253906,9.5996094
			v25.5742188h-10.2744141V74.6590424z"/>
	</g>
</g>
</svg>
