<svg id="Layer_1" data-name="Layer 1" xmlns="http://www.w3.org/2000/svg" viewBox="0 0 200 165"><defs><style>.cls-1{fill:#ffc400;}.cls-2{fill:#fff;}</style></defs><rect class="cls-1" width="200" height="165" rx="20"/><path class="cls-2" d="M99.66455,86.21094h-.04443a10,10,0,0,1-9.95655-10.04346l.1792-41.25977a10.00019,10.00019,0,0,1,9.999-9.95654h.04443a10,10,0,0,1,9.95654,10.04346l-.1792,41.25976A10.00017,10.00017,0,0,1,99.66455,86.21094Z"/><path class="cls-2" d="M44.95361,140.03369a10.00105,10.00105,0,0,1-5.03369-18.64746l35.81494-20.81348a9.9999,9.9999,0,0,1,10.04883,17.292L49.96875,138.67822A9.95109,9.95109,0,0,1,44.95361,140.03369Z"/><path class="cls-2" d="M154.72607,140.02979a9.95487,9.95487,0,0,1-4.99072-1.34131l-35.86767-20.708a9.99991,9.99991,0,1,1,10-17.32031l35.86767,20.708a10.00106,10.00106,0,0,1-5.00928,18.66163Z"/></svg>