<svg id="Layer_1" data-name="Layer 1" xmlns="http://www.w3.org/2000/svg" viewBox="0 0 200 269.01844"><defs><style>.cls-1{fill:#ffc400;}.cls-2{fill:#fff;}.cls-3{fill:#344845;}</style></defs><rect class="cls-1" width="200" height="165" rx="20"/><path class="cls-2" d="M109.66357,34.99463a9.84925,9.84925,0,0,0-9.77734-10.04346H99.8418a10.00019,10.00019,0,0,0-9.999,9.95654V76.16748a9.84926,9.84926,0,0,0,9.77735,10.04346h.04443a10.00017,10.00017,0,0,0,9.999-9.95655Z"/><path class="cls-2" d="M75.73486,100.57275,39.91992,121.38623a9.9999,9.9999,0,1,0,10.04883,17.292l35.81494-20.81347a9.9999,9.9999,0,0,0-10.04883-17.292Z"/><path class="cls-2" d="M159.73535,121.36816l-35.86767-20.708a9.99991,9.99991,0,1,0-10,17.32031l35.86767,20.708a9.99992,9.99992,0,0,0,10-17.32032Z"/><path class="cls-3" d="M38.08887,217.495H50.61328v14.17481c0,1.57422-.22558,3.89941-.375,5.624h.29981a43.12232,43.12232,0,0,1,3.14941-4.72461L66.0625,217.495h13.499l-16.499,19.874,17.39941,30.749H66.0625L54.36328,246.89344l-3.75,4.5752v16.64941H38.08887Z"/><path class="cls-3" d="M92.6875,252.21864c-1.34961,4.875,1.4248,7.95019,5.625,7.95019,4.72461,0,7.125-3.75,7.125-9.07519,0-5.69922-2.85059-7.875-6.6748-7.875a9.10431,9.10431,0,0,0-6.22461,2.40039l-5.40039-5.84961,15.6748-12.97461H84.21289V217.495h31.124v9.82422l-12,9.90039c7.65039-.75,14.92481,4.27442,14.92481,14.02442,0,10.57422-8.625,17.77441-19.499,17.77441-10.27442,0-18.89942-6.375-16.64942-15.2998Z"/><path class="cls-3" d="M133.78711,251.46864c-.90039,4.0498.6748,8.70019,8.624,8.70019,5.25,0,7.04981-2.10058,7.04981-4.875,0-4.20019-4.19922-5.25-9.14942-7.0498-7.4248-2.54981-16.57422-6.15039-16.57422-16.72461,0-9.44922,7.27442-15.22461,19.64942-14.92383,15.14941.2998,19.42383,9.22461,17.77441,16.94922l-11.47461,1.0498c.75-5.84961-1.35058-9.14941-7.27539-9.14941-3.97461,0-6.22461,1.5-6.22461,4.64941,0,4.2002,4.04981,5.47461,9,7.19922,7.64942,2.55078,16.72461,5.625,16.72461,16.125,0,9.07422-6.75,15.59961-19.94922,15.59961-12.375,0-20.84961-5.70019-19.124-16.5Z"/></svg>