<svg id="Layer_1" data-name="Layer 1" xmlns="http://www.w3.org/2000/svg" viewBox="0 0 200 165"><defs><style>.cls-1{fill:#671c4c;}.cls-2{fill:#fff;}</style></defs><rect class="cls-1" width="200" height="165" rx="20"/><path class="cls-2" d="M102.5625,130.9209h-5.125A20.02539,20.02539,0,0,1,77.459,111.86377l-5.67773-34.9292a9.99968,9.99968,0,1,1,19.74023-3.209l5.78614,35.59082a9.91972,9.91972,0,0,1,.12988,1.60449h5.125a9.99971,9.99971,0,0,1,.16309-1.79736l6.502-35.59083a9.99977,9.99977,0,1,1,19.67383,3.59473L122.53516,111.978A20.02652,20.02652,0,0,1,102.5625,130.9209Z"/><path class="cls-2" d="M100,82.58105a10.00908,10.00908,0,0,1-1.958-.19335L30.415,68.88574a10.00061,10.00061,0,0,1-7.93555-8.35058l-2.50195-17a10.00013,10.00013,0,0,1,19.78711-2.91211l1.47558,10.02929L100,62.38379l58.75977-11.73145,1.47558-10.02929a10.00013,10.00013,0,1,1,19.78711,2.91211l-2.50195,17a10.00061,10.00061,0,0,1-7.93555,8.35058L101.958,82.3877A10.00908,10.00908,0,0,1,100,82.58105Z"/></svg>