<svg id="Layer_1" data-name="Layer 1" xmlns="http://www.w3.org/2000/svg" viewBox="0 0 374.0957 269.01284"><defs><style>.cls-1{fill:#671c4c;}.cls-2{fill:#fff;}.cls-3{fill:#344845;}</style></defs><rect class="cls-1" x="87.04785" width="200" height="165" rx="20"/><path class="cls-2" d="M258.63281,32.18555a10.0006,10.0006,0,0,0-11.34961,8.4375l-1.47558,10.02929L187.04785,62.38379,128.28809,50.65234,126.8125,40.62305a10.00013,10.00013,0,0,0-19.78711,2.91211l2.50195,17a10.00063,10.00063,0,0,0,7.93555,8.35058l41.40137,8.26593,5.64258,34.7121a20.02539,20.02539,0,0,0,19.97851,19.05713h5.125A20.02652,20.02652,0,0,0,209.583,111.978l6.36621-34.85059c.00757-.04089.009-.08136.01611-.12225l40.66748-8.11945a10.00061,10.00061,0,0,0,7.93555-8.35058l2.502-17A10.00071,10.00071,0,0,0,258.63281,32.18555Zm-68.85937,76.938a9.99971,9.99971,0,0,0-.16309,1.79736h-5.125a9.91972,9.91972,0,0,0-.12988-1.60449l-4.54932-27.98365,5.28369,1.05494a10.01083,10.01083,0,0,0,3.916,0l5.86572-1.17115Z"/><path class="cls-3" d="M0,217.4894H12.52441v41.32324H33.59863v9.29981H0Z"/><path class="cls-3" d="M35.625,242.088c0-18.22364,9.6748-25.49805,23.249-25.49805,13.34961,0,23.02442,7.27441,23.02442,25.49805,0,20.25-9.97461,26.9248-23.02442,26.9248C45.2998,269.01284,35.625,261.73745,35.625,242.088Zm33.44824,0c0-12.59864-4.94922-16.64844-10.34961-16.64844-5.39941,0-10.27441,4.0498-10.27441,16.64844,0,14.02441,4.875,18.07519,10.27441,18.07519C64.124,260.16323,69.07324,256.11245,69.07324,242.088Z"/><path class="cls-3" d="M88.72461,217.4894h13.42383l13.27441,25.124c1.125,2.1748,2.625,6,3.8252,9h.2998c-.14941-2.85059-.52441-6.90039-.52441-9.8252V217.4894h10.27441v50.62305h-13.125L102.374,243.06362a69.87275,69.87275,0,0,1-3.6748-8.25h-.30078c.22558,2.84961.60058,6.22461.60058,9v24.29883H88.72461Z"/><path class="cls-3" d="M158.84766,242.53823h20.84961v25.57422h-8.47461v-8.54981c-1.79981,5.625-5.84961,9.4502-14.54981,9.4502-11.69922,0-20.47363-8.09961-20.47363-26.47461,0-18.374,8.84961-25.94824,22.64844-25.94824,15.52441,0,21.59961,8.77441,19.875,17.69922l-11.77539,1.27441c.90039-6.97461-2.54981-10.124-7.499-10.124-5.47461,0-10.27441,3.97461-10.27441,17.32422,0,13.34863,4.124,17.09863,10.19922,17.09863,5.625,0,8.77441-3.44922,8.9248-6.89941v-1.42481h-9.45019Z"/><path class="cls-3" d="M187.19922,217.4894h12.52441v19.124h15.374v-19.124h12.52441v50.62305H215.09766V246.66323h-15.374v21.44922H187.19922Z"/><path class="cls-3" d="M234.44824,242.088c0-18.22364,9.67481-25.49805,23.249-25.49805,13.34961,0,23.02441,7.27441,23.02441,25.49805,0,20.25-9.97461,26.9248-23.02441,26.9248C244.12305,269.01284,234.44824,261.73745,234.44824,242.088Zm33.44824,0c0-12.59864-4.94921-16.64844-10.3496-16.64844-5.39942,0-10.27442,4.0498-10.27442,16.64844,0,14.02441,4.875,18.07519,10.27442,18.07519C262.94727,260.16323,267.89648,256.11245,267.89648,242.088Z"/><path class="cls-3" d="M287.54785,217.4894h20.84863c9.89942,0,16.57422,4.79981,16.57422,14.09961a14.16757,14.16757,0,0,1-10.19922,13.72461,15.01488,15.01488,0,0,1,3.52442,4.79981c2.10058,4.27441,3.52539,8.999,7.95019,8.999a5.82916,5.82916,0,0,0,2.02442-.375l-.97461,8.9248a24.54738,24.54738,0,0,1-5.02442.67481c-6,0-9.45019-2.32422-12.9746-10.34961-1.5-3.59961-3.60059-9.89941-6.375-9.89941h-2.84961v20.02441H287.54785Zm12.52442,9.0752v12.44922h4.5c3.59961,0,7.79882-1.125,7.79882-6.52539,0-4.42481-2.84961-5.92383-6.2998-5.92383Z"/><path class="cls-3" d="M333.52246,217.4894h13.42383l13.27441,25.124c1.125,2.1748,2.625,6,3.8252,9h.2998c-.14941-2.85059-.52441-6.90039-.52441-9.8252V217.4894H374.0957v50.62305h-13.125l-13.79882-25.04883a69.87276,69.87276,0,0,1-3.67481-8.25h-.30078c.22559,2.84961.60059,6.22461.60059,9v24.29883H333.52246Z"/></svg>