<?xml version="1.0" encoding="utf-8"?>
<!-- Generator: Adobe Illustrator 25.2.0, SVG Export Plug-In . SVG Version: 6.00 Build 0)  -->
<svg version="1.1" id="Layer_1" xmlns="http://www.w3.org/2000/svg" xmlns:xlink="http://www.w3.org/1999/xlink" x="0px" y="0px"
	 viewBox="0 0 374.0957031 266.0585938" style="enable-background:new 0 0 374.0957031 266.0585938;" xml:space="preserve">
<style type="text/css">
	.st0{fill:#A453B9;}
	.st1{fill:#FFFFFF;}
	.st2{fill:#344845;}
	.st3{fill:#D13306;}
	.st4{fill:#004D93;}
	.st5{fill:#0081BE;}
	.st6{fill:#1167F1;}
	.st7{fill:#FFC400;}
	.st8{fill:#FF7A3D;}
	.st9{fill:#00A580;}
	.st10{fill:#53C3D0;}
	.st11{fill:#671C4C;}
	.st12{fill:#00E3C2;}
	.st13{fill:#00B056;}
	.st14{fill:#BC2A46;}
	.st15{fill:#FF192E;}
</style>
<g>
	<path class="st11" d="M267.0478516,165h-160c-11,0-20-9-20-20V20c0-11,9-20,20-20h160c11,0,20,9,20,20v125
		C287.0478516,156,278.0478516,165,267.0478516,165z"/>
	<path class="st1" d="M258.6328125,32.1855469c-5.4599609-0.8061523-10.5449219,2.9726562-11.3496094,8.4375l-1.4755859,10.0292969
		l-58.7597656,11.7314453l-58.7597656-11.7314453L126.8125,40.6230469c-0.8037109-5.4633789-5.890625-9.2441406-11.3496094-8.4375
		c-5.4638672,0.8041992-9.2412109,5.8857422-8.4375,11.3496094l2.5019531,17
		c0.6152344,4.1806641,3.7919922,7.5229492,7.9355469,8.3505859l41.4013672,8.2659302l5.6425781,34.7120972
		c0.4941406,10.5922852,9.2666016,19.0571289,19.9785156,19.0571289h5.125c10.6728516,0,19.4208984-8.4047852,19.9726562-18.9428711
		l6.3662109-34.8505859c0.0075684-0.0408936,0.0090332-0.0813599,0.0161133-0.1222534l40.6674805-8.1194458
		c4.1435547-0.8276367,7.3203125-4.1699219,7.9355469-8.3505859l2.5019531-17
		C267.8740234,38.0712891,264.0966797,32.9897461,258.6328125,32.1855469z M189.7734375,109.1235352
		c-0.1083984,0.5932617-0.1630859,1.1948242-0.1630859,1.7973633h-5.125c0-0.5375977-0.0429688-1.0742188-0.1298828-1.6044922
		l-4.5493164-27.9836426l5.2836914,1.0549316c0.6464844,0.1289062,1.3017578,0.1933594,1.9580078,0.1933594
		s1.3115234-0.0644531,1.9580078-0.1933594l5.8657227-1.1711426L189.7734375,109.1235352z"/>
	<g>
		<path class="st2" d="M0,214.5351562h12.5244141v41.3232422h21.0742188v9.2998047H0V214.5351562z"/>
		<path class="st2" d="M35.625,239.1337891c0-18.2236328,9.6748047-25.4980469,23.2490234-25.4980469
			c13.3496094,0,23.0244141,7.2744141,23.0244141,25.4980469c0,20.25-9.9746094,26.9248047-23.0244141,26.9248047
			C45.2998047,266.0585938,35.625,258.7832031,35.625,239.1337891z M69.0732422,239.1337891
			c0-12.5986328-4.9492188-16.6484375-10.3496094-16.6484375c-5.3994141,0-10.2744141,4.0498047-10.2744141,16.6484375
			c0,14.0244141,4.875,18.0751953,10.2744141,18.0751953C64.1240234,257.2089844,69.0732422,253.1582031,69.0732422,239.1337891z"/>
		<path class="st2" d="M88.7246094,214.5351562h13.4238281l13.2744141,25.1240234c1.125,2.1748047,2.625,6,3.8251953,9h0.2998047
			c-0.1494141-2.8505859-0.5244141-6.9003906-0.5244141-9.8251953v-24.2988281h10.2744141v50.6230469h-13.125
			l-13.7988281-25.0488281c-1.2753906-2.25-2.625-5.5498047-3.6748047-8.25h-0.3007812
			c0.2255859,2.8496094,0.6005859,6.2246094,0.6005859,9v24.2988281H88.7246094V214.5351562z"/>
		<path class="st2" d="M158.8476562,239.5839844h20.8496094v25.5742188h-8.4746094v-8.5498047
			c-1.7998047,5.625-5.8496094,9.4501953-14.5498047,9.4501953c-11.6992188,0-20.4736328-8.0996094-20.4736328-26.4746094
			c0-18.3740234,8.8496094-25.9482422,22.6484375-25.9482422c15.5244141,0,21.5996094,8.7744141,19.875,17.6992188
			l-11.7753906,1.2744141c0.9003906-6.9746094-2.5498047-10.1240234-7.4990234-10.1240234
			c-5.4746094,0-10.2744141,3.9746094-10.2744141,17.3242188c0,13.3486328,4.1240234,17.0986328,10.1992188,17.0986328
			c5.625,0,8.7744141-3.4492188,8.9248047-6.8994141v-1.4248047h-9.4501953V239.5839844z"/>
		<path class="st2" d="M187.1992188,214.5351562h12.5244141v19.1240234h15.3740234v-19.1240234h12.5244141v50.6230469h-12.5244141
			v-21.4492188h-15.3740234v21.4492188h-12.5244141V214.5351562z"/>
		<path class="st2" d="M234.4482422,239.1337891c0-18.2236328,9.6748047-25.4980469,23.2490234-25.4980469
			c13.3496094,0,23.0244141,7.2744141,23.0244141,25.4980469c0,20.25-9.9746094,26.9248047-23.0244141,26.9248047
			C244.1230469,266.0585938,234.4482422,258.7832031,234.4482422,239.1337891z M267.8964844,239.1337891
			c0-12.5986328-4.9492188-16.6484375-10.3496094-16.6484375c-5.3994141,0-10.2744141,4.0498047-10.2744141,16.6484375
			c0,14.0244141,4.875,18.0751953,10.2744141,18.0751953C262.9472656,257.2089844,267.8964844,253.1582031,267.8964844,239.1337891z
			"/>
		<path class="st2" d="M287.5478516,214.5351562h20.8486328c9.8994141,0,16.5742188,4.7998047,16.5742188,14.0996094
			c0,7.5742188-5.1748047,12.1494141-10.1992188,13.7246094c1.5,1.2744141,2.625,3,3.5244141,4.7998047
			c2.1005859,4.2744141,3.5253906,8.9990234,7.9501953,8.9990234c1.125,0,2.0244141-0.375,2.0244141-0.375l-0.9746094,8.9248047
			c0,0-2.7001953,0.6748047-5.0244141,0.6748047c-6,0-9.4501953-2.3242188-12.9746094-10.3496094
			c-1.5-3.5996094-3.6005859-9.8994141-6.375-9.8994141h-2.8496094v20.0244141h-12.5244141V214.5351562z M300.0722656,223.6103516
			v12.4492188h4.5c3.5996094,0,7.7988281-1.125,7.7988281-6.5253906c0-4.4248047-2.8496094-5.9238281-6.2998047-5.9238281
			H300.0722656z"/>
		<path class="st2" d="M333.5224609,214.5351562h13.4238281l13.2744141,25.1240234c1.125,2.1748047,2.625,6,3.8251953,9h0.2998047
			c-0.1494141-2.8505859-0.5244141-6.9003906-0.5244141-9.8251953v-24.2988281h10.2744141v50.6230469h-13.125L347.171875,240.109375
			c-1.2753906-2.25-2.625-5.5498047-3.6748047-8.25h-0.3007812c0.2255859,2.8496094,0.6005859,6.2246094,0.6005859,9v24.2988281
			h-10.2744141V214.5351562z"/>
	</g>
</g>
</svg>
