<?xml version="1.0" encoding="utf-8"?>
<!-- Generator: Adobe Illustrator 26.0.0, SVG Export Plug-In . SVG Version: 6.00 Build 0)  -->
<svg version="1.1" id="Layer_1" xmlns="http://www.w3.org/2000/svg" xmlns:xlink="http://www.w3.org/1999/xlink" x="0px" y="0px"
	 viewBox="0 0 604.5985718 165" style="enable-background:new 0 0 604.5985718 165;" xml:space="preserve">
<style type="text/css">
	.st0{fill:#FFFFFF;}
</style>
<g>
	<path class="st0" d="M100,82.5810547c-0.65625,0-1.3115234-0.0644531-1.9580078-0.1933594l-5.2836914-1.0549316
		l4.5493164,27.9836426c0.0869141,0.5302734,0.1298828,1.0668945,0.1298828,1.6044922h5.125
		c0-0.6025391,0.0546875-1.2041016,0.1630859-1.7973633l5.0981445-27.9069824l-5.8657227,1.1711426
		C101.3115234,82.5166016,100.65625,82.5810547,100,82.5810547z"/>
	<path class="st0" d="M180,0H20C9,0,0,9,0,20v125c0,11,9,20,20,20h160c11,0,20-9,20-20V20C200,9,191,0,180,0z
		 M180.0224609,43.5351562l-2.5019531,17c-0.6152344,4.1806641-3.7919922,7.5229492-7.9355469,8.3505859l-40.6674805,8.1194458
		c-0.0070801,0.0408936-0.0085449,0.0813599-0.0161133,0.1222534l-6.3662109,34.8505859
		c-0.5517578,10.5380859-9.2998047,18.9428711-19.9726562,18.9428711h-5.125
		c-10.7119141,0-19.484375-8.4648438-19.9785156-19.0571289l-5.6425781-34.7120972l-41.4013672-8.2659302
		c-4.1435547-0.8276367-7.3203125-4.1699219-7.9355469-8.3505859l-2.5019531-17
		c-0.8037109-5.4638672,2.9736328-10.5454102,8.4375-11.3496094c5.4589844-0.8066406,10.5458984,2.9741211,11.3496094,8.4375
		l1.4755859,10.0292969L100,62.3837891l58.7597656-11.7314453l1.4755859-10.0292969
		c0.8046875-5.4648438,5.8896484-9.2436523,11.3496094-8.4375
		C177.0488281,32.9897461,180.8261719,38.0712891,180.0224609,43.5351562z"/>
</g>
<g>
	<path class="st0" d="M230.5028687,57.1879883h12.5244141v41.3232422h21.0742188v9.2998047h-33.5986328V57.1879883z"/>
	<path class="st0" d="M266.1278687,81.7866211c0-18.2236328,9.6748047-25.4980469,23.2490234-25.4980469
		c13.3496094,0,23.0244141,7.2744141,23.0244141,25.4980469c0,20.25-9.9746094,26.9248047-23.0244141,26.9248047
		C275.8026733,108.7114258,266.1278687,101.4360352,266.1278687,81.7866211z M299.5761108,81.7866211
		c0-12.5986328-4.9492188-16.6484375-10.3496094-16.6484375c-5.3994141,0-10.2744141,4.0498047-10.2744141,16.6484375
		c0,14.0244141,4.875,18.0751953,10.2744141,18.0751953C294.6268921,99.8618164,299.5761108,95.8110352,299.5761108,81.7866211z"/>
	<path class="st0" d="M319.227478,57.1879883h13.4238281l13.2744141,25.1240234c1.125,2.1748047,2.625,6,3.8251953,9h0.2998047
		c-0.1494141-2.8505859-0.5244141-6.9003906-0.5244141-9.8251953V57.1879883h10.2744141v50.6230469h-13.125L332.8768921,82.762207
		c-1.2753906-2.25-2.625-5.5498047-3.6748047-8.25h-0.3007812c0.2255859,2.8496094,0.6005859,6.2246094,0.6005859,9v24.2988281
		H319.227478V57.1879883z"/>
	<path class="st0" d="M389.3505249,82.2368164h20.8496094v25.5742188h-8.4746094v-8.5498047
		c-1.7998047,5.625-5.8496094,9.4501953-14.5498047,9.4501953c-11.6992188,0-20.4736328-8.0996094-20.4736328-26.4746094
		c0-18.3740234,8.8496094-25.9482422,22.6484375-25.9482422c15.5244141,0,21.5996094,8.7744141,19.875,17.6992188
		l-11.7753906,1.2744141c0.9003906-6.9746094-2.5498047-10.1240234-7.4990234-10.1240234
		c-5.4746094,0-10.2744141,3.9746094-10.2744141,17.3242188c0,13.3486328,4.1240234,17.0986328,10.1992188,17.0986328
		c5.625,0,8.7744141-3.4492188,8.9248047-6.8994141v-1.4248047h-9.4501953V82.2368164z"/>
	<path class="st0" d="M417.7020874,57.1879883h12.5244141v19.1240234h15.3740234V57.1879883h12.5244141v50.6230469h-12.5244141
		V86.3618164h-15.3740234v21.4492188h-12.5244141V57.1879883z"/>
	<path class="st0" d="M464.9511108,81.7866211c0-18.2236328,9.6748047-25.4980469,23.2490234-25.4980469
		c13.3496094,0,23.0244141,7.2744141,23.0244141,25.4980469c0,20.25-9.9746094,26.9248047-23.0244141,26.9248047
		C474.6259155,108.7114258,464.9511108,101.4360352,464.9511108,81.7866211z M498.399353,81.7866211
		c0-12.5986328-4.9492188-16.6484375-10.3496094-16.6484375c-5.3994141,0-10.2744141,4.0498047-10.2744141,16.6484375
		c0,14.0244141,4.875,18.0751953,10.2744141,18.0751953C493.4501343,99.8618164,498.399353,95.8110352,498.399353,81.7866211z"/>
	<path class="st0" d="M518.0507202,57.1879883h20.8486328c9.8994141,0,16.5742188,4.7998047,16.5742188,14.0996094
		c0,7.5742188-5.1748047,12.1494141-10.1992188,13.7246094c1.5,1.2744141,2.625,3,3.5244141,4.7998047
		c2.1005859,4.2744141,3.5253906,8.9990234,7.9501953,8.9990234c1.125,0,2.0244141-0.375,2.0244141-0.375l-0.9746094,8.9248047
		c0,0-2.7001953,0.6748047-5.0244141,0.6748047c-6,0-9.4501953-2.3242188-12.9746094-10.3496094
		c-1.5-3.5996094-3.6005859-9.8994141-6.375-9.8994141h-2.8496094v20.0244141h-12.5244141V57.1879883z M530.5751343,66.2631836
		v12.4492188h4.5c3.5996094,0,7.7988281-1.125,7.7988281-6.5253906c0-4.4248047-2.8496094-5.9238281-6.2998047-5.9238281
		H530.5751343z"/>
	<path class="st0" d="M564.0253296,57.1879883h13.4238281l13.2744141,25.1240234c1.125,2.1748047,2.625,6,3.8251953,9h0.2998047
		c-0.1494141-2.8505859-0.5244141-6.9003906-0.5244141-9.8251953V57.1879883h10.2744141v50.6230469h-13.125L577.6747437,82.762207
		c-1.2753906-2.25-2.625-5.5498047-3.6748047-8.25h-0.3007812c0.2255859,2.8496094,0.6005859,6.2246094,0.6005859,9v24.2988281
		h-10.2744141V57.1879883z"/>
</g>
</svg>
