<?xml version="1.0" encoding="utf-8"?>
<!-- Generator: Adobe Illustrator 25.2.0, SVG Export Plug-In . SVG Version: 6.00 Build 0)  -->
<svg version="1.1" id="Layer_1" xmlns="http://www.w3.org/2000/svg" xmlns:xlink="http://www.w3.org/1999/xlink" x="0px" y="0px"
	 viewBox="0 0 604.5985718 165" style="enable-background:new 0 0 604.5985718 165;" xml:space="preserve">
<style type="text/css">
	.st0{fill:#A453B9;}
	.st1{fill:#FFFFFF;}
	.st2{fill:#344845;}
	.st3{fill:#D13306;}
	.st4{fill:#004D93;}
	.st5{fill:#0081BE;}
	.st6{fill:#1167F1;}
	.st7{fill:#FFC400;}
	.st8{fill:#FF7A3D;}
	.st9{fill:#00A580;}
	.st10{fill:#53C3D0;}
	.st11{fill:#671C4C;}
	.st12{fill:#00E3C2;}
	.st13{fill:#BC2A46;}
	.st14{fill:#FF192E;}
	.st15{fill:#00B056;}
</style>
<g>
	<g>
		<path class="st11" d="M180,165H20c-11,0-20-9-20-20V20C0,9,9,0,20,0h160c11,0,20,9,20,20v125C200,156,191,165,180,165z"/>
		<path class="st1" d="M171.5849609,32.1855469c-5.4599609-0.8061523-10.5449219,2.9726562-11.3496094,8.4375l-1.4755859,10.0292969
			L100,62.3837891L41.2402344,50.6523438l-1.4755859-10.0292969c-0.8037109-5.4633789-5.890625-9.2441406-11.3496094-8.4375
			c-5.4638672,0.8041992-9.2412109,5.8857422-8.4375,11.3496094l2.5019531,17
			c0.6152344,4.1806641,3.7919922,7.5229492,7.9355469,8.3505859l41.4013672,8.2659302l5.6425781,34.7120972
			c0.4941406,10.5922852,9.2666016,19.0571289,19.9785156,19.0571289h5.125
			c10.6728516,0,19.4208984-8.4047852,19.9726562-18.9428711l6.3662109-34.8505859
			c0.0075684-0.0408936,0.0090332-0.0813599,0.0161133-0.1222534l40.6674805-8.1194458
			c4.1435547-0.8276367,7.3203125-4.1699219,7.9355469-8.3505859l2.5019531-17
			C180.8261719,38.0712891,177.0488281,32.9897461,171.5849609,32.1855469z M102.7255859,109.1235352
			c-0.1083984,0.5932617-0.1630859,1.1948242-0.1630859,1.7973633h-5.125c0-0.5375977-0.0429688-1.0742188-0.1298828-1.6044922
			l-4.5493164-27.9836426l5.2836914,1.0549316C98.6884766,82.5166016,99.34375,82.5810547,100,82.5810547
			s1.3115234-0.0644531,1.9580078-0.1933594l5.8657227-1.1711426L102.7255859,109.1235352z"/>
	</g>
	<g>
		<path class="st2" d="M230.5028687,57.1879883h12.5244141v41.3232422h21.0742188v9.2998047h-33.5986328V57.1879883z"/>
		<path class="st2" d="M266.1278687,81.7866211c0-18.2236328,9.6748047-25.4980469,23.2490234-25.4980469
			c13.3496094,0,23.0244141,7.2744141,23.0244141,25.4980469c0,20.25-9.9746094,26.9248047-23.0244141,26.9248047
			C275.8026733,108.7114258,266.1278687,101.4360352,266.1278687,81.7866211z M299.5761108,81.7866211
			c0-12.5986328-4.9492188-16.6484375-10.3496094-16.6484375c-5.3994141,0-10.2744141,4.0498047-10.2744141,16.6484375
			c0,14.0244141,4.875,18.0751953,10.2744141,18.0751953C294.6268921,99.8618164,299.5761108,95.8110352,299.5761108,81.7866211z"/>
		<path class="st2" d="M319.227478,57.1879883h13.4238281l13.2744141,25.1240234c1.125,2.1748047,2.625,6,3.8251953,9h0.2998047
			c-0.1494141-2.8505859-0.5244141-6.9003906-0.5244141-9.8251953V57.1879883h10.2744141v50.6230469h-13.125L332.8768921,82.762207
			c-1.2753906-2.25-2.625-5.5498047-3.6748047-8.25h-0.3007812c0.2255859,2.8496094,0.6005859,6.2246094,0.6005859,9v24.2988281
			H319.227478V57.1879883z"/>
		<path class="st2" d="M389.3505249,82.2368164h20.8496094v25.5742188h-8.4746094v-8.5498047
			c-1.7998047,5.625-5.8496094,9.4501953-14.5498047,9.4501953c-11.6992188,0-20.4736328-8.0996094-20.4736328-26.4746094
			c0-18.3740234,8.8496094-25.9482422,22.6484375-25.9482422c15.5244141,0,21.5996094,8.7744141,19.875,17.6992188
			l-11.7753906,1.2744141c0.9003906-6.9746094-2.5498047-10.1240234-7.4990234-10.1240234
			c-5.4746094,0-10.2744141,3.9746094-10.2744141,17.3242188c0,13.3486328,4.1240234,17.0986328,10.1992188,17.0986328
			c5.625,0,8.7744141-3.4492188,8.9248047-6.8994141v-1.4248047h-9.4501953V82.2368164z"/>
		<path class="st2" d="M417.7020874,57.1879883h12.5244141v19.1240234h15.3740234V57.1879883h12.5244141v50.6230469h-12.5244141
			V86.3618164h-15.3740234v21.4492188h-12.5244141V57.1879883z"/>
		<path class="st2" d="M464.9511108,81.7866211c0-18.2236328,9.6748047-25.4980469,23.2490234-25.4980469
			c13.3496094,0,23.0244141,7.2744141,23.0244141,25.4980469c0,20.25-9.9746094,26.9248047-23.0244141,26.9248047
			C474.6259155,108.7114258,464.9511108,101.4360352,464.9511108,81.7866211z M498.399353,81.7866211
			c0-12.5986328-4.9492188-16.6484375-10.3496094-16.6484375c-5.3994141,0-10.2744141,4.0498047-10.2744141,16.6484375
			c0,14.0244141,4.875,18.0751953,10.2744141,18.0751953C493.4501343,99.8618164,498.399353,95.8110352,498.399353,81.7866211z"/>
		<path class="st2" d="M518.0507202,57.1879883h20.8486328c9.8994141,0,16.5742188,4.7998047,16.5742188,14.0996094
			c0,7.5742188-5.1748047,12.1494141-10.1992188,13.7246094c1.5,1.2744141,2.625,3,3.5244141,4.7998047
			c2.1005859,4.2744141,3.5253906,8.9990234,7.9501953,8.9990234c1.125,0,2.0244141-0.375,2.0244141-0.375l-0.9746094,8.9248047
			c0,0-2.7001953,0.6748047-5.0244141,0.6748047c-6,0-9.4501953-2.3242188-12.9746094-10.3496094
			c-1.5-3.5996094-3.6005859-9.8994141-6.375-9.8994141h-2.8496094v20.0244141h-12.5244141V57.1879883z M530.5751343,66.2631836
			v12.4492188h4.5c3.5996094,0,7.7988281-1.125,7.7988281-6.5253906c0-4.4248047-2.8496094-5.9238281-6.2998047-5.9238281
			H530.5751343z"/>
		<path class="st2" d="M564.0253296,57.1879883h13.4238281l13.2744141,25.1240234c1.125,2.1748047,2.625,6,3.8251953,9h0.2998047
			c-0.1494141-2.8505859-0.5244141-6.9003906-0.5244141-9.8251953V57.1879883h10.2744141v50.6230469h-13.125L577.6747437,82.762207
			c-1.2753906-2.25-2.625-5.5498047-3.6748047-8.25h-0.3007812c0.2255859,2.8496094,0.6005859,6.2246094,0.6005859,9v24.2988281
			h-10.2744141V57.1879883z"/>
	</g>
</g>
</svg>
