<?xml version="1.0" encoding="utf-8"?>
<!-- Generator: Adobe Illustrator 25.2.0, SVG Export Plug-In . SVG Version: 6.00 Build 0)  -->
<svg version="1.1" id="Layer_1" xmlns="http://www.w3.org/2000/svg" xmlns:xlink="http://www.w3.org/1999/xlink" x="0px" y="0px"
	 viewBox="0 0 663.6193848 169.8787537" style="enable-background:new 0 0 663.6193848 169.8787537;" xml:space="preserve">
<style type="text/css">
	.st0{fill:#A453B9;}
	.st1{fill:#FFFFFF;}
	.st2{fill:#344845;}
	.st3{fill:#D13306;}
	.st4{fill:#004D93;}
	.st5{fill:#0081BE;}
	.st6{fill:#1167F1;}
	.st7{fill:#FFC400;}
	.st8{fill:#FF7A3D;}
	.st9{fill:#00A580;}
	.st10{fill:#53C3D0;}
	.st11{fill:#671C4C;}
	.st12{fill:#00E3C2;}
	.st13{fill:#00B056;}
	.st14{fill:#BC2A46;}
	.st15{fill:#FF192E;}
</style>
<g>
	<path class="st15" d="M179.4086304,169.8787537H20.5913639C9.2661142,169.8787537,0,160.6126404,0,149.287384V20.5913639
		C0,9.2661142,9.2661142,0,20.5913639,0h158.8172607C190.7338867,0,200,9.2661142,200,20.5913639V149.287384
		C200,160.6126404,190.7338867,169.8787537,179.4086304,169.8787537z"/>
	<g>
		<path class="st2" d="M250.0774078,59.6273651h12.5244293v19.1240234h15.3740234V59.6273651h12.5244141v50.6230469h-12.5244141
			V88.8011932h-15.3740234v21.4492188h-12.5244293V59.6273651z"/>
		<path class="st2" d="M297.3264465,84.2259979c0-18.2236328,9.6748047-25.4980469,23.2490234-25.4980469
			c13.3496094,0,23.0244141,7.2744141,23.0244141,25.4980469c0,20.25-9.9746094,26.9248047-23.0244141,26.9248047
			C307.0012512,111.1508026,297.3264465,103.875412,297.3264465,84.2259979z M330.7746887,84.2259979
			c0-12.5986328-4.9492188-16.6484375-10.3496094-16.6484375c-5.3994141,0-10.2744141,4.0498047-10.2744141,16.6484375
			c0,14.0244141,4.875,18.0751953,10.2744141,18.0751953C325.82547,102.3011932,330.7746887,98.250412,330.7746887,84.2259979z"/>
		<path class="st2" d="M350.4260559,59.6273651h21.6738281c8.9248047,0,15.6738281,3,15.6738281,12.2246094
			c0,6.9746094-3.8242188,9.6748047-10.3496094,11.0996094v0.2998047c7.4248047,0.9003906,11.9248047,4.7998047,11.9248047,12.375
			c0,9.8994141-7.125,14.6240234-16.6494141,14.6240234h-22.2734375V59.6273651z M368.4250793,79.0511932
			c3.2998047,0,6.5996094-0.8994141,6.5996094-5.2490234c0-4.4248047-2.9248047-5.0996094-5.8496094-5.0996094h-6.2998047
			v10.3486328H368.4250793z M369.6252747,101.1761932c3.8242188,0,7.1240234-1.875,7.1240234-6.9003906
			c0-4.3496094-3.2998047-6.1494141-7.1240234-6.1494141h-6.75v13.0498047H369.6252747z"/>
		<path class="st2" d="M396.0246887,59.6273651h21.6738281c8.9248047,0,15.6738281,3,15.6738281,12.2246094
			c0,6.9746094-3.8242188,9.6748047-10.3496094,11.0996094v0.2998047c7.4248047,0.9003906,11.9248047,4.7998047,11.9248047,12.375
			c0,9.8994141-7.125,14.6240234-16.6494141,14.6240234h-22.2734375V59.6273651z M414.0237122,79.0511932
			c3.2998047,0,6.5996094-0.8994141,6.5996094-5.2490234c0-4.4248047-2.9248047-5.0996094-5.8496094-5.0996094h-6.2998047
			v10.3486328H414.0237122z M415.2239075,101.1761932c3.8242188,0,7.1240234-1.875,7.1240234-6.9003906
			c0-4.3496094-3.2998047-6.1494141-7.1240234-6.1494141h-6.75v13.0498047H415.2239075z"/>
		<path class="st2" d="M451.0735168,88.8763885l-16.2744141-29.2490234h14.1738281l6.6748047,12.375
			c1.2753906,2.3994141,2.7001953,5.6240234,2.7001953,5.6240234h0.2998047c0,0,1.2753906-3.1494141,2.625-5.7744141
			l6.375-12.2246094h11.5488281l-15.5986328,29.2490234v21.3740234h-12.5244141V88.8763885z"/>
		<path class="st2" d="M483.622345,59.6273651h32.773407v9.2998047H496.146759v13.1240234h16.4989929v9.2998047H496.146759
			v18.8994141H483.622345V59.6273651z"/>
		<path class="st2" d="M531.9973145,59.6273651h12.6738281l17.0996094,50.6230469h-12.6748047l-3.1494141-9.5996094h-16.9492188
			l-3.0751953,9.5996094h-10.9492188L531.9973145,59.6273651z M531.9973145,91.3509979h10.8740234l-3.4492188-10.6494141
			c-1.2001953-3.5996094-1.7255859-8.6992188-1.7255859-8.6992188h-0.2998047c0,0-0.75,5.1748047-1.875,8.6240234
			L531.9973145,91.3509979z"/>
		<path class="st2" d="M566.4221191,59.6273651h20.8486328c9.8994141,0,16.5742188,4.7998047,16.5742188,14.0996094
			c0,7.5742188-5.1748047,12.1494141-10.1992188,13.7246094c1.5,1.2744141,2.625,3,3.5244141,4.7998047
			c2.1005859,4.2744141,3.5253906,8.9990234,7.9501953,8.9990234c1.125,0,2.0244141-0.375,2.0244141-0.375l-0.9746094,8.9248047
			c0,0-2.7001953,0.6748047-5.0244141,0.6748047c-6,0-9.4501953-2.3242188-12.9746094-10.3496094
			c-1.5-3.5996094-3.6005859-9.8994141-6.375-9.8994141h-2.8496094v20.0244141h-12.5244141V59.6273651z M578.9465332,68.7025604
			v12.4492188h4.5c3.5996094,0,7.7988281-1.125,7.7988281-6.5253906c0-4.4248047-2.8496094-5.9238281-6.2998047-5.9238281
			H578.9465332z"/>
		<path class="st2" d="M612.3967285,59.6273651h15.5244141l8.2490234,22.5742188
			c1.2753906,3.5996094,2.1748047,7.2744141,2.1748047,7.2744141h0.3007812c0,0,0.8994141-3.8242188,2.1748047-7.2744141
			l8.0244141-22.5742188h14.7744141v50.6230469H651.920166V84.6761932c0-3,0.8242188-10.0498047,0.8242188-10.0498047h-0.2998047
			c0,0-1.5,7.125-2.4746094,9.6748047l-9.75,25.9492188h-5.625l-9.8242188-25.9492188
			c-1.0498047-2.6992188-2.3251953-9.2246094-2.3251953-9.2246094h-0.2998047c0,0,0.5253906,6.5996094,0.5253906,9.5996094
			v25.5742188h-10.2744141V59.6273651z"/>
	</g>
</g>
</svg>
