<?xml version="1.0" encoding="utf-8"?>
<!-- Generator: Adobe Illustrator 25.2.0, SVG Export Plug-In . SVG Version: 6.00 Build 0)  -->
<svg version="1.1" id="Layer_1" xmlns="http://www.w3.org/2000/svg" xmlns:xlink="http://www.w3.org/1999/xlink" x="0px" y="0px"
	 viewBox="0 0 706.1392212 165" style="enable-background:new 0 0 706.1392212 165;" xml:space="preserve">
<style type="text/css">
	.st0{fill:#A453B9;}
	.st1{fill:#FFFFFF;}
	.st2{fill:#344845;}
	.st3{fill:#D13306;}
	.st4{fill:#004D93;}
	.st5{fill:#0081BE;}
	.st6{fill:#1167F1;}
	.st7{fill:#FFC400;}
	.st8{fill:#FF7A3D;}
	.st9{fill:#00A580;}
	.st10{fill:#53C3D0;}
	.st11{fill:#671C4C;}
	.st12{fill:#00E3C2;}
	.st13{fill:#00B056;}
	.st14{fill:#BC2A46;}
	.st15{fill:#FF192E;}
</style>
<g>
	<path class="st12" d="M180,165H20c-11,0-20-9-20-20V20C0,9,9,0,20,0h160c11,0,20,9,20,20v125C200,156,191,165,180,165z"/>
	<path class="st1" d="M150.8662109,133.4931641H0v-20h148.5766602V92.5H49.1342773
		c-9.7651367,0-17.7099609-7.9448242-17.7099609-17.7104492V49.2167969c0-9.7651367,7.9448242-17.7099609,17.7099609-17.7099609H200
		v20H51.4243164V72.5h99.4418945c9.765625,0,17.7104492,7.9448242,17.7104492,17.7104492v25.5727539
		C168.5766602,125.5483398,160.6318359,133.4931641,150.8662109,133.4931641z"/>
	<g>
		<path class="st2" d="M261.3208618,91.1672211c-0.9003906,4.0498047,0.6748047,8.7001953,8.625,8.7001953
			c5.2490234,0,7.0488281-2.1005859,7.0488281-4.875c0-4.2001953-4.1992188-5.25-9.1494141-7.0498047
			c-7.4248047-2.5498047-16.5742188-6.1503906-16.5742188-16.7246094c0-9.4492188,7.2744141-15.2246094,19.6494141-14.9238281
			c15.1494141,0.2998047,19.4238281,9.2246094,17.7744141,16.9492188l-11.4746094,1.0498047
			c0.75-5.8496094-1.3505859-9.1494141-7.2744141-9.1494141c-3.9755859,0-6.2255859,1.5-6.2255859,4.6494141
			c0,4.2001953,4.0498047,5.4746094,9,7.1992188c7.6494141,2.5507812,16.7246094,5.625,16.7246094,16.125
			c0,9.0742188-6.75,15.5996094-19.9492188,15.5996094c-12.375,0-20.8496094-5.7001953-19.1240234-16.5L261.3208618,91.1672211z"/>
		<path class="st2" d="M295.8960571,57.1935883h12.5244141v32.4736328c0,6.4501953,2.7001953,9.1494141,7.875,9.1494141
			c5.0996094,0,8.1738281-2.625,8.1738281-9.3740234V57.1935883h12.1503906v32.0234375c0,11.625-7.5751953,19.5-20.6992188,19.5
			c-12.2998047,0-20.0244141-7.2001953-20.0244141-18.375V57.1935883z"/>
		<path class="st2" d="M345.3208618,57.1935883h21.6738281c8.9248047,0,15.6738281,3,15.6738281,12.2246094
			c0,6.9746094-3.8242188,9.6748047-10.3496094,11.0996094v0.2998047c7.4248047,0.9003906,11.9248047,4.7998047,11.9248047,12.375
			c0,9.8994141-7.125,14.6240234-16.6494141,14.6240234h-22.2734375V57.1935883z M363.3198853,76.6174164
			c3.2998047,0,6.5996094-0.8994141,6.5996094-5.2490234c0-4.4248047-2.9248047-5.0996094-5.8496094-5.0996094h-6.2998047
			v10.3486328H363.3198853z M364.5200806,98.7424164c3.8242188,0,7.1240234-1.875,7.1240234-6.9003906
			c0-4.3496094-3.2998047-6.1494141-7.1240234-6.1494141h-6.75v13.0498047H364.5200806z"/>
		<path class="st2" d="M390.9194946,57.1935883h15.5244141l8.2490234,22.5742188
			c1.2753906,3.5996094,2.1748047,7.2744141,2.1748047,7.2744141h0.3007812c0,0,0.8994141-3.8242188,2.1748047-7.2744141
			l8.0244141-22.5742188h14.7744141v50.6230469h-11.6992188V82.2424164c0-3,0.8242188-10.0498047,0.8242188-10.0498047h-0.2998047
			c0,0-1.5,7.125-2.4746094,9.6748047l-9.75,25.9492188h-5.625l-9.8242188-25.9492188
			c-1.0498047-2.6992188-2.3251953-9.2246094-2.3251953-9.2246094h-0.2998047c0,0,0.5253906,6.5996094,0.5253906,9.5996094
			v25.5742188h-10.2744141V57.1935883z"/>
		<path class="st2" d="M463.8179321,57.1935883h12.6738281l17.0996094,50.6230469h-12.6748047l-3.1494141-9.5996094h-16.9492188
			l-3.0751953,9.5996094h-10.9492188L463.8179321,57.1935883z M463.8179321,88.9172211h10.8740234l-3.4492188-10.6494141
			c-1.2001953-3.5996094-1.7255859-8.6992188-1.7255859-8.6992188h-0.2998047c0,0-0.75,5.1748047-1.875,8.6240234
			L463.8179321,88.9172211z"/>
		<path class="st2" d="M498.2427368,57.1935883h20.8486328c9.8994141,0,16.5742188,4.7998047,16.5742188,14.0996094
			c0,7.5742188-5.1748047,12.1494141-10.1992188,13.7246094c1.5,1.2744141,2.625,3,3.5244141,4.7998047
			c2.1005859,4.2744141,3.5253906,8.9990234,7.9501953,8.9990234c1.125,0,2.0244141-0.375,2.0244141-0.375l-0.9746094,8.9248047
			c0,0-2.7001953,0.6748047-5.0244141,0.6748047c-6,0-9.4501953-2.3242188-12.9746094-10.3496094
			c-1.5-3.5996094-3.6005859-9.8994141-6.375-9.8994141h-2.8496094v20.0244141h-12.5244141V57.1935883z M510.7671509,66.2687836
			v12.4492188h4.4990234c3.6005859,0,7.7998047-1.125,7.7998047-6.5253906c0-4.4248047-2.8496094-5.9238281-6.2998047-5.9238281
			H510.7671509z"/>
		<path class="st2" d="M541.9673462,57.1935883h26.0986328v8.8496094h-6.8251953v32.9238281h6.8251953v8.8496094h-26.0986328
			v-8.8496094h6.7490234V66.0431976h-6.7490234V57.1935883z"/>
		<path class="st2" d="M574.8921509,57.1935883h13.4238281l13.2744141,25.1240234c1.125,2.1748047,2.625,6,3.8251953,9h0.2998047
			c-0.1494141-2.8505859-0.5244141-6.9003906-0.5244141-9.8251953V57.1935883h10.2744141v50.6230469h-13.125L588.5415649,82.767807
			c-1.2753906-2.25-2.625-5.5498047-3.6748047-8.25h-0.3007812c0.2255859,2.8496094,0.6005859,6.2246094,0.6005859,9v24.2988281
			h-10.2744141V57.1935883z"/>
		<path class="st2" d="M624.6167603,57.1935883h33.5234375v9.2998047h-20.9990234v10.8740234h17.6240234v9.2998047h-17.6240234
			v11.8496094h21.7490234v9.2998047h-34.2734375V57.1935883z"/>
		<path class="st2" d="M665.4165649,57.1935883h20.8486328c9.8994141,0,16.5742188,4.7998047,16.5742188,14.0996094
			c0,7.5742188-5.1748047,12.1494141-10.1992188,13.7246094c1.5,1.2744141,2.625,3,3.5244141,4.7998047
			c2.1005859,4.2744141,3.5253906,8.9990234,7.9501953,8.9990234c1.125,0,2.0244141-0.375,2.0244141-0.375l-0.9746094,8.9248047
			c0,0-2.7001953,0.6748047-5.0244141,0.6748047c-6,0-9.4501953-2.3242188-12.9746094-10.3496094
			c-1.5-3.5996094-3.6005859-9.8994141-6.375-9.8994141h-2.8496094v20.0244141h-12.5244141V57.1935883z M677.940979,66.2687836
			v12.4492188h4.4990234c3.6005859,0,7.7998047-1.125,7.7998047-6.5253906c0-4.4248047-2.8496094-5.9238281-6.2998047-5.9238281
			H677.940979z"/>
	</g>
</g>
</svg>
