<?xml version="1.0" encoding="utf-8"?>
<!-- Generator: Adobe Illustrator 25.2.0, SVG Export Plug-In . SVG Version: 6.00 Build 0)  -->
<svg version="1.1" id="Layer_1" xmlns="http://www.w3.org/2000/svg" xmlns:xlink="http://www.w3.org/1999/xlink" x="0px" y="0px"
	 viewBox="0 0 371.1376648 165" style="enable-background:new 0 0 371.1376648 165;" xml:space="preserve">
<style type="text/css">
	.st0{fill:#A453B9;}
	.st1{fill:#FFFFFF;}
	.st2{fill:#344845;}
	.st3{fill:#D13306;}
	.st4{fill:#004D93;}
	.st5{fill:#0081BE;}
	.st6{fill:#1167F1;}
	.st7{fill:#FFC400;}
	.st8{fill:#FF7A3D;}
	.st9{fill:#00A580;}
	.st10{fill:#53C3D0;}
	.st11{fill:#671C4C;}
	.st12{fill:#00E3C2;}
	.st13{fill:#00B056;}
	.st14{fill:#BC2A46;}
	.st15{fill:#FF192E;}
</style>
<g>
	<g>
		<path class="st6" d="M174.2561951,165H20c-11,0-20-9-20-20V20C0,9,9,0,20,0h154.2561951c11,0,20,9,20,20v125
			C194.2561951,156,185.2561951,165,174.2561951,165z"/>
		<g>
			<path class="st1" d="M49.8686943,82.0900879c-16.5420532,0-29.9999981,13.4580078-29.9999981,30s13.4579449,30,29.9999981,30
				s30.0000038-13.4580078,30.0000038-30S66.4107513,82.0900879,49.8686943,82.0900879z M49.8686943,122.0900879
				c-5.5228271,0-10-4.4771729-10-10c0-5.5229492,4.4771729-10,10-10s10,4.4770508,10,10
				C59.8686943,117.612915,55.3915215,122.0900879,49.8686943,122.0900879z"/>
			<path class="st1" d="M161.2867889,95.2991943V80.375c0-7.4941406-6.0966797-13.5908203-13.5908203-13.5908203h-37.7363281
				l-8.8461914-36.546875C100.0275116,25.75,96.01091,22.5898438,91.3942108,22.5898438H36.5836601
				c-5.5229473,0-9.9999981,4.4770508-9.9999981,10s4.4770508,10,9.9999981,10h3.5698242v13.2929688h-3.5698242
				c-5.5229473,0-9.9999981,4.4770508-9.9999981,10s4.4770508,10,9.9999981,10h16.4418945
				c18.2241249,0,33.0502968,14.8261719,33.0502968,33.0620117l0.0068359,5.8686523
				c0.0063477,5.5180664,4.4819336,9.9882812,10,9.9882812h29.1947021
				c3.2584229,10.0218506,12.6829224,17.2883301,23.7772827,17.2883301c13.7850342,0,25-11.2149658,25-25
				C174.0546722,107.7468262,168.8992157,99.5893555,161.2867889,95.2991943z M60.1534843,56.3704834V42.5898438h23.3725624
				l6.9835815,28.8518066C82.4919281,63.425415,71.9311371,57.9598389,60.1534843,56.3704834z M101.1935272,86.7446289
				c0.2943726,0.0266113,0.5908813,0.0419922,0.8896484,0.0419922c0.0136108,0,0.0275269-0.0024414,0.0411377-0.0024414h39.1624756
				v6.5476074c-5.963562,1.954834-10.942627,6.0942383-13.9906616,11.4699707h-21.3794556
				C105.4207001,98.3973389,103.7700043,92.3149414,101.1935272,86.7446289z M149.0546722,122.0900879c-2.7614746,0-5-2.2386475-5-5
				c0-2.7614746,2.2385254-5,5-5c2.7614136,0,5,2.2385254,5,5
				C154.0546722,119.8514404,151.8160858,122.0900879,149.0546722,122.0900879z"/>
		</g>
	</g>
	<g>
		<path class="st2" d="M244.5399933,57.0761719h20.8486481c9.8994141,0,16.5742188,4.7998047,16.5742188,14.0996094
			c0,7.5742188-5.1748047,12.1494141-10.1992188,13.7246094c1.5,1.2744141,2.625,3,3.5244141,4.7998047
			c2.1005859,4.2744141,3.5253906,8.9990234,7.9501953,8.9990234c1.125,0,2.0244141-0.375,2.0244141-0.375l-0.9746094,8.9248047
			c0,0-2.7001953,0.6748047-5.0244141,0.6748047c-6,0-9.4501953-2.3242188-12.9746094-10.3496094
			c-1.5-3.5996094-3.6005859-9.8994141-6.375-9.8994141h-2.8496094v20.0244141h-12.5244293V57.0761719z M257.0644226,66.1513672
			v12.4492188h4.5c3.5996094,0,7.7988281-1.125,7.7988281-6.5253906c0-4.4248047-2.8496094-5.9238281-6.2998047-5.9238281
			H257.0644226z"/>
		<path class="st2" d="M290.5146179,57.0761719h12.5244141v14.1748047c0,1.5742188-0.2255859,3.8994141-0.375,5.6240234h0.2998047
			c0.8251953-1.2744141,1.875-3.2246094,3.1494141-4.7246094l12.375-15.0742188h13.4990234l-16.4990234,19.8740234
			l17.3994141,30.7490234h-14.3994141L306.789032,86.4746094l-3.75,4.5751953v16.6494141h-12.5244141V57.0761719z"/>
		<path class="st2" d="M336.8642273,57.0761719h33.5234375v9.2998047h-20.9990234V77.25h17.6240234v9.2998047h-17.6240234
			v11.8496094h21.7490234v9.2998047h-34.2734375V57.0761719z"/>
	</g>
</g>
</svg>
