<?xml version="1.0" encoding="utf-8"?>
<!-- Generator: Adobe Illustrator 25.2.0, SVG Export Plug-In . SVG Version: 6.00 Build 0)  -->
<svg version="1.1" id="Layer_1" xmlns="http://www.w3.org/2000/svg" xmlns:xlink="http://www.w3.org/1999/xlink" x="0px" y="0px"
	 viewBox="0 0 373.8666382 165" style="enable-background:new 0 0 373.8666382 165;" xml:space="preserve">
<style type="text/css">
	.st0{fill:#A453B9;}
	.st1{fill:#FFFFFF;}
	.st2{fill:#344845;}
	.st3{fill:#D13306;}
	.st4{fill:#004D93;}
	.st5{fill:#0081BE;}
	.st6{fill:#1167F1;}
	.st7{fill:#FFC400;}
	.st8{fill:#FF7A3D;}
	.st9{fill:#00A580;}
	.st10{fill:#53C3D0;}
	.st11{fill:#671C4C;}
	.st12{fill:#00E3C2;}
	.st13{fill:#00B056;}
	.st14{fill:#BC2A46;}
	.st15{fill:#FF192E;}
</style>
<g>
	<g>
		<path class="st7" d="M180,165H20c-11,0-20-9-20-20V20C0,9,9,0,20,0h160c11,0,20,9,20,20v125C200,156,191,165,180,165z"/>
		<g>
			<path class="st1" d="M109.6635742,34.9946289c0.0239258-5.5229492-4.2543945-10.0195312-9.7773438-10.043457
				c-0.0146484,0-0.0297852,0-0.0444336,0c-5.5024414,0-9.9750977,4.4487305-9.9990234,9.956543v41.2597656
				c-0.0239258,5.5229492,4.2543945,10.0195312,9.7773438,10.043457c0.0146484,0,0.0292969,0,0.0444336,0
				c5.5024414,0,9.9750977-4.4487305,9.9990234-9.956543V34.9946289z"/>
			<path class="st1" d="M75.7348633,100.5727539l-35.8149414,20.8134766
				c-4.7753906,2.7749023-6.3964844,8.8955078-3.621582,13.6704102c1.8564453,3.1943359,5.2089844,4.9770508,8.6552734,4.9770508
				c1.7055664,0,3.4345703-0.4365234,5.0151367-1.3554688l35.8149414-20.8134766
				c4.7753906-2.7749023,6.3964844-8.8955078,3.621582-13.6704102S80.5083008,97.796875,75.7348633,100.5727539z"/>
			<path class="st1" d="M159.7353516,121.3681641l-35.8676758-20.7080078
				c-4.7836914-2.7602539-10.8984375-1.1220703-13.6601562,3.6601562
				c-2.7617188,4.7832031-1.1225586,10.8989258,3.6601562,13.6601562l35.8676758,20.7080078
				c1.5751953,0.9091797,3.2939453,1.3413086,4.9907227,1.3413086c3.4560547,0,6.8173828-1.793457,8.6694336-5.0014648
				C166.1572266,130.2451172,164.5180664,124.1293945,159.7353516,121.3681641z"/>
		</g>
	</g>
	<g>
		<path class="st2" d="M250.0443726,57.1935883h12.5244141v14.1748047c0,1.5742188-0.2255859,3.8994141-0.375,5.6240234h0.2998047
			c0.8251953-1.2744141,1.875-3.2246094,3.1494141-4.7246094l12.375-15.0742188h13.4990234l-16.4990234,19.8740234
			l17.3994141,30.7490234h-14.3994141l-11.6992188-21.2246094l-3.75,4.5751953v16.6494141h-12.5244141V57.1935883z"/>
		<path class="st2" d="M304.6430054,91.9172211c-1.3496094,4.875,1.4248047,7.9501953,5.625,7.9501953
			c4.7246094,0,7.125-3.75,7.125-9.0751953c0-5.6992188-2.8505859-7.875-6.6748047-7.875
			c-2.0253906,0-4.2001953,0.6005859-6.2246094,2.4003906l-5.4003906-5.8496094l15.6748047-12.9746094H296.168396v-9.2998047
			h31.1240234v9.8242188l-12,9.9003906c7.6503906-0.75,14.9248047,4.2744141,14.9248047,14.0244141
			c0,10.5742188-8.625,17.7744141-19.4990234,17.7744141c-10.2744141,0-18.8994141-6.375-16.6494141-15.2998047
			L304.6430054,91.9172211z"/>
		<path class="st2" d="M345.7426147,91.1672211c-0.9003906,4.0498047,0.6748047,8.7001953,8.6240234,8.7001953
			c5.25,0,7.0498047-2.1005859,7.0498047-4.875c0-4.2001953-4.1992188-5.25-9.1494141-7.0498047
			c-7.4248047-2.5498047-16.5742188-6.1503906-16.5742188-16.7246094c0-9.4492188,7.2744141-15.2246094,19.6494141-14.9238281
			c15.1494141,0.2998047,19.4238281,9.2246094,17.7744141,16.9492188l-11.4746094,1.0498047
			c0.75-5.8496094-1.3505859-9.1494141-7.2753906-9.1494141c-3.9746094,0-6.2246094,1.5-6.2246094,4.6494141
			c0,4.2001953,4.0498047,5.4746094,9,7.1992188c7.6494141,2.5507812,16.7246094,5.625,16.7246094,16.125
			c0,9.0742188-6.75,15.5996094-19.9492188,15.5996094c-12.375,0-20.8496094-5.7001953-19.1240234-16.5L345.7426147,91.1672211z"/>
	</g>
</g>
</svg>
