<svg id="Layer_1" data-name="Layer 1" xmlns="http://www.w3.org/2000/svg" viewBox="0 0 200 165"><defs><style>.cls-1{fill:#1167f1;}.cls-2{fill:#fff;}</style></defs><rect class="cls-1" width="200" height="165" rx="20"/><path class="cls-2" d="M104.95508,86.78662a10.00329,10.00329,0,0,1-9.71094-7.6499L86.398,42.58984H39.45557a10,10,0,1,1,0-20H94.26611a9.99948,9.99948,0,0,1,9.71924,7.64746l10.69727,44.19434a10.00953,10.00953,0,0,1-9.72754,12.355Z"/><path class="cls-2" d="M53.02539,68.15088a9.99987,9.99987,0,0,1-10-10v-25.561a10,10,0,1,1,20,0v25.561A9.99987,9.99987,0,0,1,53.02539,68.15088Z"/><path class="cls-2" d="M130.2124,124.80176H98.95459a10.00019,10.00019,0,0,1-10-9.98828l-.00684-5.86866a33.09,33.09,0,0,0-33.05029-33.062H39.45557a10,10,0,1,1,0-20H55.89746a53.12389,53.12389,0,0,1,52.89111,48.919H130.2124a10,10,0,0,1,0,20Z"/><path class="cls-2" d="M154.15869,108.93311a9.99988,9.99988,0,0,1-10-10V86.78418H104.96338a10,10,0,0,1,0-20h45.60449A13.606,13.606,0,0,1,164.15869,80.375V98.93311A9.99988,9.99988,0,0,1,154.15869,108.93311Z"/><path class="cls-2" d="M52.7406,102.09009a10,10,0,1,1-10,10,9.99995,9.99995,0,0,1,10-10m0-20a30,30,0,1,0,30,30,30.034,30.034,0,0,0-30-30Z"/><path class="cls-2" d="M151.92657,112.09009a5,5,0,1,1-5,5,5,5,0,0,1,5-5m0-20a25,25,0,1,0,25,25,25.02833,25.02833,0,0,0-25-25Z"/></svg>