<svg id="Layer_1" data-name="Layer 1" xmlns="http://www.w3.org/2000/svg" viewBox="0 0 200 268.22524"><defs><style>.cls-1{fill:#1167f1;}.cls-2{fill:#fff;}.cls-3{fill:#344845;}</style></defs><rect class="cls-1" width="200" height="165" rx="20"/><path class="cls-2" d="M52.907,82.25012a30,30,0,1,0,30,30A30.034,30.034,0,0,0,52.907,82.25012Zm0,40a10,10,0,1,1,10-10A10,10,0,0,1,52.907,122.25012Z"/><path class="cls-2" d="M164.32512,95.45923V80.535A13.606,13.606,0,0,0,150.7343,66.94421H112.998l-8.84619-36.54687a9.99947,9.99947,0,0,0-9.71924-7.64746H39.622a10,10,0,1,0,0,20h3.56983v13.293H39.622a10,10,0,1,0,0,20h16.4419a33.09,33.09,0,0,1,33.05029,33.062l.00684,5.86865a10.00018,10.00018,0,0,0,10,9.98828h29.1947a24.99663,24.99663,0,1,0,36.0094-29.50256ZM63.19182,56.53052V42.74988H86.56437L93.548,71.60168A52.92869,52.92869,0,0,0,63.19182,56.53052Zm41.04,30.37414c.29437.02661.59088.042.88964.042.01361,0,.02753-.00245.04114-.00245h39.16248v6.54761a25.11938,25.11938,0,0,0-13.99066,11.47H108.955A52.62725,52.62725,0,0,0,104.23186,86.90466ZM152.093,122.25012a5,5,0,1,1,5-5A5,5,0,0,1,152.093,122.25012Z"/><path class="cls-3" d="M36.70117,217.37759H57.5498c9.89942,0,16.57422,4.7998,16.57422,14.09961A14.16757,14.16757,0,0,1,63.9248,245.2018a15.01488,15.01488,0,0,1,3.52442,4.79981c2.10058,4.27441,3.52539,8.999,7.95019,8.999a5.82916,5.82916,0,0,0,2.02442-.375l-.97461,8.92481a24.54772,24.54772,0,0,1-5.02442.6748c-6,0-9.45019-2.32422-12.9746-10.34961-1.5-3.59961-3.60059-9.89941-6.375-9.89941H49.22559v20.02441H36.70117Zm12.52442,9.07519V238.902h4.5c3.59961,0,7.79882-1.125,7.79882-6.52539,0-4.42481-2.84961-5.92383-6.2998-5.92383Z"/><path class="cls-3" d="M82.67578,217.37759H95.2002v14.1748c0,1.57422-.22559,3.89941-.375,5.624h.2998a43.12376,43.12376,0,0,1,3.14941-4.72461l12.375-15.07421h13.499l-16.499,19.874,17.39942,30.749H110.64941L98.9502,246.776l-3.75,4.5752v16.64941H82.67578Z"/><path class="cls-3" d="M129.02539,217.37759h33.52344v9.2998h-20.999v10.874h17.624v9.29981h-17.624v11.84961h21.749v9.2998H129.02539Z"/></svg>