<svg id="Layer_1" data-name="Layer 1" xmlns="http://www.w3.org/2000/svg" viewBox="0 0 262.94434 268.22524"><defs><style>.cls-1{fill:#d13306;}.cls-2{fill:#fff;}.cls-3{fill:#344845;}</style></defs><rect class="cls-1" x="31.47217" width="200" height="165" rx="20"/><path class="cls-2" d="M131.47217,20,77.34546,51.25v62.5L131.47217,145l54.12671-31.25V51.25Zm39.12671,85.08984-39.12671,22.5896-39.12671-22.5896V59.91016l39.12671-22.5896,39.12671,22.5896Z"/><polygon class="cls-2" points="119.666 58.363 104.666 67.023 104.666 97.977 119.666 106.637 119.666 90 143.278 90 143.278 106.637 158.278 97.977 158.278 67.023 143.278 58.363 143.278 75 119.666 75 119.666 58.363"/><path class="cls-3" d="M0,217.37759H12.52441v19.124h15.374v-19.124H40.42285v50.623H27.89844V246.55141h-15.374v21.44922H0Z"/><path class="cls-3" d="M60.67383,246.62661l-16.27442-29.249H58.57324l6.67481,12.375c1.27539,2.39941,2.70019,5.624,2.70019,5.624h.29981s1.27539-3.14941,2.625-5.77441l6.375-12.22461H88.79688l-15.59864,29.249v21.374H60.67383Z"/><path class="cls-3" d="M93.22266,217.37759h21.22363c9.97461,0,17.1748,5.02539,17.1748,15.14941,0,11.02441-6.97558,17.39941-17.1748,17.39941h-8.69922v18.07422H93.22266Zm12.52441,9.07519V240.8522h5.84961c3.89941,0,7.4248-2.10059,7.4248-7.5752,0-5.1748-3.52539-6.82422-7.4248-6.82422Z"/><path class="cls-3" d="M137.32227,217.37759H158.5459c9.97461,0,17.1748,5.02539,17.1748,15.14941,0,11.02441-6.97558,17.39941-17.1748,17.39941h-8.69922v18.07422H137.32227Zm12.52441,9.07519V240.8522h5.84961c3.89941,0,7.4248-2.10059,7.4248-7.5752,0-5.1748-3.52539-6.82422-7.4248-6.82422Z"/><path class="cls-3" d="M181.42188,217.37759h33.52343v9.2998h-20.999v10.874h17.624v9.29981h-17.624v11.84961h21.749v9.2998H181.42188Z"/><path class="cls-3" d="M222.22168,217.37759h20.84863c9.89942,0,16.57422,4.7998,16.57422,14.09961a14.16757,14.16757,0,0,1-10.19922,13.7246,15.01488,15.01488,0,0,1,3.52442,4.79981c2.10058,4.27441,3.52539,8.999,7.95019,8.999a5.82916,5.82916,0,0,0,2.02442-.375l-.97461,8.92481a24.54772,24.54772,0,0,1-5.02442.6748c-6,0-9.45019-2.32422-12.97461-10.34961-1.5-3.59961-3.60058-9.89941-6.375-9.89941h-2.84961v20.02441H222.22168Zm12.52441,9.07519V238.902h4.499c3.60058,0,7.7998-1.125,7.7998-6.52539,0-4.42481-2.84961-5.92383-6.2998-5.92383Z"/></svg>