<?xml version="1.0" encoding="utf-8"?>
<!-- Generator: Adobe Illustrator 25.2.0, SVG Export Plug-In . SVG Version: 6.00 Build 0)  -->
<svg version="1.1" id="Layer_1" xmlns="http://www.w3.org/2000/svg" xmlns:xlink="http://www.w3.org/1999/xlink" x="0px" y="0px"
	 viewBox="0 0 262.9443359 265.7783203" style="enable-background:new 0 0 262.9443359 265.7783203;" xml:space="preserve">
<style type="text/css">
	.st0{fill:#A453B9;}
	.st1{fill:#FFFFFF;}
	.st2{fill:#344845;}
	.st3{fill:#D13306;}
	.st4{fill:#004D93;}
	.st5{fill:#0081BE;}
	.st6{fill:#1167F1;}
	.st7{fill:#FFC400;}
	.st8{fill:#FF7A3D;}
	.st9{fill:#00A580;}
	.st10{fill:#53C3D0;}
	.st11{fill:#671C4C;}
	.st12{fill:#00E3C2;}
	.st13{fill:#00B056;}
	.st14{fill:#BC2A46;}
	.st15{fill:#FF192E;}
</style>
<g>
	<path class="st3" d="M211.472168,165h-160c-11,0-20-9-20-20V20c0-11,9-20,20-20h160c11,0,20,9,20,20v125
		C231.472168,156,222.472168,165,211.472168,165z"/>
	<g>
		<path class="st1" d="M131.472168,20L77.345459,51.25v62.5L131.472168,145l54.126709-31.25v-62.5L131.472168,20z
			 M170.598877,105.0898438l-39.126709,22.5895996l-39.126709-22.5895996V59.9101562l39.126709-22.5895996l39.126709,22.5895996
			V105.0898438z"/>
		<polygon class="st1" points="119.6660156,58.3632812 104.6660156,67.0234375 104.6660156,97.9765625 119.6660156,106.6367188 
			119.6660156,90 143.2783203,90 143.2783203,106.6367188 158.2783203,97.9765625 158.2783203,67.0234375 143.2783203,58.3632812 
			143.2783203,75 119.6660156,75 		"/>
	</g>
	<g>
		<path class="st2" d="M0,214.9306641h12.5244141v19.1240234h15.3740234v-19.1240234h12.5244141v50.6230469H27.8984375v-21.4492188
			H12.5244141v21.4492188H0V214.9306641z"/>
		<path class="st2" d="M60.6738281,244.1796875l-16.2744141-29.2490234h14.1738281l6.6748047,12.375
			c1.2753906,2.3994141,2.7001953,5.6240234,2.7001953,5.6240234h0.2998047c0,0,1.2753906-3.1494141,2.625-5.7744141
			l6.375-12.2246094H88.796875l-15.5986328,29.2490234v21.3740234H60.6738281V244.1796875z"/>
		<path class="st2" d="M93.2226562,214.9306641h21.2236328c9.9746094,0,17.1748047,5.0253906,17.1748047,15.1494141
			c0,11.0244141-6.9755859,17.3994141-17.1748047,17.3994141h-8.6992188v18.0742188H93.2226562V214.9306641z
			 M105.7470703,224.0058594v14.3994141h5.8496094c3.8994141,0,7.4248047-2.1005859,7.4248047-7.5751953
			c0-5.1748047-3.5253906-6.8242188-7.4248047-6.8242188H105.7470703z"/>
		<path class="st2" d="M137.3222656,214.9306641h21.2236328c9.9746094,0,17.1748047,5.0253906,17.1748047,15.1494141
			c0,11.0244141-6.9755859,17.3994141-17.1748047,17.3994141h-8.6992188v18.0742188h-12.5244141V214.9306641z
			 M149.8466797,224.0058594v14.3994141h5.8496094c3.8994141,0,7.4248047-2.1005859,7.4248047-7.5751953
			c0-5.1748047-3.5253906-6.8242188-7.4248047-6.8242188H149.8466797z"/>
		<path class="st2" d="M181.421875,214.9306641h33.5234375v9.2998047h-20.9990234v10.8740234h17.6240234v9.2998047h-17.6240234
			v11.8496094h21.7490234v9.2998047H181.421875V214.9306641z"/>
		<path class="st2" d="M222.2216797,214.9306641h20.8486328c9.8994141,0,16.5742188,4.7998047,16.5742188,14.0996094
			c0,7.5742188-5.1748047,12.1494141-10.1992188,13.7246094c1.5,1.2744141,2.625,3,3.5244141,4.7998047
			c2.1005859,4.2744141,3.5253906,8.9990234,7.9501953,8.9990234c1.125,0,2.0244141-0.375,2.0244141-0.375l-0.9746094,8.9248047
			c0,0-2.7001953,0.6748047-5.0244141,0.6748047c-6,0-9.4501953-2.3242188-12.9746094-10.3496094
			c-1.5-3.5996094-3.6005859-9.8994141-6.375-9.8994141h-2.8496094v20.0244141h-12.5244141V214.9306641z M234.7460938,224.0058594
			v12.4492188h4.4990234c3.6005859,0,7.7998047-1.125,7.7998047-6.5253906c0-4.4248047-2.8496094-5.9238281-6.2998047-5.9238281
			H234.7460938z"/>
	</g>
</g>
</svg>
