<?xml version="1.0" encoding="utf-8"?>
<!-- Generator: Adobe Illustrator 25.2.0, SVG Export Plug-In . SVG Version: 6.00 Build 0)  -->
<svg version="1.1" id="Layer_1" xmlns="http://www.w3.org/2000/svg" xmlns:xlink="http://www.w3.org/1999/xlink" x="0px" y="0px"
	 viewBox="0 0 195.7460938 265.1582031" style="enable-background:new 0 0 195.7460938 265.1582031;" xml:space="preserve">
<style type="text/css">
	.st0{fill:#A453B9;}
	.st1{fill:#FFFFFF;}
	.st2{fill:#344845;}
	.st3{fill:#D13306;}
	.st4{fill:#004D93;}
	.st5{fill:#0081BE;}
	.st6{fill:#1167F1;}
	.st7{fill:#FFC400;}
	.st8{fill:#FF7A3D;}
	.st9{fill:#00A580;}
	.st10{fill:#53C3D0;}
	.st11{fill:#671C4C;}
	.st12{fill:#00E3C2;}
	.st13{fill:#00B056;}
	.st14{fill:#BC2A46;}
	.st15{fill:#FF192E;}
</style>
<g>
	<path class="st13" d="M175.0011444,165H20.7449512c-11,0-20-9-20-20V20c0-11,9-20,20-20h154.2561951c11,0,20,9,20,20v125
		C195.0011444,156,186.0011444,165,175.0011444,165z"/>
	<g>
		<path class="st1" d="M159.7521973,109.15271c-1.1716919-2.8405762-2.4025269-5.6629028-3.6724854-8.4731445
			c-0.456543-1.0102539-0.8996582-2.0247803-1.3688354-3.0310059
			c-7.9768677-17.1063843-17.5929565-33.1789551-28.7357178-48.1251831
			c-2.7318726-3.6644897-5.5571899-7.2595825-8.4731445-10.7858276v13.6174927V109.15271h33.052063H159.7521973z
			 M125.9751587,100.6795654V64.1398926c7.8416138,11.5560303,14.791748,23.7476196,20.7918091,36.5396729H125.9751587z"/>
		<path class="st1" d="M60.6931152,100.6795654c-0.9492798,2.8125-1.8619995,5.6351929-2.7179565,8.4731445h8.8739624h42.4320679
			V26.9359741V13.3184814c-2.9159546,3.526123-5.741272,7.1213379-8.4731445,10.7858276
			c-11.1426392,14.946228-20.758606,31.0185547-28.7354126,48.1248169
			C67.7290039,81.5441895,63.9473267,91.0386353,60.6931152,100.6795654z M100.8080444,38.7208252v61.9587402H69.6381226
			c2.9420166-8.4163818,6.3101807-16.7126465,10.1138306-24.8694458
			C85.8109741,62.8163452,92.8535156,50.4434204,100.8080444,38.7208252z"/>
		<path class="st1" d="M44.8167114,109.15271h8.809021c3.8446655-13.440979,8.744873-26.6080933,14.723877-39.4301758
			c8.2365723-17.6635132,18.2679443-34.1959229,29.9813843-49.4750977l-10.7006226,6.49823
			c-2.6027222,1.5803223-5.1914673,3.2151489-7.7470703,4.8788452
			c-7.1851807,10.975647-13.6049194,22.4904175-19.2130127,34.5170898
			C54.15625,80.1110229,48.8743286,94.4752808,44.8167114,109.15271z"/>
		<path class="st1" d="M56.9472656,63.6349487c3.7982178-8.1453857,7.9818726-16.0477295,12.5307007-23.701416
			c-5.769165,4.1882935-11.3964844,8.588623-16.8551025,13.1984863c-1.1456299,2.289978-2.2692871,4.5939331-3.3549194,6.9220581
			C41.855957,75.9489136,36.038208,92.3544312,31.8099365,109.15271h8.7502441
			C44.6109009,93.5936279,50.0682983,78.3868408,56.9472656,63.6349487z"/>
		<path class="st1" d="M49.7623901,118.552063l16.9463501,27.1293945l101.8717651-0.2157593v-27.1293945L49.7623901,118.552063z
			 M160.1073608,137.0105591l-88.7071533,0.1878052l-6.3719482-10.2008667l95.0791016-0.1725464V137.0105591z"/>
		<polygon class="st1" points="35.3925171,118.552063 52.3388672,145.6814575 62.3292847,145.6814575 45.3829956,118.552063 		"/>
		<polygon class="st1" points="21.1655884,118.552063 38.1118774,145.6814575 48.1022949,145.6814575 31.1560059,118.552063 		"/>
	</g>
	<g>
		<path class="st2" d="M0,214.5351562h32.7734375v9.2998047H12.5244141v13.1240234h16.4990234v9.2998047H12.5244141v18.8994141H0
			V214.5351562z"/>
		<path class="st2" d="M38.7744141,214.5351562h12.5244141v41.3232422h21.0742188v9.2998047H38.7744141V214.5351562z"/>
		<path class="st2" d="M77.5488281,214.5351562h33.5234375v9.2998047H90.0732422v10.8740234h17.6240234v9.2998047H90.0732422
			v11.8496094h21.7490234v9.2998047H77.5488281V214.5351562z"/>
		<path class="st2" d="M118.3486328,214.5351562h33.5234375v9.2998047h-20.9990234v10.8740234h17.6240234v9.2998047h-17.6240234
			v11.8496094h21.7490234v9.2998047h-34.2734375V214.5351562z"/>
		<path class="st2" d="M155.3232422,214.5351562h40.4228516v9.2998047h-14.0986328v41.3232422h-12.5244141v-41.3232422h-13.7998047
			V214.5351562z"/>
	</g>
</g>
</svg>
