<?xml version="1.0" encoding="utf-8"?>
<!-- Generator: Adobe Illustrator 25.2.0, SVG Export Plug-In . SVG Version: 6.00 Build 0)  -->
<svg version="1.1" id="Layer_1" xmlns="http://www.w3.org/2000/svg" xmlns:xlink="http://www.w3.org/1999/xlink" x="0px" y="0px"
	 viewBox="0 0 426.2559204 165" style="enable-background:new 0 0 426.2559204 165;" xml:space="preserve">
<style type="text/css">
	.st0{fill:#A453B9;}
	.st1{fill:#FFFFFF;}
	.st2{fill:#344845;}
	.st3{fill:#D13306;}
	.st4{fill:#004D93;}
	.st5{fill:#0081BE;}
	.st6{fill:#1167F1;}
	.st7{fill:#FFC400;}
	.st8{fill:#FF7A3D;}
	.st9{fill:#00A580;}
	.st10{fill:#53C3D0;}
	.st11{fill:#671C4C;}
	.st12{fill:#00E3C2;}
	.st13{fill:#BC2A46;}
	.st14{fill:#FF192E;}
	.st15{fill:#00B056;}
</style>
<g>
	<g>
		<path class="st2" d="M230.5098114,57.1884766h32.7734528v9.2998047h-20.2490387v13.1240234h16.4990387v9.2998047h-16.4990387
			v18.8994141h-12.5244141V57.1884766z"/>
		<path class="st2" d="M269.2842407,57.1884766h12.5244141v41.3232422h21.0742188v9.2998047h-33.5986328V57.1884766z"/>
		<path class="st2" d="M308.0586548,57.1884766h33.5234375v9.2998047h-20.9990234v10.8740234h17.6240234v9.2998047h-17.6240234
			v11.8496094h21.7490234v9.2998047h-34.2734375V57.1884766z"/>
		<path class="st2" d="M348.8584595,57.1884766h33.5234375v9.2998047h-20.9990234v10.8740234h17.6240234v9.2998047h-17.6240234
			v11.8496094h21.7490234v9.2998047h-34.2734375V57.1884766z"/>
		<path class="st2" d="M385.8330688,57.1884766h40.4228516v9.2998047h-14.0986328v41.3232422h-12.5244141V66.4882812h-13.7998047
			V57.1884766z"/>
	</g>
	<g>
		<path class="st15" d="M180,165H20c-11,0-20-9-20-20V20C0,9,9,0,20,0h160c11,0,20,9,20,20v125C200,156,191,165,180,165z"/>
		<g>
			<g>
				<path class="st1" d="M164.8791504,112.1527405c-1.1716919-2.8405762-2.4025269-5.6629028-3.6724854-8.4731445
					c-0.456543-1.0102539-0.8996582-2.0247803-1.3688354-3.0310059
					c-7.9768677-17.1063843-17.5929565-33.1789551-28.7357178-48.1251831
					c-2.7318726-3.6644897-5.5571899-7.2595825-8.4731445-10.7858276V55.355072v56.7976685h33.052063H164.8791504z
					 M131.1021118,103.6795959V67.1399231c7.8416138,11.5560303,14.791748,23.7476196,20.7918091,36.5396729H131.1021118z"/>
				<path class="st1" d="M65.8200684,103.6795959c-0.9492798,2.8125-1.8619995,5.6351929-2.7179565,8.4731445h8.8739624h42.4320679
					V29.9360046V16.318512c-2.9159546,3.526123-5.741272,7.1213379-8.4731445,10.7858276
					c-11.1426392,14.946228-20.758606,31.0185547-28.7354126,48.1248169
					C72.855957,84.54422,69.0742798,94.0386658,65.8200684,103.6795959z M105.9349976,41.7208557v61.9587402H74.7650757
					c2.9420166-8.4163818,6.3101807-16.7126465,10.1138306-24.8694458
					C90.9379272,65.8163757,97.9804688,53.4434509,105.9349976,41.7208557z"/>
				<path class="st1" d="M49.9436646,112.1527405h8.809021c3.8446655-13.440979,8.744873-26.6080933,14.723877-39.4301758
					c8.2365723-17.6635132,18.2679443-34.1959229,29.9813843-49.4750977l-10.7006226,6.49823
					c-2.6027222,1.5803223-5.1914673,3.2151489-7.7470703,4.8788452
					c-7.1851807,10.975647-13.6049194,22.4904175-19.2130127,34.5170898
					C59.2832031,83.1110535,54.0012817,97.4753113,49.9436646,112.1527405z"/>
				<path class="st1" d="M62.0742188,66.6349792c3.7982178-8.1453857,7.9818726-16.0477295,12.5307007-23.701416
					c-5.769165,4.1882935-11.3964844,8.588623-16.8551025,13.1984863c-1.1456299,2.289978-2.2692871,4.5939331-3.3549194,6.9220581
					c-7.4119873,15.8948364-13.2297363,32.300354-17.4580078,49.0986328h8.7502441
					C49.737854,96.5936584,55.1952515,81.3868713,62.0742188,66.6349792z"/>
				<path class="st1" d="M54.8893433,121.5520935l16.9463501,27.1293945l101.8717651-0.2157593v-27.1293945L54.8893433,121.5520935z
					 M165.234314,140.0105896l-88.7071533,0.1878052l-6.3719482-10.2008667l95.0791016-0.1725464V140.0105896z"/>
				<polygon class="st1" points="40.5194702,121.5520935 57.4658203,148.681488 67.4562378,148.681488 50.5099487,121.5520935 				
					"/>
				<polygon class="st1" points="26.2925415,121.5520935 43.2388306,148.681488 53.229248,148.681488 36.282959,121.5520935 				"/>
			</g>
		</g>
	</g>
</g>
</svg>
