<svg id="Layer_1" data-name="Layer 1" xmlns="http://www.w3.org/2000/svg" viewBox="0 0 200 268.11294"><defs><style>.cls-1{fill:#344845;}.cls-2{fill:#00b056;}.cls-3{fill:#fff;}</style></defs><path class="cls-1" d="M2.127,217.48989H34.90039v9.29981h-20.249v13.124h16.499v9.2998h-16.499v18.89942H2.127Z"/><path class="cls-1" d="M40.90137,217.48989H53.42578v41.32324H74.5v9.29981H40.90137Z"/><path class="cls-1" d="M79.67578,217.48989h33.52344v9.29981H92.2002v10.874h17.624v9.2998H92.2002v11.84961h21.749v9.29981H79.67578Z"/><path class="cls-1" d="M120.47559,217.48989H153.999v9.29981H133v10.874h17.624v9.2998H133v11.84961h21.749v9.29981H120.47559Z"/><path class="cls-1" d="M157.4502,217.48989h40.42285v9.29981H183.77441v41.32324H171.25V226.7897H157.4502Z"/><rect class="cls-2" width="200" height="165" rx="20"/><path class="cls-3" d="M164.87915,112.15274q-1.75754-4.26087-3.67248-8.47314c-.45655-1.01026-.89966-2.02478-1.36884-3.031a274.46252,274.46252,0,0,0-28.73572-48.12518q-4.09781-5.49674-8.47314-10.78583v70.41516h42.25018Zm-33.777-8.47314V67.13992a266.77032,266.77032,0,0,1,20.79181,36.53968Z"/><path class="cls-3" d="M65.82007,103.6796c-.94928,2.8125-1.862,5.63519-2.718,8.47314h51.306V16.31851q-4.37393,5.28919-8.47314,10.78583A275.052,275.052,0,0,0,65.82007,103.6796ZM105.935,41.72086V103.6796H74.76508A267.324,267.324,0,0,1,105.935,41.72086Z"/><path class="cls-3" d="M49.94366,112.15274h8.809A267.02532,267.02532,0,0,1,103.458,23.24747L92.75732,29.7457c-2.60272,1.58032-5.19146,3.21515-7.74707,4.87884a275.98763,275.98763,0,0,0-35.06659,77.5282Z"/><path class="cls-3" d="M62.07422,66.635q5.69733-12.21809,12.5307-23.70142Q65.95117,49.216,57.74982,56.13205q-1.71844,3.435-3.35492,6.92206a274.7051,274.7051,0,0,0-17.458,49.09863h8.75024A266.39932,266.39932,0,0,1,62.07422,66.635Z"/><path class="cls-3" d="M54.88934,121.55209l16.94635,27.1294,101.87177-.21576v-27.1294Zm110.345,18.4585-88.70715.1878-6.37195-10.20086,95.0791-.17255Z"/><polygon class="cls-3" points="40.519 121.552 57.466 148.681 67.456 148.681 50.51 121.552 40.519 121.552"/><polygon class="cls-3" points="26.293 121.552 43.239 148.681 53.229 148.681 36.283 121.552 26.293 121.552"/></svg>