<?xml version="1.0" encoding="UTF-8"?>
<svg id="Layer_1" data-name="Layer 1" xmlns="http://www.w3.org/2000/svg" viewBox="0 0 364.41 419.29">
  <defs>
    <style>
      .cls-1 {
        fill: #fff;
      }
    </style>
  </defs>
  <path class="cls-1" d="m236.28,7.36c-36.57,31-73.79,62.51-100.81,102.5-21.86-9.74-34.08-20.38-56.12-31.98,1.5,35.7-14.86,115.48-14.86,115.48,0,0-38.79-16.2-48.97-24.81-21.4,107.32,21.86,205.78,59.79,219.9-34.51-57.99-27.69-118.83-32.3-169,10.04,2.81,45.6,19.21,45.6,19.21,0,0,21.76-74.71,25.03-101.32,5.04-2.51,32.02,22.26,32.02,22.26,0,0,63.71-90.42,70.39-83,3.54,43.29,34.93,84.27,39.45,124.42,15.92-6.21,31.91-15.58,47.83-21.79,18.23,28.74,22.58,66.41,12.46,214.41,24.2-56.2,35.42-101.63,38.55-154.11,2.16-36.22-9.76-78.12-17.69-114.77-14.92,5.82-37.99,14.06-52.92,19.88-19.7-50.39-39.99-89.9-47.45-137.3h0Zm-51.72,155.66s-4.33,20.11-15.19,38.36c-21.78,36.61-27.87,44.41-39.01,65.37-12.92,24.3-29.63,50.27-25.14,76.84,4.16,24.59,22.33,49.93,45.35,59.52,33.95,14.14,84.53,12.72,109.4-14.38,20.23-22.05,21.31-65.28,4.01-89.7-13.29-18.75-29.66-43.81-42.98-66.64-13.16-22.55-36.44-69.35-36.44-69.35h0Zm-36.99,159.43c4.57,13.5,8.64,20.62,16.56,28.05,9.9,9.3,18.46,14.69,36.31,18.46l-.67,19.97c-11.98-1.4-38.28-5.48-51.69-17.82-12.53-11.54-21.17-28.7-20.58-46.77l20.07-1.9Z"/>
</svg>