<svg id="Layer_1" data-name="Layer 1" xmlns="http://www.w3.org/2000/svg" viewBox="0 0 455.99049 269.01844"><defs><style>.cls-1{fill:#00e3c2;}.cls-2{fill:#fff;}.cls-3{fill:#344845;}</style></defs><rect class="cls-1" x="127.99524" width="200" height="165" rx="20"/><path class="cls-2" d="M278.86146,133.49316H127.99524v-20H276.5719V92.5H177.12952a17.73034,17.73034,0,0,1-17.71-17.71045V49.2168a17.73024,17.73024,0,0,1,17.71-17.71H327.99524v20H179.41956V72.5h99.4419A17.73044,17.73044,0,0,1,296.5719,90.21045V115.7832A17.73033,17.73033,0,0,1,278.86146,133.49316Z"/><path class="cls-3" d="M11.17213,251.46864c-.90039,4.0498.6748,8.70019,8.625,8.70019,5.249,0,7.04883-2.10058,7.04883-4.875,0-4.20019-4.19922-5.25-9.14942-7.0498-7.4248-2.54981-16.57422-6.15039-16.57422-16.72461,0-9.44922,7.27442-15.22461,19.64942-14.92383,15.14941.2998,19.42383,9.22461,17.77441,16.94922l-11.47461,1.0498c.75-5.84961-1.35058-9.14941-7.27441-9.14941-3.97559,0-6.22559,1.5-6.22559,4.64941,0,4.2002,4.04981,5.47461,9,7.19922,7.64942,2.55078,16.72461,5.625,16.72461,16.125,0,9.07422-6.75,15.59961-19.94922,15.59961-12.375,0-20.84961-5.70019-19.124-16.5Z"/><path class="cls-3" d="M45.74732,217.495H58.27174v32.47364c0,6.45019,2.70019,9.14941,7.875,9.14941,5.09961,0,8.17383-2.625,8.17383-9.374V217.495H86.471v32.02344c0,11.625-7.5752,19.5-20.69922,19.5-12.29981,0-20.02442-7.20019-20.02442-18.375Z"/><path class="cls-3" d="M95.17213,217.495H116.846c8.9248,0,15.67383,3,15.67383,12.22461,0,6.97461-3.82422,9.67481-10.34961,11.09961v.29981c7.4248.90039,11.9248,4.7998,11.9248,12.375,0,9.89941-7.125,14.624-16.64941,14.624H95.17213Zm17.999,19.42383c3.29981,0,6.59961-.89941,6.59961-5.249,0-4.42481-2.9248-5.09961-5.84961-5.09961h-6.2998v10.34863Zm1.2002,22.125c3.82422,0,7.124-1.875,7.124-6.90039,0-4.34961-3.2998-6.14941-7.124-6.14941h-6.75v13.0498Z"/><path class="cls-3" d="M140.77076,217.495h15.52442l8.249,22.57422c1.27539,3.59961,2.1748,7.27442,2.1748,7.27442h.30079a71.475,71.475,0,0,1,2.1748-7.27442L177.219,217.495h14.77442v50.623H180.2942V242.54383c0-3,.82422-10.0498.82422-10.0498h-.29981s-1.5,7.125-2.47461,9.6748l-9.75,25.94922h-5.625l-9.82421-25.94922a79.96242,79.96242,0,0,1-2.3252-9.22461h-.2998s.52539,6.59961.52539,9.59961v25.57422H140.77076Z"/><path class="cls-3" d="M213.6692,217.495H226.343l17.09961,50.623H230.76783l-3.14941-9.59961H210.6692l-3.0752,9.59961H196.64479Zm0,31.72364h10.874L221.094,238.56922a49.51642,49.51642,0,0,1-1.72558-8.69922h-.29981a64.2546,64.2546,0,0,1-1.875,8.624Z"/><path class="cls-3" d="M248.094,217.495h20.84864c9.89941,0,16.57422,4.79981,16.57422,14.09961a14.16758,14.16758,0,0,1-10.19922,13.72461A15.0147,15.0147,0,0,1,278.842,250.119c2.10059,4.27441,3.52539,8.999,7.9502,8.999a5.82906,5.82906,0,0,0,2.02441-.375l-.97461,8.92481a24.54757,24.54757,0,0,1-5.02441.6748c-6,0-9.4502-2.32422-12.97461-10.34961-1.5-3.59961-3.60059-9.89941-6.375-9.89941h-2.84961v20.02441H248.094Zm12.52442,9.0752v12.44922h4.499c3.60059,0,7.79981-1.125,7.79981-6.52539,0-4.42481-2.84961-5.92383-6.29981-5.92383Z"/><path class="cls-3" d="M291.81861,217.495h26.09864v8.84961H311.092v32.92383h6.8252v8.84961H291.81861v-8.84961h6.749V226.34461h-6.749Z"/><path class="cls-3" d="M324.74342,217.495h13.42383l13.27441,25.124c1.125,2.1748,2.625,6,3.8252,9h.2998c-.14941-2.85059-.52441-6.90039-.52441-9.8252V217.495h10.27441v50.623h-13.125l-13.79883-25.04883a69.87275,69.87275,0,0,1-3.6748-8.25h-.30078c.22558,2.84961.60058,6.22461.60058,9v24.29883H324.74342Z"/><path class="cls-3" d="M374.468,217.495h33.52344v9.29981h-20.999v10.874h17.624v9.29981h-17.624v11.84961h21.749v9.2998H374.468Z"/><path class="cls-3" d="M415.26783,217.495h20.84864c9.89941,0,16.57421,4.79981,16.57421,14.09961a14.16757,14.16757,0,0,1-10.19921,13.72461,15.0147,15.0147,0,0,1,3.52441,4.79981c2.10059,4.27441,3.52539,8.999,7.95019,8.999a5.82916,5.82916,0,0,0,2.02442-.375l-.97461,8.92481a24.5477,24.5477,0,0,1-5.02441.6748c-6,0-9.4502-2.32422-12.97461-10.34961-1.5-3.59961-3.60059-9.89941-6.375-9.89941h-2.84961v20.02441H415.26783Zm12.52442,9.0752v12.44922h4.499c3.60059,0,7.7998-1.125,7.7998-6.52539,0-4.42481-2.8496-5.92383-6.2998-5.92383Z"/></svg>