<svg id="Layer_1" data-name="Layer 1" xmlns="http://www.w3.org/2000/svg" viewBox="0 0 649.56738 269.01844"><defs><style>.cls-1{fill:#0081be;}.cls-2{fill:#fff;}.cls-3{fill:#344845;}</style></defs><rect class="cls-1" x="224.78369" width="200" height="165" rx="20"/><rect class="cls-2" x="264.16455" y="112.07813" width="121.23828" height="15"/><path class="cls-2" d="M366.92871,55.70605a17.52,17.52,0,0,0-17.5-17.5H300.68359a17.52,17.52,0,0,0-17.5,17.5v46.88477h83.74512Zm-15,31.88477H298.18359V55.70605a2.53338,2.53338,0,0,1,2.5-2.5h48.74512a2.53338,2.53338,0,0,1,2.5,2.5Z"/><path class="cls-2" d="M273.19482,74.1416v-15h-9.03027a1.5545,1.5545,0,0,1-1.53418-1.53418V37.92188h-15V57.60742A16.55263,16.55263,0,0,0,264.16455,74.1416Z"/><path class="cls-2" d="M386.937,37.92188V57.60742a1.5545,1.5545,0,0,1-1.53418,1.53418h-8.48535v15h8.48535A16.55263,16.55263,0,0,0,401.937,57.60742V37.92188Z"/><path class="cls-3" d="M0,217.495H20.84863c9.89942,0,16.57422,4.79981,16.57422,14.09961a14.16757,14.16757,0,0,1-10.19922,13.72461,15.01488,15.01488,0,0,1,3.52442,4.79981c2.10058,4.27441,3.52539,8.999,7.95019,8.999a5.82916,5.82916,0,0,0,2.02442-.375l-.97461,8.92481a24.54772,24.54772,0,0,1-5.02442.6748c-6,0-9.45019-2.32422-12.97461-10.34961-1.5-3.59961-3.60058-9.89941-6.375-9.89941H12.52441v20.02441H0Zm12.52441,9.0752v12.44922h4.499c3.60058,0,7.7998-1.125,7.7998-6.52539,0-4.42481-2.84961-5.92383-6.2998-5.92383Z"/><path class="cls-3" d="M58.499,217.495H71.17285l17.09961,50.623H75.59766l-3.14942-9.59961H55.499l-3.07519,9.59961H41.47461Zm0,31.72364h10.874l-3.44922-10.64942A49.51585,49.51585,0,0,1,64.19824,229.87h-.2998a64.2546,64.2546,0,0,1-1.875,8.624Z"/><path class="cls-3" d="M92.92383,217.495h13.42383l13.27441,25.124c1.125,2.1748,2.625,6,3.8252,9h.2998c-.14941-2.85059-.52441-6.90039-.52441-9.8252V217.495h10.27441v50.623h-13.125l-13.79883-25.04883a69.87275,69.87275,0,0,1-3.6748-8.25h-.30078c.22558,2.84961.60058,6.22461.60058,9v24.29883H92.92383Z"/><path class="cls-3" d="M140.32324,242.46864c0-18.29883,9.07422-25.87305,23.09864-25.87305,14.77441,0,20.69921,8.09961,19.0498,19.04883l-11.7002,1.0498c1.2754-8.02441-1.874-11.249-7.57421-11.249-5.47461,0-9.89942,4.0498-9.89942,17.09863,0,13.79981,4.79981,17.32422,10.27442,17.32422,5.1748,0,9.375-3.22461,8.47461-9.82422l10.94921,1.125c.8252,10.27442-6.59961,17.84961-20.09863,17.84961C149.17285,269.01844,140.32324,260.91786,140.32324,242.46864Z"/><path class="cls-3" d="M189.67383,217.495h12.52441v19.124h15.374V217.495h12.52441v50.623H217.57227V246.66883h-15.374v21.44922H189.67383Z"/><path class="cls-3" d="M239.24805,217.495h33.52343v9.29981h-20.999v10.874h17.624v9.29981h-17.624v11.84961h21.749v9.2998H239.24805Z"/><path class="cls-3" d="M280.04785,217.495h20.84863c9.89942,0,16.57422,4.79981,16.57422,14.09961a14.16757,14.16757,0,0,1-10.19922,13.72461,15.01488,15.01488,0,0,1,3.52442,4.79981c2.10058,4.27441,3.52539,8.999,7.95019,8.999a5.82916,5.82916,0,0,0,2.02442-.375l-.97461,8.92481a24.54772,24.54772,0,0,1-5.02442.6748c-6,0-9.45019-2.32422-12.9746-10.34961-1.5-3.59961-3.60059-9.89941-6.375-9.89941h-2.84961v20.02441H280.04785Zm12.52442,9.0752v12.44922h4.5c3.59961,0,7.79882-1.125,7.79882-6.52539,0-4.42481-2.84961-5.92383-6.2998-5.92383Z"/><path class="cls-3" d="M340.04688,217.495h19.34863c12.59961,0,22.34961,7.34961,22.34961,25.04883,0,17.32422-9.29981,25.57422-22.34961,25.57422H340.04688Zm18.14843,41.54883c5.54981,0,10.875-3.375,10.875-16.5,0-13.04883-5.32519-15.97363-10.875-15.97363h-5.624v32.47363Z"/><path class="cls-3" d="M388.64648,217.495h33.52344v9.29981h-20.999v10.874h17.624v9.29981h-17.624v11.84961h21.749v9.2998H388.64648Z"/><path class="cls-3" d="M437.8457,251.46864c-.90039,4.0498.67481,8.70019,8.625,8.70019,5.249,0,7.04883-2.10058,7.04883-4.875,0-4.20019-4.19922-5.25-9.14941-7.0498-7.42481-2.54981-16.57422-6.15039-16.57422-16.72461,0-9.44922,7.27441-15.22461,19.64941-14.92383,15.14942.2998,19.42383,9.22461,17.77442,16.94922l-11.47461,1.0498c.75-5.84961-1.35059-9.14941-7.27442-9.14941-3.97558,0-6.22558,1.5-6.22558,4.64941,0,4.2002,4.0498,5.47461,9,7.19922,7.64941,2.55078,16.72461,5.625,16.72461,16.125,0,9.07422-6.75,15.59961-19.94922,15.59961-12.375,0-20.84961-5.70019-19.124-16.5Z"/><path class="cls-3" d="M472.87109,217.495h12.52442v14.17481c0,1.57422-.22559,3.89941-.375,5.624h.2998a43.12251,43.12251,0,0,1,3.14942-4.72461l12.375-15.07422h13.499l-16.499,19.874,17.39941,30.749H500.84473l-11.69922-21.22461-3.75,4.5752v16.64941H472.87109Z"/><path class="cls-3" d="M515.39551,217.495h40.42285v9.29981H541.71973v41.32324H529.19531V226.79481h-13.7998Z"/><path class="cls-3" d="M558.06934,242.09364c0-18.22364,9.6748-25.49805,23.249-25.49805,13.34961,0,23.02441,7.27441,23.02441,25.49805,0,20.25-9.97461,26.9248-23.02441,26.9248C567.74414,269.01844,558.06934,261.74305,558.06934,242.09364Zm33.44824,0c0-12.59864-4.94922-16.64844-10.34961-16.64844-5.39942,0-10.27442,4.0498-10.27442,16.64844,0,14.02539,4.875,18.07519,10.27442,18.07519C586.56836,260.16883,591.51758,256.119,591.51758,242.09364Z"/><path class="cls-3" d="M611.169,217.495h21.22363c9.97461,0,17.1748,5.02442,17.1748,15.14942,0,11.02441-6.97558,17.39941-17.1748,17.39941h-8.69922v18.07422H611.169Zm12.52441,9.0752v14.39941H629.543c3.89941,0,7.4248-2.10058,7.4248-7.57519,0-5.17481-3.52539-6.82422-7.4248-6.82422Z"/></svg>