<?xml version="1.0" encoding="utf-8"?>
<!-- Generator: Adobe Illustrator 25.4.1, SVG Export Plug-In . SVG Version: 6.00 Build 0)  -->
<svg version="1.1" id="Layer_1" xmlns="http://www.w3.org/2000/svg" xmlns:xlink="http://www.w3.org/1999/xlink" x="0px" y="0px"
	 viewBox="0 0 374.0957031 269.0128479" style="enable-background:new 0 0 374.0957031 269.0128479;" xml:space="preserve">
<style type="text/css">
	.st0{fill:#EE4F23;}
	.st1{fill:#FFFFFF;}
	.st2{fill:#344845;}
</style>
<g>
	<g>
		<path class="st0" d="M267.9608459,165H107.6085358c-11.3083801,0-20.5606842-9.2523041-20.5606842-20.5606842V20.5606823
			C87.0478516,9.2523069,96.3001556,0,107.6085358,0h160.3523102c11.3083801,0,20.5606995,9.2523069,20.5606995,20.5606823
			v123.8786316C288.5215454,155.7476959,279.2692261,165,267.9608459,165z"/>
	</g>
	<g>
		<path class="st1" d="M190.546936,134.7202759c-18.5761719,0-33.6884766-15.1103592-33.6884766-33.6826248
			s15.1123047-33.6826172,33.6884766-33.6826172c11.9785156,0,23.1572266,6.4560547,29.1728516,16.8486328l12.9824219-7.5136719
			c-3.8752441-6.6950684-9.2416992-12.2485352-15.5273438-16.3583984V44.6724167
			c0-16.2080078-13.1845703-29.3935547-29.390625-29.3935547c-16.2050781,0-29.3896484,13.1855459-29.3896484,29.3935547v19.8527832
			c-10.1286621,8.9277344-16.5361328,21.9824219-16.5361328,36.5124512c0,26.84375,21.8417969,48.6826248,48.6884766,48.6826248
			c17.3144531,0,33.4667969-9.3242188,42.1552734-24.333992l-12.9824219-7.5136719
			C213.7041626,128.2642212,202.5264282,134.7202759,190.546936,134.7202759z M173.3945923,44.6724167
			c0-7.9365234,6.4550781-14.3935547,14.3896484-14.3935547s14.390625,6.4570312,14.390625,14.3935547v9.1276855
			c-3.7668457-0.9338379-7.6635742-1.4450684-11.6279297-1.4450684c-6.0356445,0-11.8139648,1.1120605-17.1523438,3.128418
			V44.6724167z"/>
		<path class="st1" d="M192.6299438,89.4136276c4.125,0,7.9785156,2.2294922,10.0576172,5.8183594l6.609375-3.8300781
			c-3.4394531-5.9384766-9.8261719-9.6269531-16.6669922-9.6269531c-10.6230469,0-19.2646484,8.640625-19.2646484,19.2626953
			s8.6416016,19.2636719,19.2646484,19.2636719c6.8398438,0,13.2265625-3.6884766,16.6669922-9.6259766l-6.609375-3.8300781
			c-2.0791016,3.5878906-5.9326172,5.8173828-10.0576172,5.8173828c-6.4101562,0-11.6259766-5.2148438-11.6259766-11.625
			C181.0039673,94.6284714,186.2197876,89.4136276,192.6299438,89.4136276z"/>
	</g>
</g>
<g>
	<path class="st2" d="M71.1787262,217.474472h12.3094635v40.6140594h20.7125397v9.1397095H71.1787262V217.474472z"/>
	<path class="st2" d="M106.1923218,241.6506958c0-17.9111023,9.5092468-25.0616455,22.8504944-25.0616455
		c13.1204987,0,22.6285553,7.1505432,22.6285553,25.0616455c0,19.9015198-9.8031921,26.4617615-22.6285553,26.4617615
		C115.7015686,268.1124573,106.1923218,260.9631348,106.1923218,241.6506958z M139.0667572,241.6506958
		c0-12.3826447-4.8649902-16.3634338-10.1715088-16.3634338c-5.3077087,0-10.09832,3.9807892-10.09832,16.3634338
		c0,13.7839661,4.7906113,17.76474,10.09832,17.76474C134.201767,259.4154358,139.0667572,255.4346619,139.0667572,241.6506958z"/>
	<path class="st2" d="M156.0948486,242.0190277c0-17.9842987,8.9189758-25.4299774,22.7029419-25.4299774
		c14.5205994,0,20.3442078,7.9615631,18.7221375,18.7233582l-11.4984283,1.0317841
		c1.2525482-7.8871765-1.8428192-11.0569305-7.4444733-11.0569305c-5.3808899,0-9.7299957,3.9807892-9.7299957,16.8061523
		c0,13.5620117,4.7174377,17.026886,10.0983276,17.026886c5.0857544,0,9.2129059-3.1697388,8.3286896-9.6556091
		l10.7617798,1.1049805c0.8110352,10.0983276-6.4858704,17.5427856-19.7539368,17.5427856
		C164.7930603,268.1124573,156.0948486,260.1520996,156.0948486,242.0190277z"/>
	<path class="st2" d="M204.5984802,217.474472h12.3094635v13.9303436c0,1.5488739-0.2219543,3.8332062-0.3683167,5.5284576
		h0.2939301c0.8110352-1.2525482,1.8428192-3.169754,3.0965729-4.6430511l12.1618958-14.8157501h13.2680664l-16.2170715,19.5331879
		l17.1012878,30.2205811h-14.1522827l-11.4984436-20.8601074l-3.6856384,4.4966736v16.3634338h-12.3094635V217.474472z"/>
	<path class="st2" d="M260.9148865,242.0190277c0-17.9842987,8.9189758-25.4299774,22.7029419-25.4299774
		c14.5205994,0,20.3442078,7.9615631,18.7221375,18.7233582l-11.4984436,1.0317841
		c1.2525635-7.8871765-1.842804-11.0569305-7.444458-11.0569305c-5.3808899,0-9.730011,3.9807892-9.730011,16.8061523
		c0,13.5620117,4.7174377,17.026886,10.0983276,17.026886c5.0857544,0,9.2129211-3.1697388,8.3287048-9.6556091
		l10.7617798,1.1049805c0.8110352,10.0983276-6.4858704,17.5427856-19.7539368,17.5427856
		C269.6130981,268.1124573,260.9148865,260.1520996,260.9148865,242.0190277z"/>
</g>
</svg>
