<?xml version="1.0" encoding="utf-8"?>
<!-- Generator: Adobe Illustrator 26.0.0, SVG Export Plug-In . SVG Version: 6.00 Build 0)  -->
<svg version="1.1" id="Layer_1" xmlns="http://www.w3.org/2000/svg" xmlns:xlink="http://www.w3.org/1999/xlink" x="0px" y="0px"
	 viewBox="0 0 700.0344238 165.8787994" style="enable-background:new 0 0 700.0344238 165.8787994;" xml:space="preserve">
<style type="text/css">
	.st0{fill:#FFFFFF;}
</style>
<g>
	<g>
		<path class="st0" d="M68.4387207,55.68013v38.2770996c0,17.4306641,31.5614014,31.5612793,31.5614014,31.5612793
			s31.5611572-14.1306152,31.5611572-31.5612793V55.68013l-31.5611572-15.3198242L68.4387207,55.68013z M114.7287598,67.6769562
			l3.3145752,1.5961914l0.8186035,3.5866699l2.8190918,12.3510742l0.8186035,3.5866699l-2.2937012,2.8762207l-7.8989258,9.9050293
			l-2.2938232,2.8762207h-3.678833H93.6656494h-3.6789551l-2.2937012-2.8762207l-7.8988037-9.9050293l-2.2937012-2.8762207
			l0.8186035-3.5866699l2.8190918-12.3510742l0.8186035-3.5866699l3.3145752-1.5961914L96.6854248,62.18013L100,60.5839386
			l3.3145752,1.5961914L114.7287598,67.6769562z"/>
		<path class="st0" d="M179.6525269,0.0000153H20.3474731C9.1563721,0.0000153,0,9.1563873,0,20.3474884v125.1837769
			c0,11.1911621,9.1563721,20.3475342,20.3474731,20.3475342h159.3050537c11.1911011,0,20.3474731-9.1563721,20.3474731-20.3475342
			V20.3474884C200,9.1563873,190.8436279,0.0000153,179.6525269,0.0000153z M146.5612793,55.68013v38.2770996
			c0,12.3112793-7.3968506,23.907959-21.9851074,34.4677734c-8.8873291,6.4333496-17.4943848,10.357666-18.4465332,10.7839355
			l-6.1295166,2.7443848l-6.1295166-2.7443848c-0.9521484-0.4262695-9.5593262-4.3505859-18.4466553-10.7839355
			c-14.5883789-10.5598145-21.9852295-22.1564941-21.9852295-34.4677734V55.68013v-9.3928223l8.4498291-4.1015625
			L93.4499512,26.865921l6.5501709-3.1791992l6.5501709,3.1791992l31.5611572,15.3198242l8.4498291,4.1015625V55.68013z"/>
		<polygon class="st0" points="88.5859375,74.5597687 85.7668457,86.9108429 93.6656494,96.8158722 106.3343506,96.8158722 
			114.2332764,86.9108429 111.4141846,74.5597687 100,69.0629425 		"/>
	</g>
	<g>
		<path class="st0" d="M230.0149231,57.177681h12.5244141v14.1748047c0,1.5742188-0.2255859,3.8994141-0.375,5.6240234h0.2998047
			c0.8251953-1.2744141,1.875-3.2246094,3.1494141-4.7246094l12.375-15.0742188h13.4990234l-16.4990234,19.8740234
			l17.3994141,30.7490234h-14.3994141l-11.6992188-21.2246094l-3.75,4.5751953v16.6494141h-12.5244141V57.177681z"/>
		<path class="st0" d="M275.9143372,57.177681h12.5244141v32.4736328c0,6.4501953,2.7001953,9.1494141,7.875,9.1494141
			c5.0996094,0,8.1738281-2.625,8.1738281-9.3740234V57.177681H316.63797v32.0234375c0,11.625-7.5751953,19.5-20.6992188,19.5
			c-12.2998047,0-20.0244141-7.2001953-20.0244141-18.375V57.177681z"/>
		<path class="st0" d="M325.3391418,57.177681H347.01297c8.9248047,0,15.6738281,3,15.6738281,12.2246094
			c0,6.9746094-3.8242188,9.6748047-10.3496094,11.0996094v0.2998047c7.4248047,0.9003906,11.9248047,4.7998047,11.9248047,12.375
			c0,9.8994141-7.125,14.6240234-16.6494141,14.6240234h-22.2734375V57.177681z M343.3381653,76.6015091
			c3.2998047,0,6.5996094-0.8994141,6.5996094-5.2490234c0-4.4248047-2.9248047-5.0996094-5.8496094-5.0996094h-6.2998047
			v10.3486328H343.3381653z M344.5383606,98.7265091c3.8242188,0,7.1240234-1.875,7.1240234-6.9003906
			c0-4.3496094-3.2998047-6.1494141-7.1240234-6.1494141h-6.75v13.0498047H344.5383606z"/>
		<path class="st0" d="M370.9377747,57.177681h33.5234375v9.2998047h-20.9990234v10.8740234h17.6240234v9.2998047h-17.6240234
			v11.8496094h21.7490234v9.2998047h-34.2734375V57.177681z"/>
		<path class="st0" d="M407.6877747,57.177681h12.2988281l7.2753906,28.6494141
			c0.8994141,3.5244141,1.125,9.5996094,1.125,9.5996094h0.2998047c0,0,0.2246094-6.2255859,0.9746094-9.4501953
			l6.4501953-28.7988281h11.4746094l6.5244141,28.5742188c0.8251953,3.5996094,1.125,10.3496094,1.125,10.3496094h0.2998047
			c0,0,0.375-6.9003906,1.2001953-10.2001953l6.9746094-28.7236328h10.6494141l-13.1992188,50.6230469h-13.2744141
			l-5.1748047-21.7490234c-0.9755859-3.9746094-1.5-10.9492188-1.5-10.9492188h-0.2998047
			c0,0-0.4501953,6.9746094-1.4257812,10.9492188l-5.1748047,21.7490234h-13.4238281L407.6877747,57.177681z"/>
		<path class="st0" d="M489.662384,57.177681h12.6738281l17.0995789,50.6230469h-12.6747742l-3.1494141-9.5996094H486.662384
			l-3.0751953,9.5996094H472.63797L489.662384,57.177681z M489.662384,88.9013138h10.8740234l-3.4492188-10.6494141
			c-1.2001953-3.5996094-1.7255859-8.6992188-1.7255859-8.6992188h-0.2998047c0,0-0.75,5.1748047-1.875,8.6240234
			L489.662384,88.9013138z"/>
		<path class="st0" d="M524.0871582,57.177681h20.8486328c9.8994141,0,16.5742188,4.7998047,16.5742188,14.0996094
			c0,7.5742188-5.1748047,12.1494141-10.1992188,13.7246094c1.5,1.2744141,2.625,3,3.5244141,4.7998047
			c2.1005859,4.2744141,3.5253906,8.9990234,7.9501953,8.9990234c1.125,0,2.0244141-0.375,2.0244141-0.375l-0.9746094,8.9248047
			c0,0-2.7001953,0.6748047-5.0244141,0.6748047c-6,0-9.4501953-2.3242188-12.9746094-10.3496094
			c-1.5-3.5996094-3.6005859-9.8994141-6.375-9.8994141h-2.8496094v20.0244141h-12.5244141V57.177681z M536.6115723,66.2528763
			V78.702095h4.4990234c3.6005859,0,7.7998047-1.125,7.7998047-6.5253906c0-4.4248047-2.8496094-5.9238281-6.2998047-5.9238281
			H536.6115723z"/>
		<path class="st0" d="M570.0617676,57.177681h19.3486328c12.5996094,0,22.3496094,7.3496094,22.3496094,25.0488281
			c0,17.3242188-9.2998047,25.5742188-22.3496094,25.5742188h-19.3486328V57.177681z M588.2102051,98.7265091
			c5.5498047,0,10.875-3.375,10.875-16.5c0-13.0488281-5.3251953-15.9736328-10.875-15.9736328h-5.6240234v32.4736328H588.2102051z"
			/>
		<path class="st0" d="M618.661377,57.177681h33.5234375v9.2998047H631.185791v10.8740234h17.6240234v9.2998047H631.185791
			v11.8496094h21.7490234v9.2998047H618.661377V57.177681z"/>
		<path class="st0" d="M659.4611816,57.177681h13.4238281l13.2744141,25.1240234c1.125,2.1748047,2.625,6,3.8251953,9h0.2998047
			c-0.1494141-2.8505859-0.5244141-6.9003906-0.5244141-9.8251953V57.177681h10.2744141v50.6230469h-13.125l-13.7988281-25.0488281
			c-1.2753906-2.25-2.625-5.5498047-3.6748047-8.25h-0.3007812c0.2255859,2.8496094,0.6005859,6.2246094,0.6005859,9v24.2988281
			h-10.2744141V57.177681z"/>
	</g>
</g>
</svg>
