<?xml version="1.0" encoding="utf-8"?>
<!-- Generator: Adobe Illustrator 25.2.0, SVG Export Plug-In . SVG Version: 6.00 Build 0)  -->
<svg version="1.1" id="Layer_1" xmlns="http://www.w3.org/2000/svg" xmlns:xlink="http://www.w3.org/1999/xlink" x="0px" y="0px"
	 viewBox="0 0 470.0195312 271.1151733" style="enable-background:new 0 0 470.0195312 271.1151733;" xml:space="preserve">
<style type="text/css">
	.st0{fill:#A453B9;}
	.st1{fill:#FFFFFF;}
	.st2{fill:#344845;}
	.st3{fill:#D13306;}
	.st4{fill:#004D93;}
	.st5{fill:#0081BE;}
	.st6{fill:#1167F1;}
	.st7{fill:#FFC400;}
	.st8{fill:#FF7A3D;}
	.st9{fill:#00A580;}
	.st10{fill:#53C3D0;}
	.st11{fill:#671C4C;}
	.st12{fill:#00E3C2;}
	.st13{fill:#00B056;}
	.st14{fill:#BC2A46;}
	.st15{fill:#FF192E;}
</style>
<g>
	<path class="st14" d="M314.418396,169.8787537H155.6011353c-11.3252563,0-20.5913696-9.2661133-20.5913696-20.5913696V20.5913639
		C135.0097656,9.2661142,144.2758789,0,155.6011353,0H314.418396c11.3252563,0,20.5913696,9.2661142,20.5913696,20.5913639
		V149.287384C335.0097656,160.6126404,325.7436523,169.8787537,314.418396,169.8787537z"/>
	<g>
		<path class="st1" d="M231.6951599,64.1800995l-11.4140625,5.4968262l-3.3145752,1.5961914l-0.8186035,3.5866699
			l-2.8190918,12.3510742l-0.8186035,3.5866699l2.2937012,2.8762207l7.8988037,9.9050293l2.2937012,2.8762207h3.6789551h12.6687012
			h3.678833l2.2938232-2.8762207l7.8989258-9.9050293l2.2937012-2.8762207l-0.8186035-3.5866699l-2.8190918-12.3510742
			l-0.8186035-3.5866699l-3.3145752-1.5961914l-11.4141846-5.4968262l-3.3145752-1.5961914L231.6951599,64.1800995z
			 M246.4239197,76.5597382l2.8190918,12.3510742l-7.8989258,9.9050293h-12.6687012l-7.8988037-9.9050293l2.8190918-12.3510742
			l11.4140625-5.4968262L246.4239197,76.5597382z"/>
		<path class="st1" d="M273.1211853,44.1857147l-31.5611572-15.3198242l-6.5501709-3.1791992l-6.5501709,3.1791992
			l-31.5614014,15.3198242l-8.4498291,4.1015625v9.3928223v38.2770996c0,12.3112793,7.3968506,23.907959,21.9852295,34.4677734
			c8.8873291,6.4333496,17.4945068,10.357666,18.4466553,10.7839355l6.1295166,2.7443848l6.1295166-2.7443848
			c0.9521484-0.4262695,9.5592041-4.3505859,18.4465332-10.7839355
			c14.5882568-10.5598145,21.9851074-22.1564941,21.9851074-34.4677734V57.6800995v-9.3928223L273.1211853,44.1857147z
			 M266.5710144,95.9571991c0,17.4306641-31.5611572,31.5612793-31.5611572,31.5612793
			s-31.5614014-14.1306152-31.5614014-31.5612793V57.6800995l31.5614014-15.3198242l31.5611572,15.3198242V95.9571991z"/>
	</g>
	<g>
		<path class="st2" d="M0,219.5917206h12.5244141v14.1748047c0,1.5742188-0.2255859,3.8994141-0.375,5.6240234h0.2998047
			c0.8251953-1.2744141,1.875-3.2246094,3.1494141-4.7246094l12.375-15.0742188h13.4990234L24.9736328,239.465744
			l17.3994141,30.7490387H27.9736328l-11.6992188-21.2246246l-3.75,4.5751953v16.6494293H0V219.5917206z"/>
		<path class="st2" d="M45.8994141,219.5917206h12.5244141v32.4736328c0,6.4502106,2.7001953,9.1494293,7.875,9.1494293
			c5.0996094,0,8.1738281-2.625,8.1738281-9.3740387v-32.2490234h12.1503906v32.0234375
			c0,11.6250153-7.5751953,19.5000153-20.6992188,19.5000153c-12.2998047,0-20.0244141-7.2001953-20.0244141-18.3750153V219.5917206
			z"/>
		<path class="st2" d="M95.3242188,219.5917206h21.6738281c8.9248047,0,15.6738281,3,15.6738281,12.2246094
			c0,6.9746094-3.8242188,9.6748047-10.3496094,11.0996094v0.2998047c7.4248047,0.9003906,11.9248047,4.7998047,11.9248047,12.375
			c0,9.8994293-7.125,14.6240387-16.6494141,14.6240387H95.3242188V219.5917206z M113.3232422,239.0155487
			c3.2998047,0,6.5996094-0.8994141,6.5996094-5.2490234c0-4.4248047-2.9248047-5.0996094-5.8496094-5.0996094h-6.2998047
			v10.3486328H113.3232422z M114.5234375,261.140564c3.8242188,0,7.1240234-1.875,7.1240234-6.9004059
			c0-4.3496094-3.2998047-6.1494141-7.1240234-6.1494141h-6.75v13.0498199H114.5234375z"/>
		<path class="st2" d="M140.9228516,219.5917206h33.5234375v9.2998047h-20.9990234v10.8740234h17.6240234v9.2998047h-17.6240234
			v11.8496246h21.7490234v9.2998047h-34.2734375V219.5917206z"/>
		<path class="st2" d="M177.6728516,219.5917206h12.2988281l7.2753906,28.6494141
			c0.8994141,3.5244141,1.125,9.5996246,1.125,9.5996246h0.2998047c0,0,0.2246094-6.2256012,0.9746094-9.4502106
			l6.4501953-28.7988281h11.4746094l6.5244141,28.5742188c0.8251953,3.5996094,1.125,10.3496246,1.125,10.3496246h0.2998047
			c0,0,0.375-6.9004059,1.2001953-10.2002106l6.9746094-28.7236328h10.6494141l-13.1992188,50.6230621h-13.2744141
			l-5.1748047-21.7490387c-0.9755859-3.9746094-1.5-10.9492188-1.5-10.9492188h-0.2998047
			c0,0-0.4501953,6.9746094-1.4257812,10.9492188l-5.1748047,21.7490387h-13.4238281L177.6728516,219.5917206z"/>
		<path class="st2" d="M259.6474609,219.5917206h12.6738281l17.0996094,50.6230621h-12.6748047l-3.1494141-9.5996094h-16.9492188
			l-3.0751953,9.5996094h-10.9492188L259.6474609,219.5917206z M259.6474609,251.3153534h10.8740234l-3.4492188-10.6494141
			c-1.2001953-3.5996094-1.7255859-8.6992188-1.7255859-8.6992188h-0.2998047c0,0-0.75,5.1748047-1.875,8.6240234
			L259.6474609,251.3153534z"/>
		<path class="st2" d="M294.0722656,219.5917206h20.8486328c9.8994141,0,16.5742188,4.7998047,16.5742188,14.0996094
			c0,7.5742188-5.1748047,12.1494141-10.1992188,13.7246094c1.5,1.2744141,2.625,3,3.5244141,4.7998047
			c2.1005859,4.2744293,3.5253906,8.9990387,7.9501953,8.9990387c1.125,0,2.0244141-0.375,2.0244141-0.375l-0.9746094,8.9248047
			c0,0-2.7001953,0.6748047-5.0244141,0.6748047c-6,0-9.4501953-2.3242188-12.9746094-10.3496094
			c-1.5-3.5996094-3.6005859-9.8994293-6.375-9.8994293h-2.8496094v20.0244293h-12.5244141V219.5917206z M306.5966797,228.6669159
			v12.4492188h4.4990234c3.6005859,0,7.7998047-1.125,7.7998047-6.5253906c0-4.4248047-2.8496094-5.9238281-6.2998047-5.9238281
			H306.5966797z"/>
		<path class="st2" d="M340.046875,219.5917206h19.3486328c12.5996094,0,22.3496094,7.3496094,22.3496094,25.0488281
			c0,17.324234-9.2998047,25.574234-22.3496094,25.574234H340.046875V219.5917206z M358.1953125,261.140564
			c5.5498047,0,10.875-3.375,10.875-16.5000153c0-13.0488281-5.3251953-15.9736328-10.875-15.9736328h-5.6240234v32.4736481
			H358.1953125z"/>
		<path class="st2" d="M388.6464844,219.5917206h33.5234375v9.2998047h-20.9990234v10.8740234h17.6240234v9.2998047h-17.6240234
			v11.8496246h21.7490234v9.2998047h-34.2734375V219.5917206z"/>
		<path class="st2" d="M429.4462891,219.5917206h13.4238281l13.2744141,25.1240234c1.125,2.1748047,2.625,6,3.8251953,9h0.2998047
			c-0.1494141-2.8505859-0.5244141-6.9003906-0.5244141-9.8251953v-24.2988281h10.2744141v50.6230621h-13.125
			l-13.7988281-25.0488434c-1.2753906-2.25-2.625-5.5498047-3.6748047-8.25h-0.3007812
			c0.2255859,2.8496094,0.6005859,6.2246094,0.6005859,9v24.2988434h-10.2744141V219.5917206z"/>
	</g>
</g>
</svg>
