<svg id="Layer_1" data-name="Layer 1" xmlns="http://www.w3.org/2000/svg" viewBox="0 0 200 165"><defs><style>.cls-1{fill:#53c3d0;}.cls-2{fill:#fff;}</style></defs><rect class="cls-1" width="200" height="165" rx="20"/><path class="cls-2" d="M-.01654,96.29054c13.294,0,25.94236-5.00787,33.33751-8.622,7.39716,3.61311,20.04655,8.622,33.34153,8.622,13.293,0,25.94134-5.00787,33.33649-8.622,7.39616,3.61411,20.04454,8.622,33.33851,8.622s25.94236-5.00787,33.33751-8.622c7.39716,3.61311,20.04655,8.622,33.34153,8.622V76.381c-10.6573,0-23.01708-6.115-26.85142-8.454l-6.48005-3.96607-6.472,3.949C156.35056,70.26592,143.9928,76.381,133.3375,76.381s-23.01406-6.115-26.84839-8.454L99.999,63.9176l-6.49112,4.01031c-.13676.08447-14.04213,8.453-26.84537,8.453-10.65731,0-23.01708-6.115-26.85142-8.454L33.331,63.96084l-6.472,3.949C22.99652,70.26592,10.63875,76.381-.01654,76.381Z"/></svg>