<svg id="Layer_1" data-name="Layer 1" xmlns="http://www.w3.org/2000/svg" viewBox="0 0 200.03307 269.01284"><defs><style>.cls-1{fill:#53c3d0;}.cls-2{fill:#fff;}.cls-3{fill:#344845;}</style></defs><rect class="cls-1" x="0.01654" width="200" height="165" rx="20"/><path class="cls-2" d="M0,96.29054c13.294,0,25.94236-5.00787,33.3375-8.622,7.39717,3.61311,20.04655,8.622,33.34153,8.622,13.293,0,25.94135-5.00787,33.3365-8.622,7.39616,3.61411,20.04454,8.622,33.33851,8.622s25.94236-5.00787,33.33751-8.622c7.39716,3.61311,20.04655,8.622,33.34152,8.622V76.381c-10.6573,0-23.01707-6.115-26.85141-8.454l-6.48006-3.96607-6.472,3.949C156.3671,70.26592,144.00933,76.381,133.354,76.381s-23.01406-6.115-26.84839-8.454l-6.49012-4.00931-6.49112,4.01031c-.13676.08447-14.04213,8.453-26.84538,8.453-10.6573,0-23.01708-6.115-26.85141-8.454l-6.48006-3.96607-6.472,3.949C23.01306,70.26592,10.65529,76.381,0,76.381Z"/><path class="cls-3" d="M39.97992,217.4894H60.82855c9.89941,0,16.57422,4.79981,16.57422,14.09961a14.16758,14.16758,0,0,1-10.19922,13.72461,15.0147,15.0147,0,0,1,3.52441,4.79981c2.10059,4.27441,3.52539,8.999,7.9502,8.999a5.82906,5.82906,0,0,0,2.02441-.375l-.97461,8.9248a24.54723,24.54723,0,0,1-5.02441.67481c-6,0-9.4502-2.32422-12.97461-10.34961-1.5-3.59961-3.60059-9.89941-6.375-9.89941H52.50433v20.02441H39.97992Zm12.52441,9.0752v12.44922h4.499c3.60059,0,7.79981-1.125,7.79981-6.52539,0-4.42481-2.84961-5.92383-6.29981-5.92383Z"/><path class="cls-3" d="M83.70453,217.4894h26.09863V226.339H102.978v32.92383h6.8252v8.84961H83.70453v-8.84961h6.749V226.339h-6.749Z"/><path class="cls-3" d="M113.77972,242.088c0-18.22364,9.67481-25.49805,23.249-25.49805,13.34961,0,23.02442,7.27441,23.02442,25.49805,0,20.25-9.97461,26.9248-23.02442,26.9248C123.45453,269.01284,113.77972,261.73745,113.77972,242.088Zm33.44824,0c0-12.59864-4.94922-16.64844-10.34961-16.64844-5.39941,0-10.27441,4.0498-10.27441,16.64844,0,14.02441,4.875,18.07519,10.27441,18.07519C142.27874,260.16323,147.228,256.11245,147.228,242.088Z"/></svg>