<?xml version="1.0" encoding="utf-8"?>
<!-- Generator: Adobe Illustrator 25.2.0, SVG Export Plug-In . SVG Version: 6.00 Build 0)  -->
<svg version="1.1" id="Layer_1" xmlns="http://www.w3.org/2000/svg" xmlns:xlink="http://www.w3.org/1999/xlink" x="0px" y="0px"
	 viewBox="0 0 200.0330811 266.0585938" style="enable-background:new 0 0 200.0330811 266.0585938;" xml:space="preserve">
<style type="text/css">
	.st0{fill:#A453B9;}
	.st1{fill:#FFFFFF;}
	.st2{fill:#344845;}
	.st3{fill:#D13306;}
	.st4{fill:#004D93;}
	.st5{fill:#0081BE;}
	.st6{fill:#1167F1;}
	.st7{fill:#FFC400;}
	.st8{fill:#FF7A3D;}
	.st9{fill:#00A580;}
	.st10{fill:#53C3D0;}
	.st11{fill:#671C4C;}
	.st12{fill:#00E3C2;}
	.st13{fill:#00B056;}
	.st14{fill:#BC2A46;}
	.st15{fill:#FF192E;}
</style>
<g>
	<path class="st10" d="M180.0165405,165h-160c-10.999999,0-20-9-20-20V20c0-11,9-20,20-20h160c11,0,20,9,20,20v125
		C200.0165405,156,191.0165405,165,180.0165405,165z"/>
	<path class="st1" d="M0,96.2905426c13.2939739,0,25.9423542-5.0078659,33.3375053-8.6219788
		c7.3971596,3.6131058,20.0465469,8.6219788,33.341526,8.6219788c13.2929688,0,25.9413528-5.0078659,33.3365021-8.6219788
		c7.3961563,3.6141129,20.0445328,8.6219788,33.3385162,8.6219788c13.2939606,0,25.9423523-5.0078659,33.3374939-8.6219788
		c7.397171,3.6131058,20.0465546,8.6219788,33.3415375,8.6219788V76.3809509
		c-10.6573029,0-23.0170898-6.1150284-26.8514252-8.4540405l-6.4800568-3.9660721l-6.4720154,3.9489746
		c-3.8624878,2.3561096-16.2202454,8.471138-26.8755341,8.471138s-23.0140686-6.1150284-26.8484039-8.4540405l-6.4901123-4.0093117
		l-6.4911194,4.0103188c-0.1367645,0.084465-14.0421371,8.4530334-26.8453827,8.4530334
		c-10.6573029,0-23.0170746-6.1150284-26.8514137-8.4540405l-6.4800568-3.9660721l-6.4720135,3.9489746
		C23.0130558,70.2659225,10.6552906,76.3809509,0,76.3809509V96.2905426z"/>
	<g>
		<path class="st2" d="M39.9799156,214.5351562h20.8486328c9.8994179,0,16.5742226,4.7998047,16.5742226,14.0996094
			c0,7.5742188-5.1748047,12.1494141-10.1992188,13.7246094c1.5,1.2744141,2.625,3,3.5244141,4.7998047
			c2.1005859,4.2744141,3.5253906,8.9990234,7.9501953,8.9990234c1.125,0,2.0244141-0.375,2.0244141-0.375l-0.9746094,8.9248047
			c0,0-2.7001953,0.6748047-5.0244141,0.6748047c-6,0-9.4501953-2.3242188-12.9746132-10.3496094
			c-1.5-3.5996094-3.6005859-9.8994141-6.375-9.8994141h-2.8496094v20.0244141H39.9799156V214.5351562z M52.5043297,223.6103516
			v12.4492188h4.4990234c3.6005859,0,7.7998085-1.125,7.7998085-6.5253906c0-4.4248047-2.8496132-5.9238281-6.2998085-5.9238281
			H52.5043297z"/>
		<path class="st2" d="M83.7045288,214.5351562h26.0986328v8.8496094h-6.8251953v32.9238281h6.8251953v8.8496094H83.7045288
			v-8.8496094h6.7490234v-32.9238281h-6.7490234V214.5351562z"/>
		<path class="st2" d="M113.7797241,239.1337891c0-18.2236328,9.6748047-25.4980469,23.2490234-25.4980469
			c13.3496094,0,23.0244141,7.2744141,23.0244141,25.4980469c0,20.25-9.9746094,26.9248047-23.0244141,26.9248047
			C123.4545288,266.0585938,113.7797241,258.7832031,113.7797241,239.1337891z M147.2279663,239.1337891
			c0-12.5986328-4.9492188-16.6484375-10.3496094-16.6484375c-5.3994141,0-10.2744141,4.0498047-10.2744141,16.6484375
			c0,14.0244141,4.875,18.0751953,10.2744141,18.0751953C142.2787476,257.2089844,147.2279663,253.1582031,147.2279663,239.1337891z
			"/>
	</g>
</g>
</svg>
