<svg xmlns="http://www.w3.org/2000/svg" width="2482.876" height="775.926"><path d="M527.091 1997.841a53.162 52.727 0 0 0-20.373 5.157l-278.007 132.836a53.162 52.727 0 0 0-28.764 35.767l-68.588 298.383a53.162 52.727 0 0 0 7.219 40.426 53.162 52.727 0 0 0 3.021 4.195l192.428 239.254a53.162 52.727 0 0 0 41.562 19.84l308.588-.07a53.162 52.727 0 0 0 41.565-19.805l192.355-239.29a53.162 52.727 0 0 0 10.276-44.62l-68.694-298.383a53.162 52.727 0 0 0-28.763-35.77L552.87 2002.998a53.162 52.727 0 0 0-25.778-5.157zm.41 57.243-.001.002a45.316 44.945 0 0 1 21.972 4.394l237.014 113.172a45.316 44.945 0 0 1 24.52 30.49l58.556 254.35a45.316 44.945 0 0 1-8.76 38.037l-163.966 203.974a45.316 44.945 0 0 1-35.432 16.883l-263.047.059a45.316 44.945 0 0 1-35.432-16.91l-164.029-203.946a45.316 44.945 0 0 1-2.576-3.578 45.316 44.945 0 0 1-6.152-34.46l58.464-254.348a45.316 44.945 0 0 1 24.518-30.49l236.984-113.235a45.316 44.945 0 0 1 17.368-4.394z" style="fill:#fff;fill-opacity:1;stroke:#fff;stroke-width:0;stroke-miterlimit:4;stroke-dasharray:none;stroke-opacity:1" transform="translate(-130.023 -1997.773)"/><path d="M527.855 2104.683v.002a38.519 38.204 0 0 0-14.762 3.735l-201.433 96.247a38.519 38.204 0 0 0-20.84 25.917l-49.697 216.195a38.519 38.204 0 0 0 5.23 29.29 38.519 38.204 0 0 0 2.19 3.042l139.425 173.352a38.519 38.204 0 0 0 30.116 14.374l223.587-.052a38.519 38.204 0 0 0 30.116-14.35l139.373-173.377a38.519 38.204 0 0 0 7.445-32.332l-49.771-216.195a38.519 38.204 0 0 0-20.842-25.916l-201.46-96.195a38.519 38.204 0 0 0-18.677-3.737zm1.373 68.121c2.039-.103 4.071.305 5.91 1.188l63.75 30.574a12.15 12.15 0 0 1 6.596 8.236l15.748 68.717a12.1 12.1 0 0 1-2.355 10.276l-44.102 55.107a12.22 12.22 0 0 1-9.531 4.56l-70.752.018a12.2 12.2 0 0 1-9.53-4.57l-44.119-55.098a12 12 0 0 1-.693-.967 12.1 12.1 0 0 1-1.654-9.308l15.724-68.717a12.15 12.15 0 0 1 6.596-8.236l63.742-30.592a12.2 12.2 0 0 1 4.67-1.188zm-103.5 207c2.039-.103 4.071.305 5.91 1.188l63.75 30.574a12.15 12.15 0 0 1 6.596 8.236l15.748 68.717a12.1 12.1 0 0 1-2.355 10.276l-44.102 55.107a12.22 12.22 0 0 1-9.531 4.56l-70.752.018a12.2 12.2 0 0 1-9.53-4.57l-44.119-55.098a12 12 0 0 1-.693-.967 12.1 12.1 0 0 1-1.654-9.308l15.724-68.717a12.15 12.15 0 0 1 6.596-8.236l63.742-30.592a12.2 12.2 0 0 1 4.67-1.188zm207 0c2.039-.103 4.071.305 5.91 1.188l63.75 30.574a12.15 12.15 0 0 1 6.596 8.236l15.748 68.717a12.1 12.1 0 0 1-2.355 10.276l-44.102 55.107a12.22 12.22 0 0 1-9.531 4.56l-70.752.018a12.2 12.2 0 0 1-9.53-4.57l-44.119-55.098a12 12 0 0 1-.693-.967 12.1 12.1 0 0 1-1.654-9.308l15.724-68.717a12.15 12.15 0 0 1 6.596-8.236l63.742-30.592a12.2 12.2 0 0 1 4.67-1.188z" style="fill:#fff;fill-opacity:1;stroke:#fff;stroke-width:0;stroke-miterlimit:4;stroke-dasharray:none;stroke-opacity:1" transform="translate(-130.023 -1997.773)"/><path d="M1003.562 2706.801h162.108v-313.35l227.314 313.35h197.429l-253.578-335.99 243.616-306.104h-197.429l-217.352 287.086v-287.086h-162.108zm745.073 9.962c155.77 0 258.106-87.846 258.106-219.163 0-106.865-65.206-177.505-153.052-186.561l153.086-158.486 3.89-87.846H1580.69v134.939h210.543l-123.2 127.694v88.752c15.395-5.433 44.376-9.056 68.828-9.056 68.828 0 111.393 32.603 111.393 86.035 0 54.338-42.565 86.941-102.337 86.941-47.093 0-90.936-21.735-112.671-53.432l-103.242 101.43c52.527 57.056 128.067 88.753 218.63 88.753m258.04-9.962h162.11v-313.35l227.313 313.35h197.429l-253.578-335.99 243.616-306.104h-197.429l-217.352 287.086v-287.086h-162.108z" aria-label="K3K" style="font-weight:800;font-size:904.317px;font-family:Outfit;-inkscape-font-specification:&quot;Outfit Ultra-Bold&quot;;font-variant-ligatures:no-common-ligatures;letter-spacing:-72.9313px;fill:#fff;fill-opacity:1;stroke-width:8.31636" transform="translate(-130.023 -1997.773)"/></svg>