<svg xmlns="http://www.w3.org/2000/svg" width="1017.965" height="1289.699"><path d="M535.77 1997.842a53.162 52.727 0 0 0-20.372 5.154L237.39 2135.832a53.162 52.727 0 0 0-28.764 35.77l-68.588 298.383a53.162 52.727 0 0 0 7.219 40.425 53.162 52.727 0 0 0 3.022 4.196l192.427 239.253a53.162 52.727 0 0 0 41.563 19.84l308.588-.07a53.162 52.727 0 0 0 41.564-19.805l192.356-239.29a53.162 52.727 0 0 0 10.275-44.622l-68.693-298.38a53.162 52.727 0 0 0-28.764-35.77L561.55 2002.996a53.162 52.727 0 0 0-25.777-5.154zm.41 57.242-.001.002a45.316 44.945 0 0 1 21.973 4.395l237.013 113.171a45.316 44.945 0 0 1 24.52 30.49l58.556 254.348a45.316 44.945 0 0 1-8.76 38.04l-163.966 203.974a45.316 44.945 0 0 1-35.432 16.88l-263.047.061a45.316 44.945 0 0 1-35.431-16.912l-164.03-203.945a45.316 44.945 0 0 1-2.576-3.576 45.316 44.945 0 0 1-6.152-34.461l58.465-254.348a45.316 44.945 0 0 1 24.52-30.492l236.982-113.232a45.316 44.945 0 0 1 17.367-4.395z" style="fill:#000;fill-opacity:1;stroke:#fff;stroke-width:0;stroke-miterlimit:4;stroke-dasharray:none;stroke-opacity:1" transform="translate(-29.562 -1997.774)"/><path d="M536.534 2104.684v.002a38.519 38.204 0 0 0-14.761 3.734l-201.434 96.246a38.519 38.204 0 0 0-20.84 25.916l-49.695 216.198a38.519 38.204 0 0 0 5.228 29.29 38.519 38.204 0 0 0 2.19 3.04l139.426 173.351a38.519 38.204 0 0 0 30.115 14.377l223.588-.053a38.519 38.204 0 0 0 30.115-14.35l139.373-173.378a38.519 38.204 0 0 0 7.445-32.33l-49.771-216.196a38.519 38.204 0 0 0-20.842-25.916l-201.459-96.197a38.519 38.204 0 0 0-18.678-3.734zm1.373 68.12c2.04-.103 4.071.304 5.91 1.186l63.75 30.577a12.15 12.15 0 0 1 6.596 8.236l15.748 68.717a12.1 12.1 0 0 1-2.355 10.275l-44.102 55.106a12.22 12.22 0 0 1-9.531 4.562l-70.752.016c-3.709 0-7.216-1.68-9.53-4.569l-44.118-55.097a12 12 0 0 1-.694-.967 12.1 12.1 0 0 1-1.654-9.31l15.725-68.716a12.16 12.16 0 0 1 6.595-8.238l63.742-30.59a12.2 12.2 0 0 1 4.67-1.187zm-103.5 207c2.04-.103 4.071.304 5.91 1.186l63.75 30.577a12.15 12.15 0 0 1 6.596 8.236l15.748 68.717a12.1 12.1 0 0 1-2.355 10.275l-44.102 55.106a12.22 12.22 0 0 1-9.531 4.562l-70.752.016c-3.709 0-7.216-1.68-9.53-4.569l-44.118-55.097a12 12 0 0 1-.694-.967 12.1 12.1 0 0 1-1.654-9.31l15.725-68.716a12.16 12.16 0 0 1 6.595-8.238l63.742-30.59a12.2 12.2 0 0 1 4.67-1.187zm207 0c2.04-.103 4.071.304 5.91 1.186l63.75 30.577a12.15 12.15 0 0 1 6.596 8.236l15.748 68.717a12.1 12.1 0 0 1-2.355 10.275l-44.102 55.106a12.22 12.22 0 0 1-9.531 4.562l-70.752.016c-3.709 0-7.216-1.68-9.53-4.569l-44.118-55.097a12 12 0 0 1-.694-.967 12.1 12.1 0 0 1-1.654-9.31l15.725-68.716a12.16 12.16 0 0 1 6.595-8.238l63.742-30.59a12.2 12.2 0 0 1 4.67-1.187z" style="fill:#000;fill-opacity:1;stroke:#fff;stroke-width:0;stroke-miterlimit:4;stroke-dasharray:none;stroke-opacity:1" transform="translate(-29.562 -1997.774)"/><path d="M29.562 3281.094H133.35v-200.62l145.536 200.62h126.402L242.938 3065.98l155.973-195.982H272.51L133.35 3053.802v-183.805H29.56Zm477.028 6.378c99.73 0 165.25-56.243 165.25-140.318 0-68.42-41.747-113.646-97.99-119.444l98.013-101.47 2.49-56.243H399.065v86.394h134.8l-78.88 81.756v56.823c9.858-3.48 28.412-5.798 44.068-5.798 44.066 0 71.318 20.873 71.318 55.083 0 34.79-27.252 55.663-65.52 55.663-30.151 0-58.221-13.915-72.137-34.21l-66.1 64.941c33.63 36.53 81.994 56.823 139.976 56.823m165.21-6.378h103.788v-200.62l145.536 200.62h126.403L885.175 3065.98l155.974-195.982H914.746l-139.158 183.805v-183.805H671.8Z" aria-label="K3K" style="font-weight:800;font-size:904.317px;font-family:Outfit;-inkscape-font-specification:&quot;Outfit Ultra-Bold&quot;;font-variant-ligatures:no-common-ligatures;letter-spacing:-72.9313px;fill:#000;fill-opacity:1;stroke-width:8.31638" transform="translate(-29.562 -1997.774)"/></svg>