<svg xmlns="http://www.w3.org/2000/svg" width="1017.965" height="1289.699"><path d="M527.092 1997.842a53.162 52.727 0 0 0-20.374 5.155L228.71 2135.833a53.162 52.727 0 0 0-28.764 35.769l-68.587 298.382a53.162 52.727 0 0 0 7.218 40.426 53.162 52.727 0 0 0 3.022 4.196l192.427 239.253a53.162 52.727 0 0 0 41.564 19.84l308.587-.07a53.162 52.727 0 0 0 41.565-19.805l192.355-239.29a53.162 52.727 0 0 0 10.276-44.621l-68.694-298.382a53.162 52.727 0 0 0-28.764-35.77L552.87 2002.997a53.162 52.727 0 0 0-25.777-5.155z" style="fill:#2453ff;fill-opacity:1;stroke:#fff;stroke-width:0;stroke-miterlimit:4;stroke-dasharray:none;stroke-opacity:1" transform="translate(-20.882 -1997.774)"/><path d="M527.501 2055.084a45.316 44.945 0 0 0-17.367 4.395l-236.983 113.233a45.316 44.945 0 0 0-24.52 30.49l-58.464 254.349a45.316 44.945 0 0 0 6.152 34.46 45.316 44.945 0 0 0 2.577 3.578l164.03 203.945a45.316 44.945 0 0 0 35.43 16.912l263.048-.06a45.316 44.945 0 0 0 35.43-16.883l163.968-203.974a45.316 44.945 0 0 0 8.76-38.038l-58.556-254.348a45.316 44.945 0 0 0-24.52-30.49L549.474 2059.48a45.316 44.945 0 0 0-21.974-4.395z" style="fill:#fff;fill-opacity:1;stroke:#fff;stroke-width:0;stroke-miterlimit:4;stroke-dasharray:none;stroke-opacity:1" transform="translate(-20.882 -1997.774)"/><path d="M527.855 2104.685a38.519 38.204 0 0 0-14.762 3.735l-201.433 96.247a38.519 38.204 0 0 0-20.84 25.916l-49.696 216.196a38.519 38.204 0 0 0 5.23 29.29 38.519 38.204 0 0 0 2.189 3.041l139.425 173.352a38.519 38.204 0 0 0 30.115 14.376l223.589-.053a38.519 38.204 0 0 0 30.115-14.35l139.373-173.377a38.519 38.204 0 0 0 7.446-32.332l-49.773-216.194a38.519 38.204 0 0 0-20.841-25.917l-201.46-96.196a38.519 38.204 0 0 0-18.677-3.736z" style="fill:#2453ff;fill-opacity:1;stroke:#fff;stroke-width:0;stroke-miterlimit:4;stroke-dasharray:none;stroke-opacity:1" transform="translate(-20.882 -1997.774)"/><path d="M425.728 2379.805c-1.62.082-3.208.485-4.67 1.187l-63.742 30.591a12.15 12.15 0 0 0-6.595 8.237l-15.726 68.716a12.1 12.1 0 0 0 1.655 9.309q.322.5.693.967l44.12 55.099a12.2 12.2 0 0 0 9.53 4.568l70.751-.017c3.708 0 7.215-1.676 9.53-4.56l44.103-55.107a12.1 12.1 0 0 0 2.355-10.276l-15.749-68.716a12.15 12.15 0 0 0-6.595-8.237l-63.75-30.575a12.2 12.2 0 0 0-5.91-1.187zm207 0c-1.62.082-3.208.485-4.67 1.187l-63.742 30.591a12.15 12.15 0 0 0-6.595 8.237l-15.726 68.716a12.1 12.1 0 0 0 1.655 9.309q.323.5.693.967l44.12 55.099a12.2 12.2 0 0 0 9.53 4.568l70.751-.017c3.708 0 7.215-1.676 9.53-4.56l44.103-55.107a12.1 12.1 0 0 0 2.355-10.276l-15.749-68.716a12.15 12.15 0 0 0-6.595-8.237l-63.75-30.575a12.2 12.2 0 0 0-5.91-1.187zm-103.5-207c-1.62.082-3.208.485-4.67 1.187l-63.742 30.591a12.15 12.15 0 0 0-6.595 8.237l-15.726 68.716a12.1 12.1 0 0 0 1.655 9.309q.322.5.693.967l44.12 55.099a12.2 12.2 0 0 0 9.53 4.568l70.751-.017c3.708 0 7.215-1.676 9.53-4.56l44.103-55.107a12.1 12.1 0 0 0 2.355-10.276l-15.749-68.716a12.15 12.15 0 0 0-6.595-8.237l-63.75-30.575a12.2 12.2 0 0 0-5.91-1.187z" style="fill:#fff;fill-opacity:1;stroke:#fff;stroke-width:0;stroke-miterlimit:4;stroke-dasharray:none;stroke-opacity:1" transform="translate(-20.882 -1997.774)"/><path d="M29.562 3281.094H133.35v-200.62l145.536 200.62h126.402L242.938 3065.98l155.973-195.982H272.51L133.35 3053.802v-183.805H29.56Zm477.028 6.378c99.73 0 165.25-56.243 165.25-140.318 0-68.42-41.747-113.646-97.99-119.444l98.013-101.47 2.49-56.243H399.065v86.394h134.8l-78.88 81.756v56.823c9.858-3.48 28.412-5.798 44.068-5.798 44.066 0 71.318 20.873 71.318 55.083 0 34.79-27.252 55.663-65.52 55.663-30.151 0-58.221-13.915-72.137-34.21l-66.1 64.941c33.63 36.53 81.994 56.823 139.976 56.823m165.21-6.378h103.788v-200.62l145.536 200.62h126.403L885.175 3065.98l155.974-195.982H914.746l-139.158 183.805v-183.805H671.8Z" aria-label="K3K" style="font-weight:800;font-size:904.317px;font-family:Outfit;-inkscape-font-specification:&quot;Outfit Ultra-Bold&quot;;font-variant-ligatures:no-common-ligatures;letter-spacing:-72.9313px;fill:#0a112b;fill-opacity:1;stroke-width:8.31638" transform="translate(-29.562 -1997.774)"/></svg>