<?xml version="1.0" encoding="utf-8"?>
<!-- Generator: Adobe Illustrator 26.0.0, SVG Export Plug-In . SVG Version: 6.00 Build 0)  -->
<svg version="1.1" id="Layer_1" xmlns="http://www.w3.org/2000/svg" xmlns:xlink="http://www.w3.org/1999/xlink" x="0px" y="0px"
	 viewBox="0 0 401.0451355 165" style="enable-background:new 0 0 401.0451355 165;" xml:space="preserve">
<style type="text/css">
	.st0{fill:#FFFFFF;}
</style>
<g>
	<path class="st0" d="M180,0H20C9,0,0,9,0,20v125c0,11,9,20,20,20h160c11,0,20-9,20-20V20C200,9,191,0,180,0z
		 M170.1542969,98.7451172C169.0273438,100.1699219,142.0742188,133.6386719,100,133.6386719
		c-25.0241699,0-44.6975098-11.8388672-56.7714844-21.7341309v2.7585449c0,4.1425781-3.3574219,7.5-7.5,7.5s-7.5-3.3574219-7.5-7.5
		V94.0927734c0-0.0231934,0.003418-0.0456543,0.003418-0.0688477c0.0014648-0.1462402,0.012207-0.2915039,0.0219727-0.4372559
		c0.0073242-0.105957,0.010498-0.2128906,0.0219727-0.3173828c0.0129395-0.1174316,0.0349121-0.2336426,0.0534668-0.3503418
		c0.0202637-0.1289062,0.0368652-0.2587891,0.0637207-0.3852539c0.0178223-0.0842285,0.043457-0.1665039,0.0644531-0.2502441
		c0.0378418-0.1533203,0.0739746-0.3071289,0.1210938-0.456543c0.0224609-0.0710449,0.0522461-0.1396484,0.0769043-0.2099609
		c0.0549316-0.1569824,0.1083984-0.3144531,0.1730957-0.4663086c0.0458984-0.107666,0.1018066-0.2111816,0.152832-0.3168945
		c0.0529785-0.1096191,0.1015625-0.2219238,0.159668-0.3286133c0.0778809-0.1430664,0.1672363-0.2807617,0.2548828-0.4194336
		c0.0410156-0.0646973,0.0773926-0.1325684,0.1203613-0.1958008c0.0864258-0.1276855,0.1833496-0.2492676,0.2783203-0.3723145
		c0.0544434-0.0703125,0.1044922-0.1437988,0.161377-0.2121582c0.0812988-0.0979004,0.1713867-0.1901855,0.2585449-0.2844238
		c0.0812988-0.0883789,0.1599121-0.1791992,0.2453613-0.2634277c0.0744629-0.0734863,0.1555176-0.1416016,0.2336426-0.2124023
		c0.1086426-0.0986328,0.2165527-0.1977539,0.3308105-0.2897949c0.0180664-0.0146484,0.0336914-0.0310059,0.0517578-0.0454102
		c0.0598145-0.0473633,0.1235352-0.0859375,0.1843262-0.1311035c0.1213379-0.090332,0.2426758-0.1799316,0.3693848-0.2629395
		c0.0874023-0.0571289,0.1767578-0.1083984,0.265625-0.161377c0.1218262-0.0727539,0.2436523-0.1447754,0.3696289-0.2104492
		c0.0976562-0.0510254,0.1972656-0.0964355,0.2966309-0.1428223c0.121582-0.0568848,0.2431641-0.1132812,0.3684082-0.1635742
		c0.1064453-0.0427246,0.2141113-0.0800781,0.3217773-0.1176758c0.1220703-0.0427246,0.2438965-0.0849609,0.3686523-0.121582
		c0.114502-0.0334473,0.2297363-0.0610352,0.3452148-0.0888672c0.121582-0.0292969,0.2429199-0.0588379,0.3666992-0.0820312
		c0.1235352-0.0234375,0.2475586-0.0397949,0.3718262-0.0568848c0.1181641-0.0161133,0.2358398-0.0334473,0.3557129-0.0441895
		c0.1347656-0.0117188,0.269043-0.015625,0.4038086-0.0202637c0.088623-0.0031738,0.175293-0.0134277,0.2646484-0.0134277
		h20.5703125c4.1425781,0,7.5,3.3574219,7.5,7.5s-3.3574219,7.5-7.5,7.5h-1.840332
		C64.7419434,109.6113281,80.6201172,118.6386719,100,118.6386719c34.6855469,0,58.1660156-28.9189453,58.3994141-29.2109375
		c2.578125-3.2324219,7.2929688-3.7714844,10.5322266-1.2011719
		C172.1699219,90.7998047,172.7197266,95.5009766,170.1542969,98.7451172z M101.3149414,77.498291l3.4689941-19.465332
		c11.3449707,2.3674316,19.8681641,12.4226074,19.8681641,24.470459c0,13.8071289-11.1928711,25-25,25
		c-1.7263184,0-3.4116211-0.1748047-5.0393066-0.5080566l18.0476074-29.4970703H101.3149414z M86.6437988,87.4746094H97.989502
		l-3.4748535,19.4980469c-11.3422852-2.3693848-19.8625488-12.4233398-19.8625488-24.4692383c0-13.8071289,11.1928711-25,25-25
		c1.7197266,0,3.3986816,0.1743164,5.0205078,0.5048828L86.6437988,87.4746094z M171.7714844,70.9072266
		c0,0.0231934-0.003418,0.0456543-0.003418,0.0688477c-0.0014648,0.1462402-0.012207,0.2915039-0.0219727,0.4372559
		c-0.0073242,0.105957-0.010498,0.2128906-0.0219727,0.3173828c-0.0129395,0.1174316-0.0349121,0.2336426-0.0534668,0.3503418
		c-0.0202637,0.1289062-0.0368652,0.2587891-0.0637207,0.3852539c-0.0178223,0.0842285-0.043457,0.1665039-0.0644531,0.2502441
		c-0.0378418,0.1533203-0.0739746,0.307373-0.1210938,0.456543c-0.0224609,0.0712891-0.0524902,0.1401367-0.0771484,0.2106934
		c-0.0546875,0.1564941-0.1081543,0.3137207-0.1728516,0.465332c-0.0458984,0.1079102-0.1020508,0.2119141-0.1530762,0.3178711
		c-0.0529785,0.109375-0.1015625,0.2216797-0.159668,0.328125c-0.0773926,0.142334-0.1662598,0.2792969-0.253418,0.4172363
		c-0.0415039,0.0651855-0.078125,0.1337891-0.121582,0.1977539c-0.0864258,0.1276855-0.1833496,0.2492676-0.2783203,0.3723145
		c-0.0544434,0.0703125-0.1044922,0.1437988-0.161377,0.2121582c-0.0812988,0.0979004-0.1713867,0.1901855-0.2585449,0.2844238
		c-0.0812988,0.0883789-0.1599121,0.1791992-0.2453613,0.2634277c-0.0744629,0.0734863-0.1555176,0.1416016-0.2336426,0.2124023
		c-0.1086426,0.0986328-0.2165527,0.1977539-0.3308105,0.2897949c-0.0180664,0.0146484-0.0336914,0.0310059-0.0517578,0.0454102
		c-0.0244141,0.0192871-0.0517578,0.0314941-0.0761719,0.050293c-0.6152344,0.4750977-1.3054199,0.8549805-2.0510254,1.1218262
		c-0.0559082,0.0200195-0.1103516,0.0424805-0.1665039,0.0610352c-0.3376465,0.1118164-0.6855469,0.1982422-1.0424805,0.2614746
		c-0.072998,0.0129395-0.1452637,0.0224609-0.2182617,0.0332031c-0.3552246,0.0522461-0.7155762,0.0881348-1.0852051,0.088623
		c-0.0024414,0-0.005127,0.0007324-0.0078125,0.0007324c-0.0007324,0-0.0014648,0-0.0024414,0c-0.0007324,0-0.0014648,0-0.0024414,0
		h-20.5703125c-4.1425781,0-7.5-3.3574219-7.5-7.5s3.3574219-7.5,7.5-7.5h1.840332
		C135.2580566,55.3886719,119.3798828,46.3613281,100,46.3613281c-34.6855469,0-58.1660156,28.9189453-58.3994141,29.2109375
		c-2.5771484,3.2324219-7.2929688,3.7724609-10.5322266,1.2011719c-3.2382812-2.5732422-3.7880859-7.2744141-1.2226562-10.5185547
		C30.9726562,64.8300781,57.9257812,31.3613281,100,31.3613281c25.0241699,0,44.6975098,11.8388672,56.7714844,21.7341309
		v-2.7585449c0-4.1425781,3.3574219-7.5,7.5-7.5s7.5,3.3574219,7.5,7.5V70.9072266z"/>
	<g>
		<path class="st0" d="M230.2726593,81.7866211c0-18.2236328,9.6748047-25.4980469,23.2490234-25.4980469
			c13.3496246,0,23.0244293,7.2744141,23.0244293,25.4980469c0,20.25-9.9746094,26.9248047-23.0244293,26.9248047
			C239.947464,108.7114258,230.2726593,101.4360352,230.2726593,81.7866211z M263.7209167,81.7866211
			c0-12.5986328-4.9492188-16.6484375-10.3496246-16.6484375c-5.3994141,0-10.2744141,4.0498047-10.2744141,16.6484375
			c0,14.0244141,4.875,18.0751953,10.2744141,18.0751953C258.771698,99.8618164,263.7209167,95.8110352,263.7209167,81.7866211z"/>
		<path class="st0" d="M283.3722839,57.1879883h21.2236328c9.9746094,0,17.1748047,5.0253906,17.1748047,15.1494141
			c0,11.0244141-6.9755859,17.3994141-17.1748047,17.3994141h-8.6992188v18.0742188h-12.5244141V57.1879883z M295.896698,66.2631836
			v14.3994141h5.8496094c3.8994141,0,7.4248047-2.1005859,7.4248047-7.5751953c0-5.1748047-3.5253906-6.8242188-7.4248047-6.8242188
			H295.896698z"/>
		<path class="st0" d="M327.4718933,57.1879883h13.4238281l13.2744141,25.1240234c1.125,2.1748047,2.625,6,3.8251953,9h0.2998047
			c-0.1494141-2.8505859-0.5244141-6.9003906-0.5244141-9.8251953V57.1879883h10.2744141v50.6230469h-13.125L341.1213074,82.762207
			c-1.2753906-2.25-2.625-5.5498047-3.6748047-8.25h-0.3007812c0.2255859,2.8496094,0.6005859,6.2246094,0.6005859,9v24.2988281
			h-10.2744141V57.1879883z"/>
		<path class="st0" d="M374.9465027,57.1879883h26.0986328v8.8496094h-6.8242188v32.9238281h6.8242188v8.8496094h-26.0986328
			v-8.8496094h6.7490234V66.0375977h-6.7490234V57.1879883z"/>
	</g>
</g>
</svg>
