<?xml version="1.0" encoding="utf-8"?>
<!-- Generator: Adobe Illustrator 25.2.0, SVG Export Plug-In . SVG Version: 6.00 Build 0)  -->
<svg version="1.1" id="Layer_1" xmlns="http://www.w3.org/2000/svg" xmlns:xlink="http://www.w3.org/1999/xlink" x="0px" y="0px"
	 viewBox="0 0 239.3974609 266.4541016" style="enable-background:new 0 0 239.3974609 266.4541016;" xml:space="preserve">
<style type="text/css">
	.st0{fill:#A453B9;}
	.st1{fill:#FFFFFF;}
	.st2{fill:#344845;}
	.st3{fill:#D13306;}
	.st4{fill:#004D93;}
	.st5{fill:#0081BE;}
	.st6{fill:#1167F1;}
	.st7{fill:#FFC400;}
	.st8{fill:#FF7A3D;}
	.st9{fill:#00A580;}
	.st10{fill:#53C3D0;}
	.st11{fill:#671C4C;}
	.st12{fill:#00E3C2;}
	.st13{fill:#00B056;}
	.st14{fill:#BC2A46;}
	.st15{fill:#FF192E;}
</style>
<g>
	<path class="st4" d="M199.6987305,165h-160c-11,0-20-9-20-20V20c0-11,9-20,20-20h160c11,0,20,9,20,20v125
		C219.6987305,156,210.6987305,165,199.6987305,165z"/>
	<g>
		<path class="st1" d="M67.1757812,106.6396484V79.3925781h90.9604492
			c-2.987793,5.4580078-4.6884766,11.7177734-4.6884766,18.3662109v13.2089844
			c3.2719727-0.9838867,6.123291-2.234375,8.0161133-3.1591797l6.5839844-3.2177734l5.3999023,2.637207v-9.4692383
			c0-10.1269531,8.2392578-18.3662109,18.3662109-18.3662109v-20h-70.4760742V47.4648438h10v-20h-10H57.3920898H47.1757812v20
			h10.2163086v11.9277344H47.1757812v53.1425781c6.8833008,0,13.9960938-2.9619141,17.6079102-4.7265625L67.1757812,106.6396484z
			 M77.3920898,47.4648438h23.9458008v11.9277344H77.3920898V47.4648438z"/>
		<path class="st1" d="M172.4384766,112.2998047l-4.3901367-2.1445312l-4.3891602,2.1455078
			c-4.0004883,1.9550781-11.8891602,5.234375-19.7788086,5.234375c-7.8886719,0-15.7788086-3.2792969-19.7797852-5.234375
			l-4.390625-2.1455078l-4.3901367,2.1455078c-4.0004883,1.9550781-11.8886719,5.234375-19.7773438,5.234375
			c-7.8862305,0-15.7802734-3.2802734-19.7836914-5.2353516l-4.3901367-2.1445312l-4.3891602,2.1455078
			c-4.0004883,1.9550781-11.9145508,5.234375-19.8037109,5.234375v20c9.0991211,0,17.6704102-2.5546875,24.1953125-5.2783203
			c6.527832,2.7236328,15.074707,5.2783203,24.1713867,5.2783203c9.0986328,0,17.6435547-2.5537109,24.168457-5.2773438
			c6.5253906,2.7236328,15.0712891,5.2773438,24.1694336,5.2773438c9.0996094,0,17.6455078-2.5546875,24.1704102-5.2783203
			c6.527832,2.7236328,15.074707,5.2783203,24.1708984,5.2783203v-20
			C184.3359375,117.5351562,176.4418945,114.2548828,172.4384766,112.2998047z"/>
	</g>
	<g>
		<path class="st2" d="M0,214.9306641h33.5234375v9.2998047H12.5244141v10.8740234h17.6240234v9.2998047H12.5244141v11.8496094
			h21.7490234v9.2998047H0V214.9306641z"/>
		<path class="st2" d="M40.7998047,214.9306641h21.2236328c9.9746094,0,17.1748047,5.0253906,17.1748047,15.1494141
			c0,11.0244141-6.9755859,17.3994141-17.1748047,17.3994141h-8.6992188v18.0742188H40.7998047V214.9306641z
			 M53.3242188,224.0058594v14.3994141h5.8496094c3.8994141,0,7.4248047-2.1005859,7.4248047-7.5751953
			c0-5.1748047-3.5253906-6.8242188-7.4248047-6.8242188H53.3242188z"/>
		<path class="st2" d="M82.6494141,214.9306641h26.0986328v8.8496094h-6.8242188v32.9238281h6.8242188v8.8496094H82.6494141
			v-8.8496094h6.7490234v-32.9238281h-6.7490234V214.9306641z"/>
		<path class="st2" d="M115.5742188,214.9306641h13.4238281l13.2744141,25.1240234c1.125,2.1748047,2.625,6,3.8251953,9h0.2998047
			c-0.1494141-2.8505859-0.5244141-6.9003906-0.5244141-9.8251953v-24.2988281h10.2744141v50.6230469h-13.125
			l-13.7988281-25.0488281c-1.2753906-2.25-2.625-5.5498047-3.6748047-8.25h-0.3007812
			c0.2255859,2.8496094,0.6005859,6.2246094,0.6005859,9v24.2988281h-10.2744141V214.9306641z"/>
		<path class="st2" d="M163.0488281,214.9306641h26.0986328v8.8496094h-6.8251953v32.9238281h6.8251953v8.8496094h-26.0986328
			v-8.8496094h6.7490234v-32.9238281h-6.7490234V214.9306641z"/>
		<path class="st2" d="M193.1240234,239.5292969c0-18.2236328,9.6748047-25.4980469,23.2490234-25.4980469
			c13.3496094,0,23.0244141,7.2744141,23.0244141,25.4980469c0,20.25-9.9746094,26.9248047-23.0244141,26.9248047
			C202.7988281,266.4541016,193.1240234,259.1787109,193.1240234,239.5292969z M226.5722656,239.5292969
			c0-12.5986328-4.9492188-16.6484375-10.3496094-16.6484375c-5.3994141,0-10.2744141,4.0498047-10.2744141,16.6484375
			c0,14.0244141,4.875,18.0751953,10.2744141,18.0751953C221.6230469,257.6044922,226.5722656,253.5537109,226.5722656,239.5292969z
			"/>
	</g>
</g>
</svg>
