<?xml version="1.0" encoding="utf-8"?>
<!-- Generator: Adobe Illustrator 26.0.0, SVG Export Plug-In . SVG Version: 6.00 Build 0)  -->
<svg version="1.1" id="Layer_1" xmlns="http://www.w3.org/2000/svg" xmlns:xlink="http://www.w3.org/1999/xlink" x="0px" y="0px"
	 viewBox="0 0 469.412384 165" style="enable-background:new 0 0 469.412384 165;" xml:space="preserve">
<style type="text/css">
	.st0{fill:#FFFFFF;}
</style>
<g>
	<path class="st0" d="M180,0H20C9,0,0,9,0,20v125c0,11,9,20,20,20h160c11,0,20-9,20-20V20C200,9,191,0,180,0z
		 M27.4770508,59.3925781h10.2163086V47.4648438H27.4770508v-20h10.2163086h63.9458008h10v20h-10v11.9277344h70.4760742v20
		c-10.1269531,0-18.3662109,8.2392578-18.3662109,18.3662109v9.4692383l-5.3999023-2.637207l-6.5839844,3.2177734
		c-1.8928223,0.9248047-4.7441406,2.175293-8.0161133,3.1591797V97.7587891c0-6.6484375,1.7006836-12.9082031,4.6884766-18.3662109
		H47.4770508v27.2470703l-2.3920898,1.1689453c-3.6118164,1.7646484-10.7246094,4.7265625-17.6079102,4.7265625V59.3925781z
		 M172.5229492,137.5351562c-9.0961914,0-17.6430664-2.5546875-24.1708984-5.2783203
		c-6.5249023,2.7236328-15.0708008,5.2783203-24.1704102,5.2783203c-9.0981445,0-17.644043-2.5537109-24.1694336-5.2773438
		c-6.5249023,2.7236328-15.0698242,5.2773438-24.168457,5.2773438c-9.0966797,0-17.6435547-2.5546875-24.1713867-5.2783203
		c-6.5249023,2.7236328-15.0961914,5.2783203-24.1953125,5.2783203v-20c7.8891602,0,15.8032227-3.2792969,19.8037109-5.234375
		l4.3891602-2.1455078l4.3901367,2.1445312c4.003418,1.9550781,11.8974609,5.2353516,19.7836914,5.2353516
		c7.8886719,0,15.7768555-3.2792969,19.7773438-5.234375l4.3901367-2.1455078l4.390625,2.1455078
		c4.0009766,1.9550781,11.8911133,5.234375,19.7797852,5.234375c7.8896484,0,15.7783203-3.2792969,19.7788086-5.234375
		l4.3891602-2.1455078l4.3901367,2.1445312c4.003418,1.9550781,11.8974609,5.2353516,19.7832031,5.2353516V137.5351562z"/>
	<rect x="57.6933594" y="47.4648438" class="st0" width="23.9458008" height="11.9277344"/>
</g>
<g>
	<path class="st0" d="M230.0149231,57.1879883h33.5234375v9.2998047h-20.9990234v10.8740234h17.6240234v9.2998047h-17.6240234
		v11.8496094h21.7490234v9.2998047h-34.2734375V57.1879883z"/>
	<path class="st0" d="M270.8147278,57.1879883h21.2236328c9.9746094,0,17.1748047,5.0253906,17.1748047,15.1494141
		c0,11.0244141-6.9755859,17.3994141-17.1748047,17.3994141h-8.6992188v18.0742188h-12.5244141V57.1879883z M283.3391418,66.2631836
		v14.3994141h5.8496094c3.8994141,0,7.4248047-2.1005859,7.4248047-7.5751953c0-5.1748047-3.5253906-6.8242188-7.4248047-6.8242188
		H283.3391418z"/>
	<path class="st0" d="M312.6643372,57.1879883H338.76297v8.8496094h-6.8242188v32.9238281h6.8242188v8.8496094h-26.0986328
		v-8.8496094h6.7490234V66.0375977h-6.7490234V57.1879883z"/>
	<path class="st0" d="M345.5891418,57.1879883H359.01297l13.2744141,25.1240234c1.125,2.1748047,2.625,6,3.8251953,9h0.2998047
		c-0.1494141-2.8505859-0.5244141-6.9003906-0.5244141-9.8251953V57.1879883h10.2744141v50.6230469h-13.125L359.2385559,82.762207
		c-1.2753906-2.25-2.625-5.5498047-3.6748047-8.25H355.26297c0.2255859,2.8496094,0.6005859,6.2246094,0.6005859,9v24.2988281
		h-10.2744141V57.1879883z"/>
	<path class="st0" d="M393.0637512,57.1879883h26.0986328v8.8496094h-6.8251953v32.9238281h6.8251953v8.8496094h-26.0986328
		v-8.8496094h6.7490234V66.0375977h-6.7490234V57.1879883z"/>
	<path class="st0" d="M423.1389465,81.7866211c0-18.2236328,9.6748047-25.4980469,23.2490234-25.4980469
		c13.3496094,0,23.0244141,7.2744141,23.0244141,25.4980469c0,20.25-9.9746094,26.9248047-23.0244141,26.9248047
		C432.8137512,108.7114258,423.1389465,101.4360352,423.1389465,81.7866211z M456.5871887,81.7866211
		c0-12.5986328-4.9492188-16.6484375-10.3496094-16.6484375c-5.3994141,0-10.2744141,4.0498047-10.2744141,16.6484375
		c0,14.0244141,4.875,18.0751953,10.2744141,18.0751953C451.63797,99.8618164,456.5871887,95.8110352,456.5871887,81.7866211z"/>
</g>
</svg>
