<svg id="Layer_1" data-name="Layer 1" xmlns="http://www.w3.org/2000/svg" viewBox="0 0 239.39746 269.01284"><defs><style>.cls-1{fill:#004d93;}.cls-2{fill:#fff;}.cls-3{fill:#344845;}</style></defs><rect class="cls-1" x="19.69873" width="200" height="165" rx="20"/><path class="cls-2" d="M67.17578,106.63965V79.39258h90.96045a38.13967,38.13967,0,0,0-4.68848,18.36621v13.209a54.28243,54.28243,0,0,0,8.01612-3.15918l6.584-3.21777,5.3999,2.63721V97.75879A18.38728,18.38728,0,0,1,191.814,79.39258v-20H121.33789V47.46484h10v-20H47.17578v20H57.39209V59.39258H47.17578v53.14258c6.8833,0,13.9961-2.96192,17.60791-4.72657ZM77.39209,47.46484h23.9458V59.39258H77.39209Z"/><path class="cls-2" d="M172.43848,112.2998l-4.39014-2.14453-4.38916,2.14551c-4.00049,1.95508-11.88916,5.23438-19.77881,5.23438-7.88867,0-15.77881-3.2793-19.77978-5.23438L119.71,110.15527l-4.39014,2.14551c-4.00048,1.95508-11.88867,5.23438-19.77734,5.23438-7.88623,0-15.78027-3.28028-19.78369-5.23536l-4.39014-2.14453-4.38916,2.14551c-4.00049,1.95508-11.91455,5.23438-19.80371,5.23438v20a64.07656,64.07656,0,0,0,24.19531-5.27832,63.97238,63.97238,0,0,0,24.17139,5.27832,63.93545,63.93545,0,0,0,24.16846-5.27735,63.94492,63.94492,0,0,0,24.16943,5.27735,63.94139,63.94139,0,0,0,24.17041-5.27832,63.97187,63.97187,0,0,0,24.1709,5.27832v-20C184.33594,117.53516,176.44189,114.25488,172.43848,112.2998Z"/><path class="cls-3" d="M0,217.4894H33.52344v9.29981h-20.999v10.874h17.624V246.963h-17.624v11.8496h21.749v9.29981H0Z"/><path class="cls-3" d="M40.7998,217.4894H62.02344c9.97461,0,17.1748,5.02539,17.1748,15.14942,0,11.02441-6.97558,17.39941-17.1748,17.39941H53.32422v18.07422H40.7998Zm12.52442,9.0752V240.964h5.84961c3.89941,0,7.4248-2.10058,7.4248-7.57519,0-5.17481-3.52539-6.82422-7.4248-6.82422Z"/><path class="cls-3" d="M82.64941,217.4894h26.09864V226.339h-6.82422v32.92383h6.82422v8.84961H82.64941v-8.84961h6.749V226.339h-6.749Z"/><path class="cls-3" d="M115.57422,217.4894h13.42383l13.27441,25.124c1.125,2.1748,2.625,6,3.8252,9h.2998c-.14941-2.85059-.52441-6.90039-.52441-9.8252V217.4894h10.27441v50.62305h-13.125l-13.79883-25.04883a69.87275,69.87275,0,0,1-3.6748-8.25h-.30078c.22558,2.84961.60058,6.22461.60058,9v24.29883H115.57422Z"/><path class="cls-3" d="M163.04883,217.4894h26.09863V226.339h-6.82519v32.92383h6.82519v8.84961H163.04883v-8.84961h6.749V226.339h-6.749Z"/><path class="cls-3" d="M193.124,242.088c0-18.22364,9.67481-25.49805,23.249-25.49805,13.34961,0,23.02441,7.27441,23.02441,25.49805,0,20.25-9.97461,26.9248-23.02441,26.9248C202.79883,269.01284,193.124,261.73745,193.124,242.088Zm33.44825,0c0-12.59864-4.94922-16.64844-10.34961-16.64844-5.39942,0-10.27442,4.0498-10.27442,16.64844,0,14.02441,4.875,18.07519,10.27442,18.07519C221.62305,260.16323,226.57227,256.11245,226.57227,242.088Z"/></svg>