<svg id="Layer_1" data-name="Layer 1" xmlns="http://www.w3.org/2000/svg" viewBox="0 0 200 165"><defs><style>.cls-1{fill:#ff7a3d;}.cls-2{fill:#fff;}</style></defs><rect class="cls-1" width="200" height="165" rx="20"/><path class="cls-2" d="M100.003,22.76424a18.81543,18.81543,0,0,0-9.84043,34.874l.06071-16.05968a9.77917,9.77917,0,1,1,19.55821.07257l-.06072,16.06627A18.8186,18.8186,0,0,0,100.003,22.76424Z"/><path class="cls-2" d="M99.84971,86.88741H99.8313a4.7131,4.7131,0,0,1-4.69469-4.73012l.15372-40.56a4.7129,4.7129,0,0,1,4.71217-4.69515h.01841a4.7131,4.7131,0,0,1,4.69469,4.73012l-.15371,40.56A4.71291,4.71291,0,0,1,99.84971,86.88741Z"/><path class="cls-2" d="M57.92477,131.459a9.77932,9.77932,0,0,1-9.8261-16.91119l13.89114-8.07277a18.66736,18.66736,0,0,0-8.97953-2.32252A18.85053,18.85053,0,1,0,71.8422,123.37059Z"/><path class="cls-2" d="M53.01512,127.71707a4.71327,4.71327,0,0,1-2.37242-8.78833L85.71364,98.54751a4.71279,4.71279,0,1,1,4.73565,8.14954l-35.071,20.38124A4.6947,4.6947,0,0,1,53.01512,127.71707Z"/><path class="cls-2" d="M146.99033,104.14944a18.66433,18.66433,0,0,0-9.02344,2.3483l13.91279,8.03277a9.77917,9.77917,0,1,1-9.77993,16.93758l-13.93866-8.04741a18.84235,18.84235,0,1,0,18.82924-19.27124Z"/><path class="cls-2" d="M146.98574,127.71339a4.6868,4.6868,0,0,1-2.35172-.63234l-35.35536-20.41253a4.7126,4.7126,0,0,1,4.71264-8.16243l35.35536,20.41252a4.7133,4.7133,0,0,1-2.36092,8.79478Z"/></svg>