<svg id="Layer_1" data-name="Layer 1" xmlns="http://www.w3.org/2000/svg" viewBox="0 0 200 269.01844"><defs><style>.cls-1{fill:#ff7a3d;}.cls-2{fill:#fff;}.cls-3{fill:#344845;}</style></defs><rect class="cls-1" width="200" height="165" rx="20"/><path class="cls-2" d="M106.94482,34.72681a9.71539,9.71539,0,0,1,2.83667,6.92431l-.06079,16.06617a18.8546,18.8546,0,1,0-19.5581-.07911l.06054-16.05969a9.7798,9.7798,0,0,1,16.72168-6.85168Z"/><path class="cls-2" d="M100.021,36.9021h-.01856a4.713,4.713,0,0,0-4.71216,4.69519l-.15356,40.55994a4.71311,4.71311,0,0,0,4.69458,4.73022h.01831a4.7132,4.7132,0,0,0,4.7124-4.69519l.15357-40.55994A4.71312,4.71312,0,0,0,100.021,36.9021Z"/><path class="cls-2" d="M53.01514,132.78333a9.81107,9.81107,0,0,1-8.459-4.86683,9.77946,9.77946,0,0,1,3.54248-13.36865l13.89112-8.07275a18.6665,18.6665,0,0,0-8.9795-2.32251,18.85047,18.85047,0,1,0,18.832,19.218L57.9248,131.459A9.80275,9.80275,0,0,1,53.01514,132.78333Z"/><path class="cls-2" d="M85.71362,98.54749l-35.071,20.38122a4.71283,4.71283,0,1,0,4.73584,8.14954L90.44922,106.697a4.71277,4.71277,0,1,0-4.7356-8.14953Z"/><path class="cls-2" d="M146.99023,104.14941a18.664,18.664,0,0,0-9.02343,2.34839l13.91284,8.03272a9.77916,9.77916,0,1,1-9.78,16.9375l-13.93848-8.04737a18.84229,18.84229,0,1,0,18.8291-19.27124Z"/><path class="cls-2" d="M146.98584,127.71338a4.71332,4.71332,0,0,0,2.36084-8.7948L113.99121,98.5061a4.71251,4.71251,0,1,0-4.7124,8.16236L144.634,127.08105A4.68652,4.68652,0,0,0,146.98584,127.71338Z"/><path class="cls-3" d="M12.70166,217.495H25.22607v14.17481c0,1.57422-.22558,3.89941-.375,5.624h.29981a43.12232,43.12232,0,0,1,3.14941-4.72461l12.375-15.07422h13.499l-16.499,19.874,17.39942,30.749H40.67529L28.97607,246.89344l-3.75,4.5752v16.64941H12.70166Z"/><path class="cls-3" d="M67.30029,252.21864c-1.34961,4.875,1.42481,7.95019,5.625,7.95019,4.72461,0,7.125-3.75,7.125-9.07519,0-5.69922-2.85058-7.875-6.6748-7.875a9.10432,9.10432,0,0,0-6.22461,2.40039l-5.40039-5.84961,15.6748-12.97461H58.82568V217.495h31.124v9.82422l-12,9.90039c7.65039-.75,14.9248,4.27442,14.9248,14.02442,0,10.57422-8.625,17.77441-19.499,17.77441-10.27442,0-18.89942-6.375-16.64942-15.2998Z"/><path class="cls-3" d="M97.67529,242.09364c0-18.22364,9.67481-25.49805,23.249-25.49805,13.34961,0,23.02441,7.27441,23.02441,25.49805,0,20.25-9.97461,26.9248-23.02441,26.9248C107.3501,269.01844,97.67529,261.74305,97.67529,242.09364Zm33.44825,0c0-12.59864-4.94922-16.64844-10.34961-16.64844-5.39942,0-10.27442,4.0498-10.27442,16.64844,0,14.02441,4.875,18.07519,10.27442,18.07519C126.17432,260.16883,131.12354,256.11805,131.12354,242.09364Z"/><path class="cls-3" d="M159.17432,251.46864c-.90039,4.0498.6748,8.70019,8.624,8.70019,5.25,0,7.0498-2.10058,7.0498-4.875,0-4.20019-4.19921-5.25-9.14941-7.0498-7.4248-2.54981-16.57422-6.15039-16.57422-16.72461,0-9.44922,7.27442-15.22461,19.64942-14.92383,15.14941.2998,19.42382,9.22461,17.77441,16.94922l-11.47461,1.0498c.75-5.84961-1.35059-9.14941-7.27539-9.14941-3.97461,0-6.22461,1.5-6.22461,4.64941,0,4.2002,4.04981,5.47461,9,7.19922,7.64941,2.55078,16.72461,5.625,16.72461,16.125,0,9.07422-6.75,15.59961-19.94922,15.59961-12.375,0-20.84961-5.70019-19.124-16.5Z"/></svg>