<?xml version="1.0" encoding="utf-8"?>
<!-- Generator: Adobe Illustrator 25.2.0, SVG Export Plug-In . SVG Version: 6.00 Build 0)  -->
<svg version="1.1" id="Layer_1" xmlns="http://www.w3.org/2000/svg" xmlns:xlink="http://www.w3.org/1999/xlink" x="0px" y="0px"
	 viewBox="0 0 200 266.0585938" style="enable-background:new 0 0 200 266.0585938;" xml:space="preserve">
<style type="text/css">
	.st0{fill:#A453B9;}
	.st1{fill:#FFFFFF;}
	.st2{fill:#344845;}
	.st3{fill:#D13306;}
	.st4{fill:#004D93;}
	.st5{fill:#0081BE;}
	.st6{fill:#1167F1;}
	.st7{fill:#FFC400;}
	.st8{fill:#FF7A3D;}
	.st9{fill:#00A580;}
	.st10{fill:#53C3D0;}
	.st11{fill:#671C4C;}
	.st12{fill:#00E3C2;}
	.st13{fill:#00B056;}
	.st14{fill:#BC2A46;}
	.st15{fill:#FF192E;}
</style>
<g>
	<path class="st8" d="M180,165H20c-11,0-20-9-20-20V20C0,9,9,0,20,0h160c11,0,20,9,20,20v125C200,156,191,165,180,165z"/>
	<g>
		<path class="st1" d="M106.9448242,34.7268066c1.8388672,1.8537598,2.8466797,4.3127441,2.8366699,6.9243164l-0.060791,16.0661621
			c5.4570312-3.3056641,9.1328125-9.2697754,9.1328125-16.1025391c0-10.3942871-8.4562988-18.8505859-18.8505859-18.8505859
			S81.1523438,31.220459,81.1523438,41.6147461c0,6.7805176,3.6220703,12.7023926,9.0102539,16.0234375l0.0605469-16.0596924
			c0.0200195-5.3723145,4.4084473-9.7427979,9.7800293-9.7427979
			C102.6535645,31.8455811,105.104248,32.8723145,106.9448242,34.7268066z"/>
		<path class="st1" d="M100.0209961,36.9020996c-0.0065918,0-0.0119629,0-0.0185547,0
			c-2.5942383,0-4.7023926,2.0986328-4.7121582,4.6951904l-0.1535645,40.5599365
			c-0.0097656,2.6020508,2.092041,4.7199707,4.6945801,4.7302246c0.0065918,0,0.0119629,0,0.0183105,0
			c2.5942383,0,4.7026367-2.0986328,4.7124023-4.6951904l0.1535645-40.5599365
			C104.7253418,39.0302734,102.6235352,36.9123535,100.0209961,36.9020996z"/>
		<path class="st1" d="M53.0151367,132.7833252c-3.4750977,0-6.7158203-1.8653564-8.4589844-4.8668213
			c-1.3127441-2.2578125-1.6674805-4.8916016-0.9978027-7.416626c0.6679688-2.5257568,2.2810059-4.6392822,4.5402832-5.9520264
			l13.8911133-8.0727539c-2.6750488-1.4610596-5.7224121-2.3225098-8.9794922-2.3225098
			c-10.3942871,0-18.8505859,8.4562988-18.8505859,18.8505859c0,10.394043,8.4562988,18.8503418,18.8505859,18.8503418
			c10.2702637,0,18.6333008-8.2595215,18.8320312-18.4829102l-13.9174805,8.0883789
			C56.4272461,132.326416,54.7319336,132.7833252,53.0151367,132.7833252z"/>
		<path class="st1" d="M85.713623,98.5474854l-35.0710449,20.3812256c-2.2504883,1.3079834-3.0144043,4.192627-1.7067871,6.4431152
			c0.8747559,1.5048828,2.4553223,2.3452148,4.0793457,2.3452148c0.8034668,0,1.6181641-0.2061768,2.3632812-0.6387939
			l35.0708008-20.3812256c2.2504883-1.3078613,3.0146484-4.192627,1.7070312-6.4431152
			C90.8483887,98.0043945,87.9645996,97.2404785,85.713623,98.5474854z"/>
		<path class="st1" d="M146.9902344,104.1494141c-3.2751465,0-6.3376465,0.8719482-9.0234375,2.3483887l13.9128418,8.0327148
			c4.6706543,2.6972656,6.2753906,8.6896973,3.5788574,13.3586426c-1.7399902,3.0166016-4.9873047,4.8908691-8.472168,4.8908691
			c-1.7119141,0-3.4006348-0.4536133-4.8867188-1.3120117l-13.9384766-8.0473633
			c0.2268066,10.1987305,8.5769043,18.4298096,18.8291016,18.4298096c10.3942871,0,18.8505859-8.4562988,18.8505859-18.8504639
			C165.8408203,112.6057129,157.3845215,104.1494141,146.9902344,104.1494141z"/>
		<path class="st1" d="M146.9858398,127.7133789c1.6286621,0,3.2131348-0.8459473,4.0856934-2.3571777
			c1.3015137-2.2541504,0.5292969-5.1361084-1.7248535-6.4376221l-35.3554688-20.4124756
			c-2.2543945-1.3033447-5.1364746-0.5283203-6.4375,1.7248535c-1.3015137,2.2541504-0.5292969,5.1359863,1.7250977,6.4375
			l35.3552246,20.4125977C145.3764648,127.5100098,146.1862793,127.7133789,146.9858398,127.7133789z"/>
	</g>
	<g>
		<path class="st2" d="M12.7016602,214.5351562h12.5244141v14.1748047c0,1.5742188-0.2255859,3.8994141-0.375,5.6240234h0.2998047
			c0.8251953-1.2744141,1.875-3.2246094,3.1494141-4.7246094l12.375-15.0742188h13.4990234L37.675293,234.4091797
			l17.3994141,30.7490234H40.675293l-11.6992188-21.2246094l-3.75,4.5751953v16.6494141H12.7016602V214.5351562z"/>
		<path class="st2" d="M67.300293,249.2587891c-1.3496094,4.875,1.4248047,7.9501953,5.625,7.9501953
			c4.7246094,0,7.125-3.75,7.125-9.0751953c0-5.6992188-2.8505859-7.875-6.6748047-7.875
			c-2.0253906,0-4.2001953,0.6005859-6.2246094,2.4003906l-5.4003906-5.8496094l15.6748047-12.9746094H58.8256836v-9.2998047
			H89.949707v9.8242188l-12,9.9003906c7.6503906-0.75,14.9248047,4.2744141,14.9248047,14.0244141
			c0,10.5742188-8.625,17.7744141-19.4990234,17.7744141c-10.2744141,0-18.8994141-6.375-16.6494141-15.2998047
			L67.300293,249.2587891z"/>
		<path class="st2" d="M97.675293,239.1337891c0-18.2236328,9.6748047-25.4980469,23.2490234-25.4980469
			c13.3496094,0,23.0244141,7.2744141,23.0244141,25.4980469c0,20.25-9.9746094,26.9248047-23.0244141,26.9248047
			C107.3500977,266.0585938,97.675293,258.7832031,97.675293,239.1337891z M131.1235352,239.1337891
			c0-12.5986328-4.9492188-16.6484375-10.3496094-16.6484375c-5.3994141,0-10.2744141,4.0498047-10.2744141,16.6484375
			c0,14.0244141,4.875,18.0751953,10.2744141,18.0751953C126.1743164,257.2089844,131.1235352,253.1582031,131.1235352,239.1337891z
			"/>
		<path class="st2" d="M159.1743164,248.5087891c-0.9003906,4.0498047,0.6748047,8.7001953,8.6240234,8.7001953
			c5.25,0,7.0498047-2.1005859,7.0498047-4.875c0-4.2001953-4.1992188-5.25-9.1494141-7.0498047
			c-7.4248047-2.5498047-16.5742188-6.1503906-16.5742188-16.7246094c0-9.4492188,7.2744141-15.2246094,19.6494141-14.9238281
			c15.1494141,0.2998047,19.4238281,9.2246094,17.7744141,16.9492188l-11.4746094,1.0498047
			c0.75-5.8496094-1.3505859-9.1494141-7.2753906-9.1494141c-3.9746094,0-6.2246094,1.5-6.2246094,4.6494141
			c0,4.2001953,4.0498047,5.4746094,9,7.1992188c7.6494141,2.5507812,16.7246094,5.625,16.7246094,16.125
			c0,9.0742188-6.75,15.5996094-19.9492188,15.5996094c-12.375,0-20.8496094-5.7001953-19.1240234-16.5L159.1743164,248.5087891z"/>
	</g>
</g>
</svg>
