<svg id="Layer_1" data-name="Layer 1" xmlns="http://www.w3.org/2000/svg" viewBox="0 0 395.46973 269.01844"><defs><style>.cls-1{fill:#00a580;}.cls-2{fill:#fff;}.cls-3{fill:#344845;}</style></defs><rect class="cls-1" x="97.73486" width="200" height="165" rx="20"/><path class="cls-2" d="M281.05591,84.4209a4.99705,4.99705,0,0,0,.2522-.8125c.0166-.07263.02978-.14551.04321-.21936a4.984,4.984,0,0,0-.00025-1.78c-.01318-.07263-.02636-.14429-.04248-.2157a4.97056,4.97056,0,0,0-.25341-.81689c-.01514-.036-.03565-.06861-.05152-.10425a4.9988,4.9988,0,0,0-.23266-.47266L261.00439,45.7627a4.99179,4.99179,0,0,0-.28735-.4292c-.02539-.03492-.04541-.07251-.07153-.10694a5.00277,5.00277,0,0,0-.57617-.623c-.05591-.05176-.11353-.10083-.17212-.15027a4.99605,4.99605,0,0,0-.72-.51844l-.00293-.00219-.00269-.00122a5.00038,5.00038,0,0,0-.80835-.36426c-.07324-.02649-.14575-.05225-.21973-.07507a4.98166,4.98166,0,0,0-.82348-.18653c-.04736-.00622-.09424-.00464-.14136-.0094a4.97647,4.97647,0,0,0-.50439-.03344H217.14014a5.00468,5.00468,0,0,0-.50391.03344c-.04785.00489-.095.00318-.14258.00952a4.9597,4.9597,0,0,0-.822.18616c-.07446.02307-.1477.049-.22143.07568a4.99741,4.99741,0,0,0-.80713.3639l-.00293.00122-.00293.00219a4.995,4.995,0,0,0-.72.51844c-.0586.04944-.11621.09851-.17212.15027a4.96786,4.96786,0,0,0-.57617.62329c-.02613.03405-.0459.07129-.071.106a5.01285,5.01285,0,0,0-.28784.42994L194.48682,77.49951H179.88525L193.87842,53.2627h6.49512a5,5,0,0,0,0-10H190.9917a5.00091,5.00091,0,0,0-4.33008,2.5L168.33838,77.49951H153.73584L167.729,53.2627h6.4961a5,5,0,0,0,0-10h-9.38281a5.00088,5.00088,0,0,0-4.33008,2.5L142.189,77.49951H127.58643L141.57959,53.2627h6.49609a5,5,0,0,0,0-10h-9.38281a5.00091,5.00091,0,0,0-4.33008,2.5l-19.7666,34.23681a5.006,5.006,0,0,0-.23022.46741c-.01685.03772-.03833.07214-.0542.11035a4.95087,4.95087,0,0,0-.25293.81458c-.01636.07214-.02954.1444-.04273.21765a4.9787,4.9787,0,0,0,0,1.78c.01319.07324.02637.1455.04273.21765a4.95076,4.95076,0,0,0,.25293.81457c.01587.03821.03735.07263.0542.11035a5.00359,5.00359,0,0,0,.23022.46741l19.7666,34.23731a5.00093,5.00093,0,0,0,4.33008,2.5h9.38281a5,5,0,0,0,0-10h-6.49609L127.58643,87.49951H142.189l18.32325,31.73731a5.0009,5.0009,0,0,0,4.33008,2.5h9.38281a5,5,0,0,0,0-10H167.729L153.73584,87.49951h14.60254l18.32324,31.73731a5.00093,5.00093,0,0,0,4.33008,2.5h9.38184a5,5,0,0,0,0-10h-6.49512L179.88525,87.49951h14.60157l18.32324,31.73731a4.92784,4.92784,0,0,0,.2876.42944c.02514.03479.04516.07227.07129.10657a4.994,4.994,0,0,0,.57617.62317c.05591.05175.11377.10083.17236.15039a4.99268,4.99268,0,0,0,.71973.51831l.00293.00219c.0205.012.04248.01954.06323.03113a5.0111,5.0111,0,0,0,.52392.25794c.1521.06323.30762.11084.4629.158.051.01562.0996.03711.15112.051a4.96783,4.96783,0,0,0,1.29394.17285l.01514-.001h39.51367l.01514.001a4.96783,4.96783,0,0,0,1.29394-.17285c.05152-.01391.1001-.0354.15113-.051.15527-.04712.31079-.09473.46289-.158a5.0111,5.0111,0,0,0,.52392-.25794c.02076-.01159.04273-.01916.06324-.03113l.00317-.00219a5.00672,5.00672,0,0,0,.71851-.51734c.05932-.05.11767-.09985.17431-.15234a4.99455,4.99455,0,0,0,.57471-.62134c.02686-.0354.04761-.07422.07373-.11023a4.99355,4.99355,0,0,0,.28564-.42663L280.771,84.99951a4.97075,4.97075,0,0,0,.22754-.46216C281.01636,84.49756,281.03906,84.46118,281.05591,84.4209Zm-24.38159,22.31579-5.77344-10.00024,5.333-9.23645h11.54663ZM206.03394,87.5h11.5476l5.333,9.23633-5.77441,10.00073Zm11.10644-29.23767,5.77417,10.00049L217.58154,77.5H206.03345Zm14.43433,33.474L226.2417,82.5l5.333-9.2373h10.666l5.333,9.2373-5.333,9.23633Zm10.666-28.47363h-10.666l-5.77393-10h22.21338Zm-10.666,38.47363h10.666l5.77344,10.00049H225.80054ZM256.23389,77.5l-5.333-9.2373,5.77344-10L267.781,77.5Z"/><path class="cls-3" d="M0,217.495H12.52441v19.124h15.374V217.495H40.42285v50.623H27.89844V246.66883h-15.374v21.44922H0Z"/><path class="cls-3" d="M62.09863,217.495H74.77246l17.09961,50.623H79.19727l-3.14942-9.59961H59.09863l-3.07519,9.59961H45.07422Zm0,31.72364h10.874l-3.44922-10.64942A49.51585,49.51585,0,0,1,67.79785,229.87h-.2998a64.2546,64.2546,0,0,1-1.875,8.624Z"/><path class="cls-3" d="M96.52344,217.495h20.84863c9.89941,0,16.57422,4.79981,16.57422,14.09961a14.16758,14.16758,0,0,1-10.19922,13.72461,15.0147,15.0147,0,0,1,3.52441,4.79981c2.10059,4.27441,3.52539,8.999,7.9502,8.999a5.82906,5.82906,0,0,0,2.02441-.375l-.97461,8.92481a24.54757,24.54757,0,0,1-5.02441.6748c-6,0-9.4502-2.32422-12.97461-10.34961-1.5-3.59961-3.60059-9.89941-6.375-9.89941h-2.84961v20.02441H96.52344Zm12.52441,9.0752v12.44922h4.5c3.59961,0,7.79883-1.125,7.79883-6.52539,0-4.42481-2.84961-5.92383-6.29981-5.92383Z"/><path class="cls-3" d="M136.34863,217.495h12.97461l9.52442,28.57422a49.40679,49.40679,0,0,1,1.65039,9.14942h.2998a51.07428,51.07428,0,0,1,1.72461-9.07422l9.375-28.64942h11.32422l-17.32422,50.623H153.74805Z"/><path class="cls-3" d="M187.79883,217.495h33.52344v9.29981h-20.999v10.874h17.624v9.29981h-17.624v11.84961h21.749v9.2998H187.79883Z"/><path class="cls-3" d="M236.99805,251.46864c-.90039,4.0498.6748,8.70019,8.624,8.70019,5.25,0,7.0498-2.10058,7.0498-4.875,0-4.20019-4.19921-5.25-9.14941-7.0498-7.4248-2.54981-16.57422-6.15039-16.57422-16.72461,0-9.44922,7.27442-15.22461,19.64942-14.92383,15.14941.2998,19.42382,9.22461,17.77441,16.94922l-11.47461,1.0498c.75-5.84961-1.35059-9.14941-7.27539-9.14941-3.97461,0-6.22461,1.5-6.22461,4.64941,0,4.2002,4.04981,5.47461,9,7.19922,7.64941,2.55078,16.72461,5.625,16.72461,16.125,0,9.07422-6.75,15.59961-19.94922,15.59961-12.375,0-20.84961-5.70019-19.124-16.5Z"/><path class="cls-3" d="M268.19824,217.495h40.42285v9.29981H294.52246v41.32324H281.99805V226.79481H268.19824Z"/><path class="cls-3" d="M313.94727,217.495H347.4707v9.29981h-20.999v10.874h17.624v9.29981h-17.624v11.84961h21.749v9.2998H313.94727Z"/><path class="cls-3" d="M354.74707,217.495H375.5957c9.89942,0,16.57422,4.79981,16.57422,14.09961a14.16757,14.16757,0,0,1-10.19922,13.72461,15.01488,15.01488,0,0,1,3.52442,4.79981c2.10058,4.27441,3.52539,8.999,7.95019,8.999a5.82916,5.82916,0,0,0,2.02442-.375l-.97461,8.92481a24.54772,24.54772,0,0,1-5.02442.6748c-6,0-9.45019-2.32422-12.97461-10.34961-1.5-3.59961-3.60058-9.89941-6.375-9.89941h-2.84961v20.02441H354.74707Zm12.52441,9.0752v12.44922h4.499c3.60058,0,7.7998-1.125,7.7998-6.52539,0-4.42481-2.84961-5.92383-6.2998-5.92383Z"/></svg>