<?xml version="1.0" encoding="utf-8"?>
<!-- Generator: Adobe Illustrator 26.0.0, SVG Export Plug-In . SVG Version: 6.00 Build 0)  -->
<svg version="1.1" id="Layer_1" xmlns="http://www.w3.org/2000/svg" xmlns:xlink="http://www.w3.org/1999/xlink" x="0px" y="0px"
	 viewBox="0 0 645.4415283 165" style="enable-background:new 0 0 645.4415283 165;" xml:space="preserve">
<style type="text/css">
	.st0{fill:#FFFFFF;}
</style>
<g>
	<g>
		<polygon class="st0" points="144.5058594,91.7363281 149.8388672,82.5 144.5058594,73.2626953 133.8398438,73.2626953 
			128.5068359,82.5 133.8398438,91.7363281 		"/>
		<polygon class="st0" points="133.8398438,101.7363281 128.0656738,111.7368164 150.2792969,111.7368164 144.5058594,101.7363281 
					"/>
		<polygon class="st0" points="108.2990723,87.5 119.4052734,106.7370605 125.1796875,96.7363281 119.8466797,87.5 		"/>
		<polygon class="st0" points="133.8398438,63.2626953 144.5058594,63.2626953 150.2792969,53.2626953 128.065918,53.2626953 		"/>
		<polygon class="st0" points="108.298584,77.5 119.8466797,77.5 125.1796875,68.2628174 119.4055176,58.2623291 		"/>
		<path class="st0" d="M180,0H20C9,0,0,9,0,20v125c0,11,9,20,20,20h160c11,0,20-9,20-20V20C200,9,191,0,180,0z
			 M183.6164551,83.3890381c-0.0134277,0.0738525-0.0266113,0.1467285-0.0432129,0.2193604
			c-0.0629883,0.2756348-0.1420898,0.5482178-0.2521973,0.8125c-0.0168457,0.0402832-0.0395508,0.0766602-0.057373,0.1164551
			c-0.0698242,0.15625-0.1408691,0.3120117-0.2275391,0.4621582l-19.7666016,34.2373047
			c-0.0864258,0.1496582-0.185791,0.2885742-0.2856445,0.4266357c-0.026123,0.0360107-0.046875,0.0748291-0.0737305,0.1102295
			c-0.1733398,0.2263184-0.3686523,0.4301758-0.574707,0.6213379c-0.0566406,0.0524902-0.1149902,0.1022949-0.1743164,0.1523438
			c-0.2263184,0.1912842-0.4628906,0.3693848-0.7185059,0.517334c-0.0012207,0.0007324-0.0021973,0.0014648-0.0031738,0.0021973
			c-0.0205078,0.0119629-0.0424805,0.0195312-0.0632324,0.0311279c-0.1699219,0.0949707-0.34375,0.1832275-0.5239258,0.2579346
			c-0.1520996,0.0632324-0.3076172,0.1108398-0.4628906,0.157959c-0.0510254,0.015625-0.0996094,0.0371094-0.151123,0.0510254
			c-0.4272461,0.1152344-0.8620605,0.1728516-1.2939453,0.1728516c-0.005127,0-0.0100098-0.0009766-0.0151367-0.0009766h-39.5136719
			c-0.005127,0-0.0100098,0.0009766-0.0151367,0.0009766c-0.4318848,0-0.8666992-0.0576172-1.2939453-0.1728516
			c-0.0515137-0.013916-0.1000977-0.0354004-0.151123-0.0510254c-0.1552734-0.0471191-0.310791-0.0947266-0.4628906-0.157959
			c-0.1801758-0.074707-0.3540039-0.1629639-0.5239258-0.2579346c-0.020752-0.0115967-0.0427246-0.019165-0.0632324-0.0311279
			c-0.0009766-0.0007324-0.0019531-0.0014648-0.0029297-0.0021973c-0.2561035-0.1481934-0.4931641-0.3265381-0.7197266-0.5183105
			c-0.0585938-0.0495605-0.1164551-0.0986328-0.1723633-0.1503906c-0.2067871-0.1918945-0.4025879-0.3962402-0.5761719-0.6231689
			c-0.026123-0.0343018-0.0461426-0.0717773-0.0712891-0.1065674c-0.1008301-0.138916-0.2006836-0.2788086-0.2875977-0.4294434
			L96.7519531,87.4995117H82.1503906l13.9931641,24.2373047h6.4951172c2.7617188,0,5,2.2387695,5,5s-2.2382812,5-5,5h-9.3818359
			c-1.7861328,0-3.4365234-0.953125-4.3300781-2.5L70.6035156,87.4995117H56.0009766l13.9931641,24.2373047h6.4960938
			c2.7617188,0,5,2.2387695,5,5s-2.2382812,5-5,5h-9.3828125c-1.7861328,0-3.4365234-0.953125-4.3300781-2.5L44.4541016,87.4995117
			H29.8515625l13.9931641,24.2373047h6.4960938c2.7617188,0,5,2.2387695,5,5s-2.2382812,5-5,5h-9.3828125
			c-1.7861328,0-3.4365234-0.953125-4.3300781-2.5L16.8613281,84.9995117
			c-0.0876465-0.1518555-0.159668-0.3093262-0.2302246-0.4674072c-0.0168457-0.0377197-0.0383301-0.0721436-0.0541992-0.1103516
			c-0.1105957-0.2650146-0.1901855-0.538208-0.2529297-0.8145752c-0.0163574-0.0721436-0.029541-0.1444092-0.0427246-0.2176514
			c-0.1069336-0.5893555-0.1069336-1.1906738,0-1.7800293c0.0131836-0.0732422,0.0263672-0.1455078,0.0427246-0.2176514
			c0.0627441-0.2763672,0.142334-0.5495605,0.2529297-0.8145752c0.0158691-0.038208,0.0373535-0.0726318,0.0541992-0.1103516
			c0.0705566-0.1580811,0.1425781-0.3155518,0.2302246-0.4674072l19.7666016-34.2368164
			c0.8935547-1.546875,2.5439453-2.5,4.3300781-2.5h9.3828125c2.7617188,0,5,2.2387695,5,5s-2.2382812,5-5,5h-6.4960938
			L29.8515625,77.4995117h14.6025391l18.3232422-31.7368164c0.8935547-1.546875,2.5439453-2.5,4.3300781-2.5h9.3828125
			c2.7617188,0,5,2.2387695,5,5s-2.2382812,5-5,5h-6.4960938L56.0009766,77.4995117h14.6025391l18.3232422-31.7368164
			c0.8935547-1.546875,2.5439453-2.5,4.3300781-2.5h9.3818359c2.7617188,0,5,2.2387695,5,5s-2.2382812,5-5,5h-6.4951172
			L82.1503906,77.4995117h14.6015625l18.3232422-31.7368164c0.0871582-0.1507568,0.1870117-0.2907715,0.2878418-0.4299316
			c0.0251465-0.034668,0.0449219-0.0718994,0.0710449-0.105957c0.1733398-0.2270508,0.3693848-0.4313965,0.5761719-0.623291
			c0.0559082-0.0517578,0.1135254-0.1008301,0.1721191-0.1502686c0.2268066-0.1917725,0.463623-0.3702393,0.7199707-0.5184326
			c0.0009766-0.0007324,0.0019531-0.0014648,0.0029297-0.0021973c0.0009766-0.0004883,0.0019531-0.0007324,0.0029297-0.0012207
			c0.2558594-0.147583,0.5283203-0.2634277,0.8071289-0.3638916c0.0737305-0.0267334,0.1469727-0.0526123,0.2214355-0.0756836
			c0.2675781-0.0825195,0.5405273-0.1495361,0.8220215-0.1861572c0.0476074-0.0063477,0.0947266-0.0046387,0.1425781-0.0095215
			c0.1669922-0.0168457,0.3339844-0.0334473,0.5039062-0.0334473h39.5341797c0.1699219,0,0.3374023,0.0164795,0.5043945,0.0334473
			c0.0471191,0.0047607,0.0939941,0.0031738,0.1413574,0.0093994c0.2817383,0.0367432,0.5554199,0.1038818,0.8234863,0.1865234
			c0.0739746,0.0228271,0.1464844,0.048584,0.2197266,0.0750732c0.2792969,0.1004639,0.552002,0.2165527,0.8083496,0.3642578
			c0.0007324,0.0004883,0.001709,0.0007324,0.0026855,0.0012207c0.0009766,0.0007324,0.0019531,0.0014648,0.0029297,0.0021973
			c0.2563477,0.1481934,0.4931641,0.3266602,0.7199707,0.5184326c0.0585938,0.0494385,0.1162109,0.0985107,0.1721191,0.1502686
			c0.2067871,0.1918945,0.4025879,0.3962402,0.5761719,0.6230469c0.026123,0.0344238,0.0461426,0.0720215,0.0715332,0.1069336
			c0.1005859,0.138916,0.2004395,0.2786865,0.2873535,0.4291992l19.7666016,34.2368164
			c0.088623,0.1535645,0.1616211,0.3128662,0.232666,0.4726562c0.0158691,0.0356445,0.036377,0.0682373,0.0515137,0.104248
			c0.1108398,0.2657471,0.1904297,0.5395508,0.253418,0.8168945c0.0161133,0.0714111,0.0292969,0.1430664,0.0424805,0.2156982
			C183.7231445,82.1983643,183.7231445,82.7995605,183.6164551,83.3890381z"/>
		<polygon class="st0" points="153.1660156,96.7364502 158.9394531,106.7366943 170.0456543,87.5 158.4990234,87.5 		"/>
		<polygon class="st0" points="153.1660156,68.2626953 158.4990234,77.5 170.0461426,77.5 158.9394531,58.2626953 		"/>
	</g>
	<g>
		<path class="st0" d="M249.971817,57.1935883h12.5243988v19.1240234h15.3740234V57.1935883h12.5244141v50.6230469h-12.5244141
			V86.3674164h-15.3740234v21.4492188H249.971817V57.1935883z"/>
		<path class="st0" d="M312.0704346,57.1935883h12.6738281l17.0996094,50.6230469h-12.6748047l-3.1494141-9.5996094h-16.9492188
			l-3.0751953,9.5996094h-10.9492188L312.0704346,57.1935883z M312.0704346,88.9172211h10.8740234l-3.4492188-10.6494141
			c-1.2001953-3.5996094-1.7255859-8.6992188-1.7255859-8.6992188h-0.2998047c0,0-0.75,5.1748047-1.875,8.6240234
			L312.0704346,88.9172211z"/>
		<path class="st0" d="M346.4952393,57.1935883h20.8486328c9.8994141,0,16.5742188,4.7998047,16.5742188,14.0996094
			c0,7.5742188-5.1748047,12.1494141-10.1992188,13.7246094c1.5,1.2744141,2.625,3,3.5244141,4.7998047
			c2.1005859,4.2744141,3.5253906,8.9990234,7.9501953,8.9990234c1.125,0,2.0244141-0.375,2.0244141-0.375l-0.9746094,8.9248047
			c0,0-2.7001953,0.6748047-5.0244141,0.6748047c-6,0-9.4501953-2.3242188-12.9746094-10.3496094
			c-1.5-3.5996094-3.6005859-9.8994141-6.375-9.8994141h-2.8496094v20.0244141h-12.5244141V57.1935883z M359.0196533,66.2687836
			v12.4492188h4.5c3.5996094,0,7.7988281-1.125,7.7988281-6.5253906c0-4.4248047-2.8496094-5.9238281-6.2998047-5.9238281
			H359.0196533z"/>
		<path class="st0" d="M386.3204346,57.1935883h12.9746094l9.5244141,28.5742188
			c1.2001953,3.6748047,1.6503906,9.1494141,1.6503906,9.1494141h0.2998047c0,0,0.5253906-5.4746094,1.7246094-9.0742188
			l9.375-28.6494141h11.3242188l-17.3242188,50.6230469h-12.1494141L386.3204346,57.1935883z"/>
		<path class="st0" d="M437.7706299,57.1935883h33.5234375v9.2998047h-20.9990234v10.8740234h17.6240234v9.2998047h-17.6240234
			v11.8496094h21.7490234v9.2998047h-34.2734375V57.1935883z"/>
		<path class="st0" d="M486.9698486,91.1672211c-0.9003906,4.0498047,0.6748047,8.7001953,8.6240234,8.7001953
			c5.25,0,7.0498047-2.1005859,7.0498047-4.875c0-4.2001953-4.1992188-5.25-9.1494141-7.0498047
			c-7.4248047-2.5498047-16.5742188-6.1503906-16.5742188-16.7246094c0-9.4492188,7.2744141-15.2246094,19.6494141-14.9238281
			c15.1494141,0.2998047,19.4238281,9.2246094,17.7744141,16.9492188l-11.4746094,1.0498047
			c0.75-5.8496094-1.3505859-9.1494141-7.2753906-9.1494141c-3.9746094,0-6.2246094,1.5-6.2246094,4.6494141
			c0,4.2001953,4.0498047,5.4746094,9,7.1992188c7.6494141,2.5507812,16.7246094,5.625,16.7246094,16.125
			c0,9.0742188-6.75,15.5996094-19.9492188,15.5996094c-12.375,0-20.8496094-5.7001953-19.1240234-16.5L486.9698486,91.1672211z"/>
		<path class="st0" d="M518.1700439,57.1935883h40.4228516v9.2998047h-14.0986328v41.3232422h-12.5244141V66.4933929h-13.7998047
			V57.1935883z"/>
		<path class="st0" d="M563.9190674,57.1935883h33.5234375v9.2998047h-20.9990234v10.8740234h17.6240234v9.2998047h-17.6240234
			v11.8496094h21.7490234v9.2998047h-34.2734375V57.1935883z"/>
		<path class="st0" d="M604.7188721,57.1935883h20.8486328c9.8994141,0,16.5742188,4.7998047,16.5742188,14.0996094
			c0,7.5742188-5.1748047,12.1494141-10.1992188,13.7246094c1.5,1.2744141,2.625,3,3.5244141,4.7998047
			c2.1005859,4.2744141,3.5253906,8.9990234,7.9501953,8.9990234c1.125,0,2.0244141-0.375,2.0244141-0.375l-0.9746094,8.9248047
			c0,0-2.7001953,0.6748047-5.0244141,0.6748047c-6,0-9.4501953-2.3242188-12.9746094-10.3496094
			c-1.5-3.5996094-3.6005859-9.8994141-6.375-9.8994141h-2.8496094v20.0244141h-12.5244141V57.1935883z M617.2432861,66.2687836
			v12.4492188h4.4990234c3.6005859,0,7.7998047-1.125,7.7998047-6.5253906c0-4.4248047-2.8496094-5.9238281-6.2998047-5.9238281
			H617.2432861z"/>
	</g>
</g>
</svg>
