<?xml version="1.0" encoding="utf-8"?>
<!-- Generator: Adobe Illustrator 26.0.0, SVG Export Plug-In . SVG Version: 6.00 Build 0)  -->
<svg version="1.1" id="Layer_1" xmlns="http://www.w3.org/2000/svg" xmlns:xlink="http://www.w3.org/1999/xlink" x="0px" y="0px"
	 viewBox="0 0 568.0316772 111.362381" style="enable-background:new 0 0 568.0316772 111.362381;" xml:space="preserve">
<style type="text/css">
	.st0{fill:#384745;}
	.st1{fill:#0077AD;}
</style>
<g>
	<g>
		<path class="st0" d="M165.2546234,30.9658813h20.4453735c9.70784,0,16.25383,4.7068939,16.25383,13.8266182
			c0,7.4271851-5.0747223,11.9137764-10.0028839,13.4578323c1.4712677,1.2509651,2.5747223,2.9425354,3.4568939,4.7068901
			c2.0593872,4.1925354,3.4569092,8.8256683,7.7959747,8.8256683c1.102478,0,1.9856262-0.3678207,1.9856262-0.3678207
			l-0.9559326,8.7519073c0,0-2.6475067,0.6618805-4.9281616,0.6618805c-5.8831329,0-9.2662659-2.279686-12.7231598-10.1484528
			c-1.4703064-3.5306473-3.5296936-9.7088127-6.250946-9.7088127h-2.7950287V80.608551h-12.2815857V30.9658813z
			 M177.5362091,39.8643341v12.2088051h4.4128265c3.5296936,0,7.648468-1.1034508,7.648468-6.3984604
			c0-4.339077-2.7940521-5.8103447-6.1772003-5.8103447H177.5362091z"/>
		<path class="st0" d="M222.6156158,30.9658813h12.4291077L251.812912,80.608551h-12.4291077l-3.0890808-9.4137802H219.674057
			l-3.0153198,9.4137802h-10.7375336L222.6156158,30.9658813z M222.6156158,62.0750427h10.6637878l-3.3831329-10.4434776
			c-1.176239-3.5296822-1.6906128-8.5306358-1.6906128-8.5306358h-0.2950287c0,0-0.7346649,5.0737381-1.8381042,8.4568787
			L222.6156158,62.0750427z"/>
		<path class="st0" d="M256.3693848,30.9658813h13.1637573l13.018219,24.6369438
			c1.102478,2.1331444,2.5737305,5.8841019,3.750946,8.8256645h0.2940674
			c-0.147522-2.7950211-0.5153503-6.7662773-0.5153503-9.6340866V30.9658813h10.0756836V80.608551h-12.8697205
			L269.754425,56.0443993c-1.25-2.2059326-2.573761-5.4425278-3.6034546-8.0900307h-0.2950134
			c0.2212524,2.7950172,0.5890808,6.1044006,0.5890808,8.8256645V80.608551h-10.0756531V30.9658813z"/>
		<path class="st0" d="M302.8453369,55.4562798c0-17.9453926,8.8994141-25.3735466,22.6522827-25.3735466
			c14.4884949,0,20.2988281,7.9434891,18.6800537,18.6810265l-11.4721985,1.0296936
			c1.25-7.8697319-1.8390808-11.0325699-7.4281616-11.0325699c-5.3687744,0-9.7078552,3.972229-9.7078552,16.7691536
			c0,13.5315857,4.7069092,16.9884872,10.0756836,16.9884872c5.074707,0,9.1925049-3.1628418,8.3103333-9.6340866
			l10.7375183,1.102478c0.8093872,10.0756607-6.4721985,17.5038147-19.7097473,17.5038147
			C311.5244446,81.4907303,302.8453369,73.5482178,302.8453369,55.4562798z"/>
		<path class="st0" d="M351.2351074,30.9658813h12.2815857V49.719696h15.0765991V30.9658813h12.2825623V80.608551h-12.2825623
			V59.5750542h-15.0765991V80.608551h-12.2815857V30.9658813z"/>
		<path class="st0" d="M399.8451538,30.9658813h32.8745117v9.1197243H412.12677v10.6637802h17.2835083v9.1197281H412.12677
			v11.6197166h21.3285217v9.1197205h-33.6101379V30.9658813z"/>
		<path class="st0" d="M439.849884,30.9658813h20.4453735c9.7078247,0,16.2538147,4.7068939,16.2538147,13.8266182
			c0,7.4271851-5.074707,11.9137764-10.0028687,13.4578323c1.4712524,1.2509651,2.574707,2.9425354,3.4568787,4.7068901
			c2.0593872,4.1925354,3.4569092,8.8256683,7.79599,8.8256683c1.102478,0,1.9856262-0.3678207,1.9856262-0.3678207
			l-0.9559326,8.7519073c0,0-2.647522,0.6618805-4.9281616,0.6618805c-5.8831482,0-9.2662659-2.279686-12.723175-10.1484528
			c-1.4703064-3.5306473-3.5296936-9.7088127-6.250946-9.7088127h-2.7950134V80.608551H439.849884V30.9658813z
			 M452.1314697,39.8643341v12.2088051h4.4128113c3.5296936,0,7.648468-1.1034508,7.648468-6.3984604
			c0-4.339077-2.7940369-5.8103447-6.1771851-5.8103447H452.1314697z"/>
		<path class="st0" d="M484.8555298,55.0884628c0-17.8716354,8.6044006-25.0057297,20.2250671-25.0057297
			c11.693512,0,20.0038147,7.1340942,20.0038147,25.0057297c0,19.8572617-8.6043701,26.4022675-20.0038147,26.4022675
			C493.4599304,81.4907303,484.8555298,74.357605,484.8555298,55.0884628z M519.4953613,55.0884628
			c0-16.032547-6.472229-20.9607124-14.5622559-20.9607124c-8.0162964,0-14.4884949,4.9281654-14.4884949,20.9607124
			c0,17.4300613,6.4721985,22.2844696,14.4884949,22.2844696C513.0231323,77.3729324,519.4953613,72.5185242,519.4953613,55.0884628
			z"/>
		<path class="st0" d="M538.7606201,65.4581833c-0.3678589,1.0296936-0.4415894,1.9856262-0.4415894,2.868782
			c0,5.3687668,4.4865723,8.6781464,12.5028687,8.6781464c8.8984375,0,11.6934814-4.2662888,11.6934814-8.5316086
			c0-5.1484642-3.897522-7.7959709-11.0316162-10.1494141c-6.8400269-2.2796898-16.8419189-4.4856224-16.8419189-14.9291
			c0-8.0162735,6.2509155-13.3122559,16.694397-13.3122559c10.5172729,0,16.2538452,5.148468,16.2538452,13.5325584
			c0,0.809391-0.0737915,1.6178131-0.147522,2.4272041l-5.5153198,0.5881195
			c0.1465454-0.9559364,0.2202759-1.9118729,0.2202759-2.7950211c0-6.9128227-4.1915283-9.7078438-11.0315552-9.7078438
			c-8.0162964,0-10.9588013,4.1925278-10.9588013,8.6053619c0,6.4712486,5.7365723,8.3103333,11.9884644,10.3697205
			c7.574707,2.4999924,15.8860474,5.1474991,15.8860474,14.6350365c0,7.4281616-5.8103638,13.752861-17.4310303,13.752861
			c-9.7806396,0-17.2088013-4.4856186-17.2088013-12.7969208c0-0.8084183,0.0727539-1.6915741,0.2940674-2.5737457
			L538.7606201,65.4581833z"/>
	</g>
	<path class="st1" d="M121.587059,0H14.3923826C6.4767089,0,0,6.4766235,0,14.3924685v82.5774384
		c0,7.9158478,6.4767089,14.3924713,14.3923826,14.3924713H121.587059c7.9156723,0,14.3923874-6.4766235,14.3923874-14.3924713
		V14.3924685C135.9794464,6.4766235,129.5027313,0,121.587059,0z M35.0967293,97.2286911
		c-7.2758312,0-13.1954117-5.9194107-13.1954117-13.1953201c0-7.276001,5.9195805-13.1954117,13.1954117-13.1954117
		c2.2801247,0,4.4132805,0.6030579,6.2856445,1.6257553l-9.7234383,5.6509705
		c-1.5818367,0.9189224-2.7107906,2.3983917-3.1783695,4.16642c-0.4686031,1.7674713-0.220459,3.6111679,0.6982918,5.191597
		c1.2202148,2.1011505,3.4890614,3.4068146,5.9212894,3.4068146c1.2017555,0,2.3884773-0.3197479,3.4367676-0.9269943
		l9.7422371-5.661911C48.1403809,91.4470291,42.2860832,97.2286911,35.0967293,97.2286911z M61.3043442,72.6191025
		L36.7544441,86.8860016c-0.5215836,0.3027954-1.0917015,0.447113-1.6542969,0.447113
		c-1.1368179,0-2.2428703-0.5882263-2.8553734-1.6416931c-0.9153309-1.5752945-0.3804188-3.5945435,1.1949234-4.5101318
		l24.5495605-14.266861c1.5756836-0.9149017,3.5943375-0.3801193,4.5096664,1.1945343
		C63.414257,69.6843109,62.8793449,71.7035599,61.3043442,72.6191025z M61.1460953,27.0361748L61.1033707,38.277916
		c-3.7717285-2.324688-6.306839-6.4699993-6.306839-11.216362c0-7.276001,5.919239-13.1954098,13.1954117-13.1954098
		c7.2758331,0,13.1950684,5.9194088,13.1950684,13.1954098c0,4.7829342-2.5727081,8.9578133-6.3926239,11.2717781
		l0.0423813-11.246357c0.0068359-1.8281002-0.6986313-3.5493889-1.9858398-4.8470211
		c-1.2882309-1.2981873-3.0037155-2.0168591-4.8589859-2.0237789
		C64.2318344,20.2161751,61.1597672,23.2755127,61.1460953,27.0361748z M71.1829605,55.4657707
		c-0.0068359,1.8175926-1.4823761,3.2865906-3.2983398,3.2865906c-0.0047836,0-0.0085449,0-0.0129929,0
		c-1.8217773-0.0070915-3.2932129-1.4896355-3.286377-3.3110695l0.107666-28.3920002
		c0.0068359-1.8175907,1.4827194-3.2865906,3.2983398-3.2865906c0.0047913,0,0.0085449,0,0.0129929,0
		c1.8217773,0.0070934,3.2932129,1.4896374,3.286377,3.3110714L71.1829605,55.4657707z M73.2774887,68.0928574
		c0.9105453-1.5772629,2.9278336-2.1197357,4.5062485-1.2073975l24.7484894,14.2887802
		c1.5780792,0.9110107,2.118454,2.9283447,1.2075653,4.5062485c-0.6107864,1.0579453-1.7199173,1.6500626-2.8601532,1.6500626
		c-0.5595245,0-1.126564-0.142395-1.6460953-0.442627L74.4847183,72.5991516
		C72.9069824,71.6880951,72.3662567,69.6707611,73.2774887,68.0928574z M100.8830566,97.2265549
		c-7.176712,0-13.0217743-5.761795-13.1807098-12.9009094l9.7572708,5.6332016
		c1.0400925,0.6009216,2.2223663,0.9183655,3.4207077,0.9183655c2.4390564,0,4.7123489-1.3120346,5.9301758-3.4235229
		c1.8877411-3.2683105,0.7642517-7.4630127-2.5050354-9.3511353l-9.7388153-5.6229477
		c1.8798828-1.0334625,4.0236359-1.6438293,6.3164062-1.6438293c7.2758331,0,13.1954117,5.9194565,13.1954117,13.1954117
		C114.0784683,91.307106,108.1588898,97.2265549,100.8830566,97.2265549z"/>
</g>
</svg>
