<svg id="Layer_1" data-name="Layer 1" xmlns="http://www.w3.org/2000/svg" viewBox="0 0 413.54199 269.45224"><defs><style>.cls-1{fill:#ff192e;}.cls-2{fill:#344845;}</style></defs><rect class="cls-1" x="106.771" width="200" height="165.8788" rx="20.3475"/><path class="cls-2" d="M0,217.9288H12.52441v19.124h15.374v-19.124H40.42285v50.62305H27.89844V247.10263h-15.374v21.44922H0Z"/><path class="cls-2" d="M47.249,242.52744c0-18.22364,9.67481-25.49805,23.249-25.49805,13.34961,0,23.02441,7.27441,23.02441,25.49805,0,20.25-9.97461,26.9248-23.02441,26.9248C56.92383,269.45224,47.249,262.17685,47.249,242.52744Zm33.44825,0c0-12.59864-4.94922-16.64844-10.34961-16.64844-5.39942,0-10.27442,4.0498-10.27442,16.64844,0,14.02441,4.875,18.07519,10.27442,18.07519C75.74805,260.60263,80.69727,256.55185,80.69727,242.52744Z"/><path class="cls-2" d="M100.34863,217.9288h21.67383c8.92481,0,15.67383,3,15.67383,12.22461,0,6.97461-3.82422,9.67481-10.34961,11.09961v.29981c7.4248.90039,11.9248,4.7998,11.9248,12.375,0,9.89941-7.125,14.624-16.64941,14.624H100.34863Zm17.999,19.42383c3.2998,0,6.59961-.89941,6.59961-5.249,0-4.42481-2.92481-5.09961-5.84961-5.09961h-6.29981v10.34863Zm1.20019,22.125c3.82422,0,7.124-1.875,7.124-6.90039,0-4.34961-3.29981-6.14941-7.124-6.14941h-6.75v13.0498Z"/><path class="cls-2" d="M145.94727,217.9288h21.67382c8.92481,0,15.67383,3,15.67383,12.22461,0,6.97461-3.82422,9.67481-10.34961,11.09961v.29981c7.42481.90039,11.92481,4.7998,11.92481,12.375,0,9.89941-7.125,14.624-16.64942,14.624H145.94727Zm17.999,19.42383c3.2998,0,6.59961-.89941,6.59961-5.249,0-4.42481-2.92481-5.09961-5.84961-5.09961h-6.29981v10.34863Zm1.20019,22.125c3.82422,0,7.124-1.875,7.124-6.90039,0-4.34961-3.29981-6.14941-7.124-6.14941h-6.75v13.0498Z"/><path class="cls-2" d="M200.99609,247.17783l-16.27441-29.249h14.17383l6.6748,12.375c1.27539,2.39942,2.7002,5.624,2.7002,5.624h.2998s1.27539-3.14942,2.625-5.77442l6.375-12.22461h11.54883l-15.59863,29.249v21.374H200.99609Z"/><path class="cls-2" d="M233.54492,217.9288h32.77344v9.29981h-20.249v13.124h16.499v9.29981h-16.499v18.89941H233.54492Z"/><path class="cls-2" d="M281.91992,217.9288h12.67383l17.09961,50.62305H299.01855l-3.14941-9.59961H278.91992l-3.07519,9.59961H264.89551Zm0,31.72364h10.874L289.34473,239.003a49.51585,49.51585,0,0,1-1.72559-8.69922h-.2998a64.2546,64.2546,0,0,1-1.875,8.624Z"/><path class="cls-2" d="M316.34473,217.9288h20.84863c9.89941,0,16.57422,4.79981,16.57422,14.09961A14.16758,14.16758,0,0,1,343.56836,245.753a15.0147,15.0147,0,0,1,3.52441,4.79981c2.10059,4.27441,3.52539,8.999,7.9502,8.999a5.82906,5.82906,0,0,0,2.02441-.375l-.97461,8.9248a24.54723,24.54723,0,0,1-5.02441.67481c-6,0-9.4502-2.32422-12.97461-10.34961-1.5-3.59961-3.60059-9.89941-6.375-9.89941h-2.84961v20.02441H316.34473Zm12.52441,9.0752v12.44922h4.5c3.59961,0,7.79883-1.125,7.79883-6.52539,0-4.42481-2.84961-5.92383-6.29981-5.92383Z"/><path class="cls-2" d="M362.31934,217.9288h15.52441l8.249,22.57422c1.27539,3.59961,2.17481,7.27442,2.17481,7.27442h.30078a71.475,71.475,0,0,1,2.1748-7.27442l8.02442-22.57422H413.542v50.62305H401.84277V242.97763c0-3,.82422-10.0498.82422-10.0498h-.2998s-1.5,7.125-2.47461,9.6748l-9.75,25.94922h-5.625l-9.82422-25.94922a79.96242,79.96242,0,0,1-2.3252-9.22461h-.2998s.52539,6.59961.52539,9.59961v25.57422H362.31934Z"/></svg>