<?xml version="1.0" encoding="utf-8"?>
<!-- Generator: Adobe Illustrator 25.2.0, SVG Export Plug-In . SVG Version: 6.00 Build 0)  -->
<svg version="1.1" id="Layer_1" xmlns="http://www.w3.org/2000/svg" xmlns:xlink="http://www.w3.org/1999/xlink" x="0px" y="0px"
	 viewBox="0 0 413.5419922 271.1151733" style="enable-background:new 0 0 413.5419922 271.1151733;" xml:space="preserve">
<style type="text/css">
	.st0{fill:#A453B9;}
	.st1{fill:#FFFFFF;}
	.st2{fill:#344845;}
	.st3{fill:#D13306;}
	.st4{fill:#004D93;}
	.st5{fill:#0081BE;}
	.st6{fill:#1167F1;}
	.st7{fill:#FFC400;}
	.st8{fill:#FF7A3D;}
	.st9{fill:#00A580;}
	.st10{fill:#53C3D0;}
	.st11{fill:#671C4C;}
	.st12{fill:#00E3C2;}
	.st13{fill:#00B056;}
	.st14{fill:#BC2A46;}
	.st15{fill:#FF192E;}
</style>
<g>
	<path class="st15" d="M286.1796265,169.8787537H127.3623581c-11.3252487,0-20.591362-9.2661133-20.591362-20.5913696V20.5913639
		C106.7709961,9.2661142,116.0371094,0,127.3623581,0h158.8172607c11.3252563,0,20.5913696,9.2661142,20.5913696,20.5913639
		V149.287384C306.7709961,160.6126404,297.5048828,169.8787537,286.1796265,169.8787537z"/>
	<g>
		<path class="st2" d="M0,219.5917206h12.5244141v19.1240234h15.3740234v-19.1240234h12.5244141v50.6230621H27.8984375v-21.449234
			H12.5244141v21.449234H0V219.5917206z"/>
		<path class="st2" d="M47.2490234,244.1903534c0-18.2236328,9.6748047-25.4980469,23.2490234-25.4980469
			c13.3496094,0,23.0244141,7.2744141,23.0244141,25.4980469c0,20.2500153-9.9746094,26.9248199-23.0244141,26.9248199
			C56.9238281,271.1151733,47.2490234,263.8397827,47.2490234,244.1903534z M80.6972656,244.1903534
			c0-12.5986328-4.9492188-16.6484375-10.3496094-16.6484375c-5.3994141,0-10.2744141,4.0498047-10.2744141,16.6484375
			c0,14.0244293,4.875,18.0752106,10.2744141,18.0752106C75.7480469,262.265564,80.6972656,258.2147827,80.6972656,244.1903534z"/>
		<path class="st2" d="M100.3486328,219.5917206h21.6738281c8.9248047,0,15.6738281,3,15.6738281,12.2246094
			c0,6.9746094-3.8242188,9.6748047-10.3496094,11.0996094v0.2998047c7.4248047,0.9003906,11.9248047,4.7998047,11.9248047,12.375
			c0,9.8994293-7.125,14.6240387-16.6494141,14.6240387h-22.2734375V219.5917206z M118.3476562,239.0155487
			c3.2998047,0,6.5996094-0.8994141,6.5996094-5.2490234c0-4.4248047-2.9248047-5.0996094-5.8496094-5.0996094h-6.2998047
			v10.3486328H118.3476562z M119.5478516,261.140564c3.8242188,0,7.1240234-1.875,7.1240234-6.9004059
			c0-4.3496094-3.2998047-6.1494141-7.1240234-6.1494141h-6.75v13.0498199H119.5478516z"/>
		<path class="st2" d="M145.9472656,219.5917206h21.6738281c8.9248047,0,15.6738281,3,15.6738281,12.2246094
			c0,6.9746094-3.8242188,9.6748047-10.3496094,11.0996094v0.2998047c7.4248047,0.9003906,11.9248047,4.7998047,11.9248047,12.375
			c0,9.8994293-7.125,14.6240387-16.6494141,14.6240387h-22.2734375V219.5917206z M163.9462891,239.0155487
			c3.2998047,0,6.5996094-0.8994141,6.5996094-5.2490234c0-4.4248047-2.9248047-5.0996094-5.8496094-5.0996094h-6.2998047
			v10.3486328H163.9462891z M165.1464844,261.140564c3.8242188,0,7.1240234-1.875,7.1240234-6.9004059
			c0-4.3496094-3.2998047-6.1494141-7.1240234-6.1494141h-6.75v13.0498199H165.1464844z"/>
		<path class="st2" d="M200.9960938,248.840744l-16.2744141-29.2490234h14.1738281l6.6748047,12.375
			c1.2753906,2.3994141,2.7001953,5.6240234,2.7001953,5.6240234h0.2998047c0,0,1.2753906-3.1494141,2.625-5.7744141
			l6.375-12.2246094h11.5488281l-15.5986328,29.2490234v21.3740387h-12.5244141V248.840744z"/>
		<path class="st2" d="M233.5449219,219.5917206h32.7734375v9.2998047h-20.2490234v13.1240234h16.4990234v9.2998047h-16.4990234
			v18.8994293h-12.5244141V219.5917206z"/>
		<path class="st2" d="M281.9199219,219.5917206H294.59375l17.0996094,50.6230621h-12.6748047l-3.1494141-9.5996094h-16.9492188
			l-3.0751953,9.5996094h-10.9492188L281.9199219,219.5917206z M281.9199219,251.3153534h10.8740234l-3.4492188-10.6494141
			c-1.2001953-3.5996094-1.7255859-8.6992188-1.7255859-8.6992188h-0.2998047c0,0-0.75,5.1748047-1.875,8.6240234
			L281.9199219,251.3153534z"/>
		<path class="st2" d="M316.3447266,219.5917206h20.8486328c9.8994141,0,16.5742188,4.7998047,16.5742188,14.0996094
			c0,7.5742188-5.1748047,12.1494141-10.1992188,13.7246094c1.5,1.2744141,2.625,3,3.5244141,4.7998047
			c2.1005859,4.2744293,3.5253906,8.9990387,7.9501953,8.9990387c1.125,0,2.0244141-0.375,2.0244141-0.375l-0.9746094,8.9248047
			c0,0-2.7001953,0.6748047-5.0244141,0.6748047c-6,0-9.4501953-2.3242188-12.9746094-10.3496094
			c-1.5-3.5996094-3.6005859-9.8994293-6.375-9.8994293h-2.8496094v20.0244293h-12.5244141V219.5917206z M328.8691406,228.6669159
			v12.4492188h4.5c3.5996094,0,7.7988281-1.125,7.7988281-6.5253906c0-4.4248047-2.8496094-5.9238281-6.2998047-5.9238281
			H328.8691406z"/>
		<path class="st2" d="M362.3193359,219.5917206H377.84375l8.2490234,22.5742188
			c1.2753906,3.5996094,2.1748047,7.2744141,2.1748047,7.2744141h0.3007812c0,0,0.8994141-3.8242188,2.1748047-7.2744141
			l8.0244141-22.5742188h14.7744141v50.6230621h-11.6992188v-25.574234c0-3,0.8242188-10.0498047,0.8242188-10.0498047h-0.2998047
			c0,0-1.5,7.125-2.4746094,9.6748047l-9.75,25.949234h-5.625l-9.8242188-25.949234
			c-1.0498047-2.6992188-2.3251953-9.2246094-2.3251953-9.2246094h-0.2998047c0,0,0.5253906,6.5996094,0.5253906,9.5996094
			v25.574234h-10.2744141V219.5917206z"/>
	</g>
</g>
</svg>
