<?xml version="1.0" encoding="utf-8"?>
<!-- Generator: Adobe Illustrator 25.2.0, SVG Export Plug-In . SVG Version: 6.00 Build 0)  -->
<svg version="1.1" id="Layer_1" xmlns="http://www.w3.org/2000/svg" xmlns:xlink="http://www.w3.org/1999/xlink" x="0px" y="0px"
	 viewBox="0 0 644.0518188 165.8787994" style="enable-background:new 0 0 644.0518188 165.8787994;" xml:space="preserve">
<style type="text/css">
	.st0{fill:#A453B9;}
	.st1{fill:#FFFFFF;}
	.st2{fill:#344845;}
	.st3{fill:#D13306;}
	.st4{fill:#004D93;}
	.st5{fill:#0081BE;}
	.st6{fill:#1167F1;}
	.st7{fill:#FFC400;}
	.st8{fill:#FF7A3D;}
	.st9{fill:#00A580;}
	.st10{fill:#53C3D0;}
	.st11{fill:#671C4C;}
	.st12{fill:#00E3C2;}
	.st13{fill:#BC2A46;}
	.st14{fill:#FF192E;}
	.st15{fill:#00B056;}
</style>
<g>
	<path class="st14" d="M179.6524963,165.8787994H20.3474979C9.156374,165.8787994,0,156.7224274,0,145.5312958V20.3474979
		C0,9.156374,9.156374,0,20.3474979,0h159.3049927C190.8436279,0,200,9.156374,200,20.3474979v125.1837997
		C200,156.7224274,190.8436279,165.8787994,179.6524963,165.8787994z"/>
	<g>
		<path class="st2" d="M230.5098114,57.627388h12.5244141v19.1240234h15.3740387V57.627388h12.5244141v50.6230469h-12.5244141
			V86.8012161h-15.3740387v21.4492188h-12.5244141V57.627388z"/>
		<path class="st2" d="M277.7588501,82.2260208c0-18.2236328,9.6748047-25.4980469,23.2490234-25.4980469
			c13.3496094,0,23.0244141,7.2744141,23.0244141,25.4980469c0,20.25-9.9746094,26.9248047-23.0244141,26.9248047
			C287.4336548,109.1508255,277.7588501,101.8754349,277.7588501,82.2260208z M311.2070923,82.2260208
			c0-12.5986328-4.9492188-16.6484375-10.3496094-16.6484375c-5.3994141,0-10.2744141,4.0498047-10.2744141,16.6484375
			c0,14.0244141,4.875,18.0751953,10.2744141,18.0751953C306.2578735,100.3012161,311.2070923,96.2504349,311.2070923,82.2260208z"
			/>
		<path class="st2" d="M330.8584595,57.627388h21.6738281c8.9248047,0,15.6738281,3,15.6738281,12.2246094
			c0,6.9746094-3.8242188,9.6748047-10.3496094,11.0996094v0.2998047c7.4248047,0.9003906,11.9248047,4.7998047,11.9248047,12.375
			c0,9.8994141-7.125,14.6240234-16.6494141,14.6240234h-22.2734375V57.627388z M348.8574829,77.0512161
			c3.2998047,0,6.5996094-0.8994141,6.5996094-5.2490234c0-4.4248047-2.9248047-5.0996094-5.8496094-5.0996094h-6.2998047
			v10.3486328H348.8574829z M350.0576782,99.1762161c3.8242188,0,7.1240234-1.875,7.1240234-6.9003906
			c0-4.3496094-3.2998047-6.1494141-7.1240234-6.1494141h-6.75v13.0498047H350.0576782z"/>
		<path class="st2" d="M376.4570923,57.627388h21.6738281c8.9248047,0,15.6738281,3,15.6738281,12.2246094
			c0,6.9746094-3.8242188,9.6748047-10.3496094,11.0996094v0.2998047c7.4248047,0.9003906,11.9248047,4.7998047,11.9248047,12.375
			c0,9.8994141-7.125,14.6240234-16.6494141,14.6240234h-22.2734375V57.627388z M394.4561157,77.0512161
			c3.2998047,0,6.5996094-0.8994141,6.5996094-5.2490234c0-4.4248047-2.9248047-5.0996094-5.8496094-5.0996094h-6.2998047
			v10.3486328H394.4561157z M395.656311,99.1762161c3.8242188,0,7.1240234-1.875,7.1240234-6.9003906
			c0-4.3496094-3.2998047-6.1494141-7.1240234-6.1494141h-6.75v13.0498047H395.656311z"/>
		<path class="st2" d="M431.5059204,86.8764114L415.2315063,57.627388h14.1738281l6.6748047,12.375
			c1.2753906,2.3994141,2.7001953,5.6240234,2.7001953,5.6240234h0.2998047c0,0,1.2753906-3.1494141,2.625-5.7744141
			l6.375-12.2246094h11.5488281l-15.5986328,29.2490234v21.3740234h-12.5244141V86.8764114z"/>
		<path class="st2" d="M464.0547485,57.627388h32.7734375v9.2998047h-20.2490234v13.1240234h16.4990234v9.2998047h-16.4990234
			v18.8994141h-12.5244141V57.627388z"/>
		<path class="st2" d="M512.4297485,57.627388h12.6738281l17.0996094,50.6230469h-12.6748047l-3.1494141-9.5996094h-16.9492188
			l-3.0751953,9.5996094h-10.9492188L512.4297485,57.627388z M512.4297485,89.3510208h10.8740234l-3.4492188-10.6494141
			c-1.2001953-3.5996094-1.7255859-8.6992188-1.7255859-8.6992188h-0.2998047c0,0-0.75,5.1748047-1.875,8.6240234
			L512.4297485,89.3510208z"/>
		<path class="st2" d="M546.8545532,57.627388h20.8486328c9.8994141,0,16.5742188,4.7998047,16.5742188,14.0996094
			c0,7.5742188-5.1748047,12.1494141-10.1992188,13.7246094c1.5,1.2744141,2.625,3,3.5244141,4.7998047
			c2.1005859,4.2744141,3.5253906,8.9990234,7.9501953,8.9990234c1.125,0,2.0244141-0.375,2.0244141-0.375l-0.9746094,8.9248047
			c0,0-2.7001953,0.6748047-5.0244141,0.6748047c-6,0-9.4501953-2.3242188-12.9746094-10.3496094
			c-1.5-3.5996094-3.6005859-9.8994141-6.375-9.8994141h-2.8496094v20.0244141h-12.5244141V57.627388z M559.3789673,66.7025833
			v12.4492188h4.5c3.5996094,0,7.7988281-1.125,7.7988281-6.5253906c0-4.4248047-2.8496094-5.9238281-6.2998047-5.9238281
			H559.3789673z"/>
		<path class="st2" d="M592.8291626,57.627388h15.5244141l8.2490234,22.5742188
			c1.2753906,3.5996094,2.1748047,7.2744141,2.1748047,7.2744141h0.3007812c0,0,0.8994141-3.8242188,2.1748047-7.2744141
			l8.0244141-22.5742188h14.7744141v50.6230469h-11.6992188V82.6762161c0-3,0.8242188-10.0498047,0.8242188-10.0498047h-0.2998047
			c0,0-1.5,7.125-2.4746094,9.6748047l-9.75,25.9492188h-5.625l-9.8242188-25.9492188
			c-1.0498047-2.6992188-2.3251953-9.2246094-2.3251953-9.2246094h-0.2998047c0,0,0.5253906,6.5996094,0.5253906,9.5996094
			v25.5742188h-10.2744141V57.627388z"/>
	</g>
</g>
</svg>
